SplineFontDB: 3.0
FontName: SpurceSans-Italic
FullName: Spurce Sans Italic
FamilyName: Spurce Sans
Weight: Regular
Copyright: Copyright 2020 Nicholas Auler, with font name 'Spurce'.\n\nBased on Source Sans, Copyright 2010, 2012, 2014 Adobe Systems Incorporated (http://www.adobe.com/), with Reserved Font Name `Source'.
UComments: "This font is still in beta. If you find any issues, contact me at nicholas.auler@gmail.com+AAoA"
Version: 0.6
ItalicAngle: -11
UnderlinePosition: -100
UnderlineWidth: 50
Ascent: 750
Descent: 250
InvalidEm: 0
sfntRevision: 0x0000999a
LayerCount: 2
Layer: 0 1 "Back" 1
Layer: 1 1 "Fore" 0
XUID: [1021 316 771282308 18995]
StyleMap: 0x0001
FSType: 0
OS2Version: 3
OS2_WeightWidthSlopeOnly: 0
OS2_UseTypoMetrics: 0
CreationTime: 1441032398
ModificationTime: 1588186812
PfmFamily: 33
TTFWeight: 400
TTFWidth: 5
LineGap: 0
VLineGap: 0
Panose: 2 11 5 3 3 4 3 9 2 4
OS2TypoAscent: 750
OS2TypoAOffset: 0
OS2TypoDescent: -250
OS2TypoDOffset: 0
OS2TypoLinegap: 0
OS2WinAscent: 984
OS2WinAOffset: 0
OS2WinDescent: 273
OS2WinDOffset: 0
HheadAscent: 984
HheadAOffset: 0
HheadDescent: -273
HheadDOffset: 0
OS2SubXSize: 650
OS2SubYSize: 600
OS2SubXOff: -15
OS2SubYOff: 75
OS2SupXSize: 650
OS2SupYSize: 600
OS2SupXOff: 68
OS2SupYOff: 350
OS2StrikeYSize: 50
OS2StrikeYPos: 291
OS2CapHeight: 660
OS2XHeight: 486
OS2Vendor: 'ADBO'
OS2CodePages: 20000193.00000000
OS2UnicodeRanges: 20000007.00000001.00000000.00000000
Lookup: 1 0 0 "'aalt' Access All Alternates in Latin lookup 0" { "'aalt' Access All Alternates in Latin lookup 0 subtable"  } ['aalt' ('DFLT' <'dflt' > 'latn' <'dflt' > ) ]
Lookup: 3 0 0 "'aalt' Access All Alternates in Latin lookup 1" { "'aalt' Access All Alternates in Latin lookup 1 subtable"  } ['aalt' ('DFLT' <'dflt' > 'latn' <'dflt' > ) ]
Lookup: 2 0 0 "Multiple Substitution lookup 2" { "Multiple Substitution lookup 2 subtable"  } []

StartChar: .notdef
Encoding: 65536 -1 0
Width: 628
Flags: W
LayerCount: 2
Fore
SplineSet
36 0 m 1,0,-1
 166 660 l 1,1,-1
 622 660 l 1,2,-1
 492 0 l 1,3,-1
 36 0 l 1,0,-1
338 384 m 1,4,-1
 342 384 l 1,5,-1
 409 477 l 1,6,-1
 499 604 l 1,7,-1
 270 604 l 1,8,-1
 310 477 l 1,9,-1
 338 384 l 1,4,-1
150 56 m 1,10,-1
 399 56 l 1,11,-1
 355 192 l 1,12,-1
 324 293 l 1,13,-1
 320 293 l 1,14,-1
 249 192 l 1,15,-1
 150 56 l 1,10,-1
120 105 m 1,16,-1
 289 340 l 1,17,-1
 214 575 l 1,18,-1
 120 105 l 1,16,-1
450 105 m 1,19,-1
 546 575 l 1,20,-1
 375 340 l 1,21,-1
 450 105 l 1,19,-1
EndSplineSet
Validated: 1
EndChar

StartChar: A
Encoding: 65 65 2
Width: 510
GlyphClass: 2
Flags: W
AnchorPoint: "Anchor-6" 417 0 basechar 0
AnchorPoint: "Anchor-3" 223 -22 basechar 0
AnchorPoint: "Anchor-1" 357 682 basechar 0
LayerCount: 2
Fore
SplineSet
227 377 m 2,0,-1
 169 265 l 1,1,-1
 364 265 l 1,2,-1
 354 377 l 2,3,4
 349 429 349 429 344.5 481.5 c 128,-1,5
 340 534 340 534 336 591 c 1,6,-1
 332 591 l 1,7,8
 306 534 306 534 280.5 482.5 c 128,-1,9
 255 431 255 431 227 377 c 2,0,-1
-53 0 m 1,10,-1
 303 656 l 1,11,-1
 393 656 l 1,12,-1
 469 0 l 1,13,-1
 388 0 l 1,14,-1
 370 205 l 1,15,-1
 138 205 l 1,16,-1
 33 0 l 1,17,-1
 -53 0 l 1,10,-1
EndSplineSet
Validated: 1
EndChar

StartChar: B
Encoding: 66 66 3
Width: 583
GlyphClass: 2
Flags: W
AnchorPoint: "Anchor-3" 252 -22 basechar 0
AnchorPoint: "Anchor-1" 339 682 basechar 0
LayerCount: 2
Fore
SplineSet
35 0 m 1,0,-1
 166 656 l 1,1,-1
 341 656 l 2,2,3
 436 656 436 656 490 619.5 c 128,-1,4
 544 583 544 583 544 511 c 0,5,6
 544 478 544 478 531.5 450.5 c 128,-1,7
 519 423 519 423 498 402 c 128,-1,8
 477 381 477 381 451 367 c 128,-1,9
 425 353 425 353 398 347 c 1,10,-1
 397 343 l 1,11,12
 448 331 448 331 483 298.5 c 128,-1,13
 518 266 518 266 518 210 c 0,14,15
 518 155 518 155 497.5 115.5 c 128,-1,16
 477 76 477 76 440 50.5 c 128,-1,17
 403 25 403 25 353 12.5 c 128,-1,18
 303 0 303 0 245 0 c 2,19,-1
 35 0 l 1,0,-1
187 374 m 1,20,-1
 281 374 l 2,21,22
 375 374 375 374 420 409 c 128,-1,23
 465 444 465 444 465 500 c 0,24,25
 465 545 465 545 431 570 c 128,-1,26
 397 595 397 595 322 595 c 2,27,-1
 231 595 l 1,28,-1
 187 374 l 1,20,-1
124 61 m 1,29,-1
 238 61 l 2,30,31
 332 61 332 61 387 95 c 128,-1,32
 442 129 442 129 442 206 c 0,33,34
 442 256 442 256 403.5 286.5 c 128,-1,35
 365 317 365 317 292 317 c 2,36,-1
 176 317 l 1,37,-1
 124 61 l 1,29,-1
EndSplineSet
Validated: 1
EndChar

StartChar: C
Encoding: 67 67 4
Width: 550
GlyphClass: 2
Flags: W
AnchorPoint: "Anchor-3" 275 -22 basechar 0
AnchorPoint: "Anchor-2" 281 0 basechar 0
AnchorPoint: "Anchor-1" 422 682 basechar 0
LayerCount: 2
Fore
SplineSet
290 -12 m 0,0,1
 234 -12 234 -12 190.5 7.5 c 128,-1,2
 147 27 147 27 117.5 62 c 128,-1,3
 88 97 88 97 72.5 145.5 c 128,-1,4
 57 194 57 194 57 253 c 0,5,6
 57 330 57 330 81.5 404.5 c 128,-1,7
 106 479 106 479 150.5 537.5 c 128,-1,8
 195 596 195 596 257.5 632 c 128,-1,9
 320 668 320 668 396 668 c 0,10,11
 453 668 453 668 493 640.5 c 128,-1,12
 533 613 533 613 557 571 c 1,13,-1
 503 530 l 1,14,15
 483 562 483 562 456.5 581.5 c 128,-1,16
 430 601 430 601 392 601 c 0,17,18
 333 601 333 601 286 570 c 128,-1,19
 239 539 239 539 206 490 c 128,-1,20
 173 441 173 441 155 380.5 c 128,-1,21
 137 320 137 320 137 260 c 0,22,23
 137 215 137 215 146.5 177.5 c 128,-1,24
 156 140 156 140 176 113 c 128,-1,25
 196 86 196 86 228 70.5 c 128,-1,26
 260 55 260 55 304 55 c 0,27,28
 344 55 344 55 377.5 71 c 128,-1,29
 411 87 411 87 443 114 c 1,30,-1
 478 64 l 1,31,32
 442 32 442 32 396 10 c 128,-1,33
 350 -12 350 -12 290 -12 c 0,0,1
EndSplineSet
Validated: 1
EndChar

StartChar: D
Encoding: 68 68 5
Width: 592
GlyphClass: 2
Flags: W
AnchorPoint: "Anchor-3" 262 -22 basechar 0
AnchorPoint: "Anchor-1" 385 682 basechar 0
LayerCount: 2
Fore
SplineSet
35 0 m 1,0,-1
 166 656 l 1,1,-1
 288 656 l 2,2,3
 425 656 425 656 495.5 588.5 c 128,-1,4
 566 521 566 521 566 400 c 0,5,6
 566 311 566 311 541.5 237 c 128,-1,7
 517 163 517 163 471.5 110.5 c 128,-1,8
 426 58 426 58 360 29 c 128,-1,9
 294 0 294 0 211 0 c 2,10,-1
 35 0 l 1,0,-1
125 64 m 1,11,-1
 211 64 l 2,12,13
 275 64 275 64 326 88.5 c 128,-1,14
 377 113 377 113 413 156.5 c 128,-1,15
 449 200 449 200 468 261 c 128,-1,16
 487 322 487 322 487 395 c 0,17,18
 487 489 487 489 436 541 c 128,-1,19
 385 593 385 593 285 593 c 2,20,-1
 231 593 l 1,21,-1
 125 64 l 1,11,-1
EndSplineSet
Validated: 1
EndChar

StartChar: E
Encoding: 69 69 6
Width: 503
GlyphClass: 2
Flags: W
AnchorPoint: "Anchor-6" 337 0 basechar 0
AnchorPoint: "Anchor-3" 240 -22 basechar 0
AnchorPoint: "Anchor-1" 369 682 basechar 0
LayerCount: 2
Fore
SplineSet
35 0 m 1,0,-1
 166 656 l 1,1,-1
 528 656 l 1,2,-1
 515 591 l 1,3,-1
 230 591 l 1,4,-1
 188 378 l 1,5,-1
 429 378 l 1,6,-1
 415 312 l 1,7,-1
 176 312 l 1,8,-1
 125 66 l 1,9,-1
 419 66 l 1,10,-1
 405 0 l 1,11,-1
 35 0 l 1,0,-1
EndSplineSet
Validated: 1
EndChar

StartChar: F
Encoding: 70 70 7
Width: 473
GlyphClass: 2
Flags: W
AnchorPoint: "Anchor-3" 82 -22 basechar 0
AnchorPoint: "Anchor-1" 370 682 basechar 0
LayerCount: 2
Fore
SplineSet
35 0 m 1,0,-1
 166 656 l 1,1,-1
 528 656 l 1,2,-1
 515 591 l 1,3,-1
 230 591 l 1,4,-1
 185 363 l 1,5,-1
 426 363 l 1,6,-1
 413 297 l 1,7,-1
 173 297 l 1,8,-1
 113 0 l 1,9,-1
 35 0 l 1,0,-1
EndSplineSet
Validated: 1
EndChar

StartChar: G
Encoding: 71 71 8
Width: 588
GlyphClass: 2
Flags: W
AnchorPoint: "Anchor-3" 299 -22 basechar 0
AnchorPoint: "Anchor-1" 420 682 basechar 0
LayerCount: 2
Fore
SplineSet
300 -12 m 0,0,1
 241 -12 241 -12 195.5 7 c 128,-1,2
 150 26 150 26 119 60.5 c 128,-1,3
 88 95 88 95 72.5 144 c 128,-1,4
 57 193 57 193 57 253 c 0,5,6
 57 331 57 331 81.5 405.5 c 128,-1,7
 106 480 106 480 151 538.5 c 128,-1,8
 196 597 196 597 260.5 632.5 c 128,-1,9
 325 668 325 668 406 668 c 0,10,11
 465 668 465 668 505.5 640.5 c 128,-1,12
 546 613 546 613 571 571 c 1,13,-1
 516 530 l 1,14,15
 497 562 497 562 469.5 581.5 c 128,-1,16
 442 601 442 601 402 601 c 0,17,18
 340 601 340 601 291 570 c 128,-1,19
 242 539 242 539 207.5 490 c 128,-1,20
 173 441 173 441 155 380.5 c 128,-1,21
 137 320 137 320 137 260 c 0,22,23
 137 216 137 216 146.5 178.5 c 128,-1,24
 156 141 156 141 177 113 c 128,-1,25
 198 85 198 85 231 69.5 c 128,-1,26
 264 54 264 54 311 54 c 0,27,28
 347 54 347 54 375 65.5 c 128,-1,29
 403 77 403 77 423 94 c 1,30,-1
 460 275 l 1,31,-1
 324 275 l 1,32,-1
 337 339 l 1,33,-1
 543 339 l 1,34,-1
 486 55 l 1,35,36
 450 25 450 25 403.5 6.5 c 128,-1,37
 357 -12 357 -12 300 -12 c 0,0,1
EndSplineSet
Validated: 1
EndChar

StartChar: H
Encoding: 72 72 9
Width: 622
GlyphClass: 2
Flags: W
AnchorPoint: "Anchor-3" 275 -22 basechar 0
AnchorPoint: "Anchor-1" 400 682 basechar 0
LayerCount: 2
Fore
SplineSet
35 0 m 1,0,-1
 166 656 l 1,1,-1
 244 656 l 1,2,-1
 188 379 l 1,3,-1
 484 379 l 1,4,-1
 540 656 l 1,5,-1
 617 656 l 1,6,-1
 486 0 l 1,7,-1
 408 0 l 1,8,-1
 471 312 l 1,9,-1
 175 312 l 1,10,-1
 113 0 l 1,11,-1
 35 0 l 1,0,-1
EndSplineSet
Validated: 1
EndChar

StartChar: I
Encoding: 73 73 10
Width: 324
GlyphClass: 2
Flags: W
LayerCount: 2
Fore
SplineSet
-7 0 m 1,0,-1
 7 66 l 1,1,-1
 85 66 l 1,2,-1
 191 591 l 1,3,-1
 111 591 l 1,4,-1
 125 656 l 1,5,-1
 363 656 l 1,6,-1
 349 591 l 1,7,-1
 268 591 l 1,8,-1
 163 66 l 1,9,-1
 244 66 l 1,10,-1
 230 0 l 1,11,-1
 -7 0 l 1,0,-1
EndSplineSet
Validated: 1
Substitution2: "'ss04' Style Set 4 in Latin lookup 23 subtable" I.a
Substitution2: "'aalt' Access All Alternates in Latin lookup 0 subtable" I.a
EndChar

StartChar: J
Encoding: 74 74 11
Width: 456
GlyphClass: 2
Flags: W
AnchorPoint: "Anchor-3" 141 -30 basechar 0
AnchorPoint: "Anchor-1" 430 682 basechar 0
LayerCount: 2
Fore
SplineSet
159 -12 m 0,0,1
 100 -12 100 -12 59.5 15.5 c 128,-1,2
 19 43 19 43 -2 89 c 1,3,-1
 49 132 l 1,4,5
 63 96 63 96 91 75.5 c 128,-1,6
 119 55 119 55 161 55 c 0,7,8
 211 55 211 55 242 92 c 128,-1,9
 273 129 273 129 286 195 c 2,10,-1
 378 656 l 1,11,-1
 456 656 l 1,12,-1
 362 184 l 2,13,14
 354 142 354 142 337 106 c 128,-1,15
 320 70 320 70 295 43.5 c 128,-1,16
 270 17 270 17 236 2.5 c 128,-1,17
 202 -12 202 -12 159 -12 c 0,0,1
EndSplineSet
Validated: 1
EndChar

StartChar: K
Encoding: 75 75 12
Width: 559
GlyphClass: 2
Flags: W
AnchorPoint: "Anchor-3" 275 -22 basechar 0
AnchorPoint: "Anchor-1" 402 682 basechar 0
LayerCount: 2
Fore
SplineSet
35 0 m 1,0,-1
 166 656 l 1,1,-1
 244 656 l 1,2,-1
 179 332 l 1,3,-1
 182 332 l 1,4,-1
 511 656 l 1,5,-1
 599 656 l 1,6,-1
 353 404 l 1,7,-1
 502 0 l 1,8,-1
 421 0 l 1,9,-1
 295 354 l 1,10,-1
 158 220 l 1,11,-1
 113 0 l 1,12,-1
 35 0 l 1,0,-1
EndSplineSet
Validated: 1
EndChar

StartChar: L
Encoding: 76 76 13
Width: 462
GlyphClass: 2
Flags: W
AnchorPoint: "Anchor-3" 226 -22 basechar 0
AnchorPoint: "Anchor-1" 226 682 basechar 0
LayerCount: 2
Fore
SplineSet
35 0 m 1,0,-1
 166 656 l 1,1,-1
 244 656 l 1,2,-1
 126 66 l 1,3,-1
 402 66 l 1,4,-1
 389 0 l 1,5,-1
 35 0 l 1,0,-1
EndSplineSet
Validated: 1
EndChar

StartChar: M
Encoding: 77 77 14
Width: 705
GlyphClass: 2
Flags: W
AnchorPoint: "Anchor-3" 313 -30 basechar 0
AnchorPoint: "Anchor-1" 433 682 basechar 0
LayerCount: 2
Fore
SplineSet
35 0 m 1,0,-1
 166 656 l 1,1,-1
 259 656 l 1,2,-1
 316 302 l 1,3,-1
 338 166 l 1,4,-1
 342 166 l 1,5,-1
 412 302 l 1,6,-1
 607 656 l 1,7,-1
 700 656 l 1,8,-1
 569 0 l 1,9,-1
 494 0 l 1,10,-1
 570 370 l 2,11,12
 579 415 579 415 592 467.5 c 128,-1,13
 605 520 605 520 617 563 c 1,14,-1
 613 563 l 1,15,-1
 534 417 l 1,16,-1
 341 69 l 1,17,-1
 297 69 l 1,18,-1
 236 417 l 1,19,-1
 214 563 l 1,20,-1
 210 563 l 1,21,22
 204 518 204 518 197 466.5 c 128,-1,23
 190 415 190 415 182 370 c 2,24,-1
 108 0 l 1,25,-1
 35 0 l 1,0,-1
EndSplineSet
Validated: 1
EndChar

StartChar: N
Encoding: 78 78 15
Width: 619
GlyphClass: 2
Flags: W
AnchorPoint: "Anchor-3" 278 -30 basechar 0
AnchorPoint: "Anchor-1" 411 682 basechar 0
LayerCount: 2
Fore
SplineSet
35 0 m 1,0,-1
 166 656 l 1,1,-1
 244 656 l 1,2,-1
 394 236 l 1,3,-1
 436 99 l 1,4,-1
 440 99 l 1,5,6
 446 148 446 148 452.5 202.5 c 128,-1,7
 459 257 459 257 470 308 c 2,8,-1
 539 656 l 1,9,-1
 614 656 l 1,10,-1
 483 0 l 1,11,-1
 406 0 l 1,12,-1
 258 419 l 1,13,-1
 215 560 l 1,14,-1
 211 560 l 1,15,16
 205 509 205 509 197.5 456 c 128,-1,17
 190 403 190 403 180 353 c 2,18,-1
 110 0 l 1,19,-1
 35 0 l 1,0,-1
EndSplineSet
Validated: 1
EndChar

StartChar: O
Encoding: 79 79 16
Width: 633
GlyphClass: 2
Flags: W
AnchorPoint: "Anchor-6" 286 0 basechar 0
AnchorPoint: "Anchor-4" 511 648 basechar 0
AnchorPoint: "Anchor-3" 280 -22 basechar 0
AnchorPoint: "Anchor-1" 416 682 basechar 0
LayerCount: 2
Fore
SplineSet
287 -12 m 0,0,1
 232 -12 232 -12 189.5 7.5 c 128,-1,2
 147 27 147 27 118.5 63 c 128,-1,3
 90 99 90 99 75 150 c 128,-1,4
 60 201 60 201 60 263 c 0,5,6
 60 338 60 338 83.5 410.5 c 128,-1,7
 107 483 107 483 149 540.5 c 128,-1,8
 191 598 191 598 249.5 633 c 128,-1,9
 308 668 308 668 379 668 c 0,10,11
 434 668 434 668 476.5 648.5 c 128,-1,12
 519 629 519 629 547.5 593 c 128,-1,13
 576 557 576 557 591 506.5 c 128,-1,14
 606 456 606 456 606 394 c 0,15,16
 606 319 606 319 582.5 246 c 128,-1,17
 559 173 559 173 517 115.5 c 128,-1,18
 475 58 475 58 416 23 c 128,-1,19
 357 -12 357 -12 287 -12 c 0,0,1
291 55 m 0,20,21
 344 55 344 55 387.5 85.5 c 128,-1,22
 431 116 431 116 462 164 c 128,-1,23
 493 212 493 212 510 271 c 128,-1,24
 527 330 527 330 527 387 c 0,25,26
 527 484 527 484 490 542.5 c 128,-1,27
 453 601 453 601 375 601 c 0,28,29
 322 601 322 601 278.5 571 c 128,-1,30
 235 541 235 541 204 493 c 128,-1,31
 173 445 173 445 156 386 c 128,-1,32
 139 327 139 327 139 269 c 0,33,34
 139 221 139 221 148 181.5 c 128,-1,35
 157 142 157 142 175.5 114 c 128,-1,36
 194 86 194 86 223 70.5 c 128,-1,37
 252 55 252 55 291 55 c 0,20,21
EndSplineSet
Validated: 1
EndChar

StartChar: P
Encoding: 80 80 17
Width: 550
GlyphClass: 2
Flags: W
AnchorPoint: "Anchor-3" 80 -30 basechar 0
AnchorPoint: "Anchor-1" 383 682 basechar 0
LayerCount: 2
Fore
SplineSet
35 0 m 1,0,-1
 166 656 l 1,1,-1
 351 656 l 2,2,3
 397 656 397 656 435 647 c 128,-1,4
 473 638 473 638 500 618.5 c 128,-1,5
 527 599 527 599 542 569 c 128,-1,6
 557 539 557 539 557 496 c 0,7,8
 557 436 557 436 535.5 392 c 128,-1,9
 514 348 514 348 476 319.5 c 128,-1,10
 438 291 438 291 385.5 277.5 c 128,-1,11
 333 264 333 264 270 264 c 2,12,-1
 165 264 l 1,13,-1
 113 0 l 1,14,-1
 35 0 l 1,0,-1
178 327 m 1,15,-1
 273 327 l 2,16,17
 375 327 375 327 427.5 367 c 128,-1,18
 480 407 480 407 480 486 c 0,19,20
 480 543 480 543 442 568.5 c 128,-1,21
 404 594 404 594 332 594 c 2,22,-1
 231 594 l 1,23,-1
 178 327 l 1,15,-1
EndSplineSet
Validated: 1
EndChar

StartChar: Q
Encoding: 81 81 18
Width: 633
GlyphClass: 2
Flags: W
AnchorPoint: "Anchor-1" 416 682 basechar 0
LayerCount: 2
Fore
SplineSet
291 55 m 0,0,1
 344 55 344 55 387.5 85.5 c 128,-1,2
 431 116 431 116 462 164 c 128,-1,3
 493 212 493 212 510 271 c 128,-1,4
 527 330 527 330 527 387 c 0,5,6
 527 484 527 484 490 542.5 c 128,-1,7
 453 601 453 601 375 601 c 0,8,9
 322 601 322 601 278.5 571 c 128,-1,10
 235 541 235 541 204 493 c 128,-1,11
 173 445 173 445 156 386 c 128,-1,12
 139 327 139 327 139 269 c 0,13,14
 139 221 139 221 148 181.5 c 128,-1,15
 157 142 157 142 175.5 114 c 128,-1,16
 194 86 194 86 223 70.5 c 128,-1,17
 252 55 252 55 291 55 c 0,0,1
459 -162 m 0,18,19
 375 -162 375 -162 315 -124.5 c 128,-1,20
 255 -87 255 -87 230 -6 c 1,21,22
 146 13 146 13 103 84 c 128,-1,23
 60 155 60 155 60 263 c 0,24,25
 60 338 60 338 83.5 410.5 c 128,-1,26
 107 483 107 483 149 540.5 c 128,-1,27
 191 598 191 598 249.5 633 c 128,-1,28
 308 668 308 668 379 668 c 0,29,30
 434 668 434 668 476.5 648.5 c 128,-1,31
 519 629 519 629 547.5 593 c 128,-1,32
 576 557 576 557 591 506.5 c 128,-1,33
 606 456 606 456 606 394 c 0,34,35
 606 322 606 322 584.5 251.5 c 128,-1,36
 563 181 563 181 524 125 c 128,-1,37
 485 69 485 69 430.5 32 c 128,-1,38
 376 -5 376 -5 310 -11 c 1,39,40
 327 -55 327 -55 369 -76 c 128,-1,41
 411 -97 411 -97 464 -97 c 0,42,43
 479 -97 479 -97 492 -95 c 128,-1,44
 505 -93 505 -93 519 -90 c 1,45,-1
 524 -151 l 1,46,47
 491 -162 491 -162 459 -162 c 0,18,19
EndSplineSet
Validated: 1
EndChar

StartChar: R
Encoding: 82 82 19
Width: 555
GlyphClass: 2
Flags: W
AnchorPoint: "Anchor-3" 262 -30 basechar 0
AnchorPoint: "Anchor-1" 377 682 basechar 0
LayerCount: 2
Fore
SplineSet
35 0 m 1,0,-1
 166 656 l 1,1,-1
 346 656 l 2,2,3
 392 656 392 656 429.5 647.5 c 128,-1,4
 467 639 467 639 494 620.5 c 128,-1,5
 521 602 521 602 536 573 c 128,-1,6
 551 544 551 544 551 503 c 0,7,8
 551 458 551 458 536.5 421 c 128,-1,9
 522 384 522 384 496 356.5 c 128,-1,10
 470 329 470 329 435 311 c 128,-1,11
 400 293 400 293 358 285 c 1,12,-1
 473 0 l 1,13,-1
 390 0 l 1,14,-1
 282 278 l 1,15,-1
 168 278 l 1,16,-1
 113 0 l 1,17,-1
 35 0 l 1,0,-1
181 341 m 1,18,-1
 280 341 l 2,19,20
 374 341 374 341 424 382 c 128,-1,21
 474 423 474 423 474 493 c 0,22,23
 474 547 474 547 436.5 570.5 c 128,-1,24
 399 594 399 594 327 594 c 2,25,-1
 231 594 l 1,26,-1
 181 341 l 1,18,-1
EndSplineSet
Validated: 1
EndChar

StartChar: S
Encoding: 83 83 20
Width: 506
GlyphClass: 2
Flags: W
AnchorPoint: "Anchor-3" 225 -30 basechar 0
AnchorPoint: "Anchor-2" 231 0 basechar 0
AnchorPoint: "Anchor-1" 361 685 basechar 0
LayerCount: 2
Fore
SplineSet
231 -12 m 0,0,1
 163 -12 163 -12 107.5 16.5 c 128,-1,2
 52 45 52 45 12 104 c 1,3,-1
 69 147 l 1,4,5
 98 103 98 103 140.5 78.5 c 128,-1,6
 183 54 183 54 238 54 c 0,7,8
 268 54 268 54 294 63 c 128,-1,9
 320 72 320 72 338.5 88 c 128,-1,10
 357 104 357 104 368 127 c 128,-1,11
 379 150 379 150 379 178 c 0,12,13
 379 214 379 214 356.5 238.5 c 128,-1,14
 334 263 334 263 297 286 c 2,15,-1
 221 332 l 2,16,17
 179 358 179 358 149.5 394 c 128,-1,18
 120 430 120 430 120 486 c 0,19,20
 120 523 120 523 135.5 556 c 128,-1,21
 151 589 151 589 178 614 c 128,-1,22
 205 639 205 639 242.5 653.5 c 128,-1,23
 280 668 280 668 324 668 c 0,24,25
 383 668 383 668 431 642 c 128,-1,26
 479 616 479 616 510 576 c 1,27,-1
 459 530 l 1,28,29
 433 560 433 560 398.5 580.5 c 128,-1,30
 364 601 364 601 318 601 c 0,31,32
 290 601 290 601 268 592 c 128,-1,33
 246 583 246 583 230.5 568 c 128,-1,34
 215 553 215 553 207 534 c 128,-1,35
 199 515 199 515 199 495 c 0,36,37
 199 457 199 457 223.5 433.5 c 128,-1,38
 248 410 248 410 284 388 c 2,39,-1
 360 343 l 2,40,41
 408 315 408 315 433.5 279.5 c 128,-1,42
 459 244 459 244 459 189 c 0,43,44
 459 145 459 145 442 108 c 128,-1,45
 425 71 425 71 395 44.5 c 128,-1,46
 365 18 365 18 323 3 c 128,-1,47
 281 -12 281 -12 231 -12 c 0,0,1
EndSplineSet
Validated: 1
EndChar

StartChar: T
Encoding: 84 84 21
Width: 510
GlyphClass: 2
Flags: W
AnchorPoint: "Anchor-3" 209 -22 basechar 0
AnchorPoint: "Anchor-2" 215 0 basechar 0
AnchorPoint: "Anchor-1" 348 682 basechar 0
LayerCount: 2
Fore
SplineSet
166 0 m 1,0,-1
 283 589 l 1,1,-1
 93 589 l 1,2,-1
 106 656 l 1,3,-1
 565 656 l 1,4,-1
 552 589 l 1,5,-1
 361 589 l 1,6,-1
 244 0 l 1,7,-1
 166 0 l 1,0,-1
EndSplineSet
Validated: 1
EndChar

StartChar: U
Encoding: 85 85 22
Width: 616
GlyphClass: 2
Flags: W
AnchorPoint: "Anchor-6" 273 0 basechar 0
AnchorPoint: "Anchor-4" 588 666 basechar 0
AnchorPoint: "Anchor-3" 263 -22 basechar 0
AnchorPoint: "Anchor-1" 407 682 basechar 0
LayerCount: 2
Fore
SplineSet
89 288 m 2,0,-1
 163 656 l 1,1,-1
 241 656 l 1,2,-1
 166 281 l 2,3,4
 157 236 157 236 157 202 c 0,5,6
 157 131 157 131 189 93 c 128,-1,7
 221 55 221 55 290 55 c 0,8,9
 318 55 318 55 343.5 66 c 128,-1,10
 369 77 369 77 391 101 c 128,-1,11
 413 125 413 125 429.5 162.5 c 128,-1,12
 446 200 446 200 457 254 c 2,13,-1
 538 656 l 1,14,-1
 614 656 l 1,15,-1
 532 251 l 2,16,17
 518 180 518 180 494.5 130 c 128,-1,18
 471 80 471 80 439 48.5 c 128,-1,19
 407 17 407 17 368.5 2.5 c 128,-1,20
 330 -12 330 -12 286 -12 c 0,21,22
 186 -12 186 -12 132.5 40 c 128,-1,23
 79 92 79 92 79 195 c 0,24,25
 79 216 79 216 81.5 239.5 c 128,-1,26
 84 263 84 263 89 288 c 2,0,-1
EndSplineSet
Validated: 1
EndChar

StartChar: V
Encoding: 86 86 23
Width: 496
GlyphClass: 2
Flags: W
AnchorPoint: "Anchor-3" 209 -30 basechar 0
AnchorPoint: "Anchor-1" 350 682 basechar 0
LayerCount: 2
Fore
SplineSet
141 0 m 1,0,-1
 82 656 l 1,1,-1
 161 656 l 1,2,-1
 188 292 l 2,3,4
 193 238 193 238 197 184 c 128,-1,5
 201 130 201 130 204 76 c 1,6,-1
 208 76 l 1,7,8
 233 129 233 129 259.5 184 c 128,-1,9
 286 239 286 239 312 292 c 2,10,-1
 493 656 l 1,11,-1
 577 656 l 1,12,-1
 234 0 l 1,13,-1
 141 0 l 1,0,-1
EndSplineSet
Validated: 1
EndChar

StartChar: W
Encoding: 87 87 24
Width: 756
GlyphClass: 2
Flags: W
AnchorPoint: "Anchor-3" 326 -30 basechar 0
AnchorPoint: "Anchor-1" 474 682 basechar 0
LayerCount: 2
Fore
SplineSet
95 0 m 1,0,-1
 104 656 l 1,1,-1
 184 656 l 1,2,-1
 174 295 l 2,3,4
 171 242 171 242 169.5 189 c 128,-1,5
 168 136 168 136 164 82 c 1,6,-1
 168 82 l 1,7,8
 191 136 191 136 215 189 c 128,-1,9
 239 242 239 242 261 295 c 2,10,-1
 425 656 l 1,11,-1
 496 656 l 1,12,-1
 505 295 l 2,13,14
 506 243 506 243 506 189.5 c 128,-1,15
 506 136 506 136 506 82 c 1,16,-1
 510 82 l 1,17,18
 530 136 530 136 551.5 189 c 128,-1,19
 573 242 573 242 593 295 c 2,20,-1
 735 656 l 1,21,-1
 812 656 l 1,22,-1
 542 0 l 1,23,-1
 443 0 l 1,24,-1
 436 401 l 2,25,26
 436 437 436 437 436.5 476.5 c 128,-1,27
 437 516 437 516 439 555 c 1,28,-1
 435 555 l 1,29,30
 421 516 421 516 404.5 478 c 128,-1,31
 388 440 388 440 371 401 c 2,32,-1
 192 0 l 1,33,-1
 95 0 l 1,0,-1
EndSplineSet
Validated: 1
EndChar

StartChar: X
Encoding: 88 88 25
Width: 494
GlyphClass: 2
Flags: W
AnchorPoint: "Anchor-3" 269 -30 basechar 0
AnchorPoint: "Anchor-1" 346 682 basechar 0
LayerCount: 2
Fore
SplineSet
-36 0 m 1,0,-1
 216 340 l 1,1,-1
 108 656 l 1,2,-1
 192 656 l 1,3,-1
 248 482 l 2,4,5
 255 459 255 459 261 437.5 c 128,-1,6
 267 416 267 416 275 390 c 1,7,-1
 278 390 l 1,8,9
 295 414 295 414 312 438 c 128,-1,10
 329 462 329 462 344 485 c 2,11,-1
 464 656 l 1,12,-1
 546 656 l 1,13,-1
 309 334 l 1,14,-1
 426 0 l 1,15,-1
 342 0 l 1,16,-1
 282 184 l 2,17,18
 274 209 274 209 266.5 234.5 c 128,-1,19
 259 260 259 260 251 286 c 1,20,-1
 248 286 l 1,21,22
 228 260 228 260 210 232.5 c 128,-1,23
 192 205 192 205 175 180 c 2,24,-1
 47 0 l 1,25,-1
 -36 0 l 1,0,-1
EndSplineSet
Validated: 1
EndChar

StartChar: Y
Encoding: 89 89 26
Width: 461
GlyphClass: 2
Flags: W
AnchorPoint: "Anchor-3" 186 -30 basechar 0
AnchorPoint: "Anchor-1" 323 682 basechar 0
LayerCount: 2
Fore
SplineSet
139 0 m 1,0,-1
 190 256 l 1,1,-1
 83 656 l 1,2,-1
 163 656 l 1,3,-1
 208 467 l 2,4,5
 217 431 217 431 224.5 397 c 128,-1,6
 232 363 232 363 241 325 c 1,7,-1
 245 325 l 1,8,9
 268 362 268 362 289.5 397 c 128,-1,10
 311 432 311 432 335 468 c 2,11,-1
 459 656 l 1,12,-1
 542 656 l 1,13,-1
 268 256 l 1,14,-1
 216 0 l 1,15,-1
 139 0 l 1,0,-1
EndSplineSet
Validated: 1
EndChar

StartChar: Z
Encoding: 90 90 27
Width: 512
GlyphClass: 2
Flags: W
AnchorPoint: "Anchor-3" 212 -30 basechar 0
AnchorPoint: "Anchor-1" 359 682 basechar 0
LayerCount: 2
Fore
SplineSet
-1 0 m 1,0,-1
 9 47 l 1,1,-1
 434 591 l 1,2,-1
 134 591 l 1,3,-1
 148 656 l 1,4,-1
 541 656 l 1,5,-1
 531 610 l 1,6,-1
 109 66 l 1,7,-1
 440 66 l 1,8,-1
 425 0 l 1,9,-1
 -1 0 l 1,0,-1
EndSplineSet
Validated: 1
EndChar

StartChar: a
Encoding: 97 97 28
Width: 537
GlyphClass: 2
Flags: W
AnchorPoint: "Anchor-5" 342 0 basechar 0
AnchorPoint: "Anchor-3" 234 -22 basechar 0
AnchorPoint: "Anchor-0" 321 509 basechar 0
LayerCount: 2
Fore
SplineSet
179 -12 m 0,0,1
 115 -12 115 -12 77 33 c 128,-1,2
 39 78 39 78 39 164 c 0,3,4
 39 234 39 234 61 295 c 128,-1,5
 83 356 83 356 120 401 c 128,-1,6
 157 446 157 446 204 472 c 128,-1,7
 251 498 251 498 302 498 c 0,8,9
 341 498 341 498 371.5 478 c 128,-1,10
 402 458 402 458 419 425 c 1,11,-1
 423 425 l 1,12,-1
 442 486 l 1,13,-1
 504 486 l 1,14,-1
 407 0 l 1,15,-1
 344 0 l 1,16,-1
 352 72 l 1,17,-1
 348 72 l 1,18,19
 313 34 313 34 269 11 c 128,-1,20
 225 -12 225 -12 179 -12 c 0,0,1
207 52 m 0,21,22
 245 52 245 52 284.5 74.5 c 128,-1,23
 324 97 324 97 360 145 c 1,24,-1
 404 362 l 1,25,26
 383 400 383 400 358 417 c 128,-1,27
 333 434 333 434 305 434 c 0,28,29
 269 434 269 434 235 412.5 c 128,-1,30
 201 391 201 391 175 355 c 128,-1,31
 149 319 149 319 133.5 272.5 c 128,-1,32
 118 226 118 226 118 176 c 0,33,34
 118 113 118 113 142 82.5 c 128,-1,35
 166 52 166 52 207 52 c 0,21,22
EndSplineSet
Validated: 1
Substitution2: "'ss02' Style Set 2 in Latin lookup 21 subtable" a.a
Substitution2: "'sups' Superscript in Latin lookup 12 subtable" a.sups
AlternateSubs2: "'aalt' Access All Alternates in Latin lookup 1 subtable" a.sups a.a
EndChar

StartChar: b
Encoding: 98 98 29
Width: 536
GlyphClass: 2
Flags: W
AnchorPoint: "Anchor-3" 233 -22 basechar 0
AnchorPoint: "Anchor-0" 219 730 basechar 0
LayerCount: 2
Fore
SplineSet
94 0 m 1,0,-1
 31 0 l 1,1,-1
 173 712 l 1,2,-1
 250 712 l 1,3,-1
 211 522 l 1,4,-1
 189 426 l 1,5,-1
 191 426 l 1,6,7
 227 455 227 455 269 476.5 c 128,-1,8
 311 498 311 498 356 498 c 0,9,10
 420 498 420 498 458 453 c 128,-1,11
 496 408 496 408 496 322 c 0,12,13
 496 252 496 252 474 191 c 128,-1,14
 452 130 452 130 415.5 85 c 128,-1,15
 379 40 379 40 331.5 14 c 128,-1,16
 284 -12 284 -12 234 -12 c 0,17,18
 195 -12 195 -12 164.5 8 c 128,-1,19
 134 28 134 28 117 61 c 1,20,-1
 114 61 l 1,21,-1
 94 0 l 1,0,-1
328 434 m 0,22,23
 294 434 294 434 253.5 413 c 128,-1,24
 213 392 213 392 178 355 c 1,25,-1
 132 124 l 1,26,27
 152 86 152 86 177 69 c 128,-1,28
 202 52 202 52 231 52 c 0,29,30
 267 52 267 52 301 73.5 c 128,-1,31
 335 95 335 95 360.5 131 c 128,-1,32
 386 167 386 167 401.5 213.5 c 128,-1,33
 417 260 417 260 417 311 c 0,34,35
 417 373 417 373 393.5 403.5 c 128,-1,36
 370 434 370 434 328 434 c 0,22,23
EndSplineSet
Validated: 1
Substitution2: "'sups' Superscript in Latin lookup 12 subtable" b.sups
Substitution2: "'aalt' Access All Alternates in Latin lookup 0 subtable" b.sups
EndChar

StartChar: c
Encoding: 99 99 30
Width: 435
GlyphClass: 2
Flags: W
AnchorPoint: "Anchor-3" 219 -22 basechar 0
AnchorPoint: "Anchor-2" 200 0 basechar 0
AnchorPoint: "Anchor-0" 310 509 basechar 0
LayerCount: 2
Fore
SplineSet
216 -12 m 0,0,1
 136 -12 136 -12 86.5 38.5 c 128,-1,2
 37 89 37 89 37 183 c 0,3,4
 37 251 37 251 59.5 308.5 c 128,-1,5
 82 366 82 366 119.5 408 c 128,-1,6
 157 450 157 450 206 474 c 128,-1,7
 255 498 255 498 308 498 c 0,8,9
 352 498 352 498 382 481 c 128,-1,10
 412 464 412 464 434 439 c 1,11,-1
 389 391 l 1,12,13
 370 414 370 414 351 424.5 c 128,-1,14
 332 435 332 435 303 435 c 0,15,16
 267 435 267 435 233 415 c 128,-1,17
 199 395 199 395 172.5 361.5 c 128,-1,18
 146 328 146 328 130.5 283 c 128,-1,19
 115 238 115 238 115 188 c 0,20,21
 115 122 115 122 143.5 87 c 128,-1,22
 172 52 172 52 230 52 c 0,23,24
 262 52 262 52 288.5 65 c 128,-1,25
 315 78 315 78 338 95 c 1,26,-1
 372 45 l 1,27,28
 346 25 346 25 308 6.5 c 128,-1,29
 270 -12 270 -12 216 -12 c 0,0,1
EndSplineSet
Validated: 1
Substitution2: "'sups' Superscript in Latin lookup 12 subtable" c.sups
Substitution2: "'aalt' Access All Alternates in Latin lookup 0 subtable" c.sups
EndChar

StartChar: d
Encoding: 100 100 31
Width: 535
GlyphClass: 2
Flags: W
AnchorPoint: "Anchor-3" 229 -22 basechar 0
AnchorPoint: "Anchor-0" 493 730 basechar 0
LayerCount: 2
Fore
SplineSet
420 427 m 1,0,-1
 436 522 l 1,1,-1
 474 712 l 1,2,-1
 551 712 l 1,3,-1
 407 0 l 1,4,-1
 344 0 l 1,5,-1
 352 72 l 1,6,-1
 348 72 l 1,7,8
 313 34 313 34 269 11 c 128,-1,9
 225 -12 225 -12 179 -12 c 0,10,11
 115 -12 115 -12 77 33 c 128,-1,12
 39 78 39 78 39 164 c 0,13,14
 39 234 39 234 61 295 c 128,-1,15
 83 356 83 356 120 401 c 128,-1,16
 157 446 157 446 204 472 c 128,-1,17
 251 498 251 498 302 498 c 0,18,19
 341 498 341 498 370 478.5 c 128,-1,20
 399 459 399 459 417 427 c 1,21,-1
 420 427 l 1,0,-1
207 52 m 0,22,23
 245 52 245 52 284 74.5 c 128,-1,24
 323 97 323 97 360 145 c 1,25,-1
 404 362 l 1,26,27
 383 400 383 400 358 417 c 128,-1,28
 333 434 333 434 305 434 c 0,29,30
 269 434 269 434 235 412.5 c 128,-1,31
 201 391 201 391 175 355 c 128,-1,32
 149 319 149 319 133.5 272.5 c 128,-1,33
 118 226 118 226 118 176 c 0,34,35
 118 113 118 113 142 82.5 c 128,-1,36
 166 52 166 52 207 52 c 0,22,23
EndSplineSet
Validated: 1
Substitution2: "'sups' Superscript in Latin lookup 12 subtable" d.sups
Substitution2: "'aalt' Access All Alternates in Latin lookup 0 subtable" d.sups
EndChar

StartChar: e
Encoding: 101 101 32
Width: 481
GlyphClass: 2
Flags: W
AnchorPoint: "Anchor-5" 285 0 basechar 0
AnchorPoint: "Anchor-3" 216 -22 basechar 0
AnchorPoint: "Anchor-0" 306 509 basechar 0
LayerCount: 2
Fore
SplineSet
37 191 m 0,0,1
 37 260 37 260 60 316.5 c 128,-1,2
 83 373 83 373 119.5 413.5 c 128,-1,3
 156 454 156 454 202.5 476 c 128,-1,4
 249 498 249 498 297 498 c 0,5,6
 338 498 338 498 366.5 484.5 c 128,-1,7
 395 471 395 471 413 447.5 c 128,-1,8
 431 424 431 424 439 391.5 c 128,-1,9
 447 359 447 359 447 322 c 0,10,11
 447 293 447 293 441 267 c 128,-1,12
 435 241 435 241 430 227 c 1,13,-1
 114 227 l 1,14,15
 107 180 107 180 115 146.5 c 128,-1,16
 123 113 123 113 141.5 91 c 128,-1,17
 160 69 160 69 187 59 c 128,-1,18
 214 49 214 49 246 49 c 0,19,20
 275 49 275 49 303.5 61.5 c 128,-1,21
 332 74 332 74 355 91 c 1,22,-1
 385 40 l 1,23,24
 356 19 356 19 316 3.5 c 128,-1,25
 276 -12 276 -12 228 -12 c 0,26,27
 141 -12 141 -12 89 40.5 c 128,-1,28
 37 93 37 93 37 191 c 0,0,1
122 279 m 1,29,-1
 377 279 l 1,30,31
 379 291 379 291 380.5 303 c 128,-1,32
 382 315 382 315 382 329 c 0,33,34
 382 350 382 350 377 369.5 c 128,-1,35
 372 389 372 389 361 404 c 128,-1,36
 350 419 350 419 332 428 c 128,-1,37
 314 437 314 437 288 437 c 0,38,39
 261 437 261 437 235.5 426 c 128,-1,40
 210 415 210 415 188 394 c 128,-1,41
 166 373 166 373 148.5 344 c 128,-1,42
 131 315 131 315 122 279 c 1,29,-1
EndSplineSet
Validated: 33
Substitution2: "'sups' Superscript in Latin lookup 12 subtable" e.sups
Substitution2: "'aalt' Access All Alternates in Latin lookup 0 subtable" e.sups
EndChar

StartChar: f
Encoding: 102 102 33
Width: 282
GlyphClass: 2
Flags: W
AnchorPoint: "Anchor-3" 89 -22 basechar 0
AnchorPoint: "Anchor-0" 314 740 basechar 0
LayerCount: 2
Fore
SplineSet
65 424 m 1,0,-1
 76 481 l 1,1,-1
 141 486 l 1,2,-1
 157 567 l 2,3,4
 172 641 172 641 210.5 682.5 c 128,-1,5
 249 724 249 724 311 724 c 0,6,7
 337 724 337 724 358 717.5 c 128,-1,8
 379 711 379 711 397 700 c 1,9,-1
 370 645 l 1,10,11
 359 652 359 652 346 657 c 128,-1,12
 333 662 333 662 316 662 c 0,13,14
 283 662 283 662 262.5 637 c 128,-1,15
 242 612 242 612 234 569 c 2,16,-1
 217 486 l 1,17,-1
 315 486 l 1,18,-1
 303 424 l 1,19,-1
 204 424 l 1,20,-1
 119 0 l 1,21,-1
 43 0 l 1,22,-1
 128 424 l 1,23,-1
 65 424 l 1,0,-1
EndSplineSet
Validated: 1
Substitution2: "'sups' Superscript in Latin lookup 12 subtable" f.sups
Substitution2: "'aalt' Access All Alternates in Latin lookup 0 subtable" f.sups
EndChar

StartChar: g
Encoding: 103 103 34
Width: 531
GlyphClass: 2
Flags: W
AnchorPoint: "Anchor-3" 164 -244 basechar 0
AnchorPoint: "Anchor-0" 316 509 basechar 0
LayerCount: 2
Fore
SplineSet
168 -224 m 0,0,1
 119 -224 119 -224 76 -205 c 128,-1,2
 33 -186 33 -186 -2 -157 c 1,3,-1
 34 -104 l 1,4,5
 62 -128 62 -128 96 -145 c 128,-1,6
 130 -162 130 -162 171 -162 c 0,7,8
 234 -162 234 -162 271 -122.5 c 128,-1,9
 308 -83 308 -83 324 -17 c 2,10,-1
 349 87 l 1,11,12
 311 49 311 49 269 27 c 128,-1,13
 227 5 227 5 180 5 c 0,14,15
 118 5 118 5 78.5 48 c 128,-1,16
 39 91 39 91 39 176 c 0,17,18
 39 243 39 243 60.5 301.5 c 128,-1,19
 82 360 82 360 118 403.5 c 128,-1,20
 154 447 154 447 200.5 472.5 c 128,-1,21
 247 498 247 498 296 498 c 0,22,23
 334 498 334 498 365 478 c 128,-1,24
 396 458 396 458 413 425 c 1,25,-1
 416 425 l 1,26,-1
 435 486 l 1,27,-1
 498 486 l 1,28,-1
 396 -23 l 2,29,30
 376 -120 376 -120 318 -172 c 128,-1,31
 260 -224 260 -224 168 -224 c 0,0,1
205 69 m 0,32,33
 240 69 240 69 280 90.5 c 128,-1,34
 320 112 320 112 355 154 c 1,35,-1
 398 362 l 1,36,37
 375 400 375 400 351 417 c 128,-1,38
 327 434 327 434 299 434 c 0,39,40
 264 434 264 434 231 413.5 c 128,-1,41
 198 393 198 393 173 358.5 c 128,-1,42
 148 324 148 324 133 279.5 c 128,-1,43
 118 235 118 235 118 187 c 0,44,45
 118 127 118 127 141 98 c 128,-1,46
 164 69 164 69 205 69 c 0,32,33
EndSplineSet
Validated: 1
Substitution2: "'ss03' Style Set 3 in Latin lookup 22 subtable" g.a
Substitution2: "'sups' Superscript in Latin lookup 12 subtable" g.sups
AlternateSubs2: "'aalt' Access All Alternates in Latin lookup 1 subtable" g.sups g.a
EndChar

StartChar: h
Encoding: 104 104 35
Width: 519
GlyphClass: 2
Flags: W
AnchorPoint: "Anchor-3" 227 -22 basechar 0
AnchorPoint: "Anchor-0" 218 730 basechar 0
LayerCount: 2
Fore
SplineSet
31 0 m 1,0,-1
 173 712 l 1,1,-1
 250 712 l 1,2,-1
 202 477 l 1,3,-1
 186 416 l 1,4,-1
 190 416 l 1,5,6
 232 451 232 451 272 474.5 c 128,-1,7
 312 498 312 498 357 498 c 0,8,9
 419 498 419 498 445.5 466 c 128,-1,10
 472 434 472 434 472 377 c 0,11,12
 472 360 472 360 470.5 345 c 128,-1,13
 469 330 469 330 464 310 c 2,14,-1
 402 0 l 1,15,-1
 326 0 l 1,16,-1
 386 300 l 2,17,18
 390 320 390 320 392 332 c 128,-1,19
 394 344 394 344 394 357 c 0,20,21
 394 394 394 394 377 413 c 128,-1,22
 360 432 360 432 322 432 c 0,23,24
 293 432 293 432 257.5 411 c 128,-1,25
 222 390 222 390 176 344 c 1,26,-1
 107 0 l 1,27,-1
 31 0 l 1,0,-1
EndSplineSet
Validated: 1
Substitution2: "'sups' Superscript in Latin lookup 12 subtable" h.sups
Substitution2: "'aalt' Access All Alternates in Latin lookup 0 subtable" h.sups
EndChar

StartChar: i
Encoding: 105 105 36
Width: 237
GlyphClass: 2
Flags: W
AnchorPoint: "Anchor-5" 60 0 basechar 0
AnchorPoint: "Anchor-3" 75 -22 basechar 0
AnchorPoint: "Anchor-0" 213 698 basechar 0
LayerCount: 2
Fore
SplineSet
31 0 m 1,0,-1
 128 486 l 1,1,-1
 205 486 l 1,2,-1
 107 0 l 1,3,-1
 31 0 l 1,0,-1
193 587 m 0,4,5
 173 587 173 587 158.5 598.5 c 128,-1,6
 144 610 144 610 144 632 c 0,7,8
 144 657 144 657 161.5 673.5 c 128,-1,9
 179 690 179 690 202 690 c 0,10,11
 222 690 222 690 236.5 678 c 128,-1,12
 251 666 251 666 251 644 c 0,13,14
 251 619 251 619 233.5 603 c 128,-1,15
 216 587 216 587 193 587 c 0,4,5
EndSplineSet
Validated: 1
Substitution2: "'sups' Superscript in Latin lookup 12 subtable" i.sups
Substitution2: "'aalt' Access All Alternates in Latin lookup 0 subtable" i.sups
EndChar

StartChar: j
Encoding: 106 106 37
Width: 238
GlyphClass: 2
Flags: W
AnchorPoint: "Anchor-3" -31 -233 basechar 0
AnchorPoint: "Anchor-0" 213 698 basechar 0
LayerCount: 2
Fore
SplineSet
-49 -217 m 0,0,1
 -72 -217 -72 -217 -89.5 -212 c 128,-1,2
 -107 -207 -107 -207 -124 -198 c 1,3,-1
 -99 -141 l 1,4,5
 -89 -147 -89 -147 -79 -150.5 c 128,-1,6
 -69 -154 -69 -154 -53 -154 c 0,7,8
 -25 -154 -25 -154 -8.5 -130 c 128,-1,9
 8 -106 8 -106 18 -62 c 2,10,-1
 129 486 l 1,11,-1
 206 486 l 1,12,-1
 95 -61 l 2,13,14
 81 -131 81 -131 47.5 -174 c 128,-1,15
 14 -217 14 -217 -49 -217 c 0,0,1
193 587 m 0,16,17
 174 587 174 587 159.5 598.5 c 128,-1,18
 145 610 145 610 145 632 c 0,19,20
 145 657 145 657 162 673.5 c 128,-1,21
 179 690 179 690 203 690 c 0,22,23
 222 690 222 690 236.5 678 c 128,-1,24
 251 666 251 666 251 644 c 0,25,26
 251 619 251 619 233.5 603 c 128,-1,27
 216 587 216 587 193 587 c 0,16,17
EndSplineSet
Validated: 1
Substitution2: "'sups' Superscript in Latin lookup 12 subtable" j.sups
Substitution2: "'aalt' Access All Alternates in Latin lookup 0 subtable" j.sups
EndChar

StartChar: k
Encoding: 107 107 38
Width: 476
GlyphClass: 2
Flags: W
AnchorPoint: "Anchor-3" 222 -22 basechar 0
AnchorPoint: "Anchor-0" 220 730 basechar 0
LayerCount: 2
Fore
SplineSet
31 0 m 1,0,-1
 173 712 l 1,1,-1
 250 712 l 1,2,-1
 154 229 l 1,3,-1
 156 229 l 1,4,-1
 405 486 l 1,5,-1
 493 486 l 1,6,-1
 299 283 l 1,7,-1
 416 0 l 1,8,-1
 338 0 l 1,9,-1
 245 237 l 1,10,-1
 133 123 l 1,11,-1
 107 0 l 1,12,-1
 31 0 l 1,0,-1
EndSplineSet
Validated: 1
Substitution2: "'sups' Superscript in Latin lookup 12 subtable" k.sups
Substitution2: "'aalt' Access All Alternates in Latin lookup 0 subtable" k.sups
EndChar

StartChar: l
Encoding: 108 108 39
Width: 248
GlyphClass: 2
Flags: W
AnchorPoint: "Anchor-3" 71 -22 basechar 0
AnchorPoint: "Anchor-0" 219 730 basechar 0
LayerCount: 2
Fore
SplineSet
109 -12 m 0,0,1
 77 -12 77 -12 60.5 4.5 c 128,-1,2
 44 21 44 21 44 51 c 0,3,4
 44 67 44 67 50 93 c 2,5,-1
 173 712 l 1,6,-1
 250 712 l 1,7,-1
 125 89 l 2,8,9
 123 81 123 81 123 77 c 128,-1,10
 123 73 123 73 123 70 c 0,11,12
 123 52 123 52 140 52 c 0,13,14
 143 52 143 52 146 52.5 c 128,-1,15
 149 53 149 53 156 55 c 1,16,-1
 157 -4 l 1,17,18
 147 -8 147 -8 136 -10 c 128,-1,19
 125 -12 125 -12 109 -12 c 0,0,1
EndSplineSet
Validated: 1
Substitution2: "'ss01' Style Set 1 in Latin lookup 20 subtable" l.a
Substitution2: "'sups' Superscript in Latin lookup 12 subtable" l.sups
AlternateSubs2: "'aalt' Access All Alternates in Latin lookup 1 subtable" l.sups l.a
EndChar

StartChar: m
Encoding: 109 109 40
Width: 799
GlyphClass: 2
Flags: W
AnchorPoint: "Anchor-3" 362 -22 basechar 0
AnchorPoint: "Anchor-0" 476 509 basechar 0
LayerCount: 2
Fore
SplineSet
31 0 m 1,0,-1
 127 486 l 1,1,-1
 190 486 l 1,2,-1
 183 413 l 1,3,-1
 187 413 l 1,4,5
 225 449 225 449 267 473.5 c 128,-1,6
 309 498 309 498 347 498 c 0,7,8
 376 498 376 498 396 490.5 c 128,-1,9
 416 483 416 483 429 470.5 c 128,-1,10
 442 458 442 458 449 440.5 c 128,-1,11
 456 423 456 423 459 403 c 1,12,13
 506 448 506 448 549.5 473 c 128,-1,14
 593 498 593 498 631 498 c 0,15,16
 692 498 692 498 719 466 c 128,-1,17
 746 434 746 434 746 377 c 0,18,19
 746 360 746 360 744 345 c 128,-1,20
 742 330 742 330 738 310 c 2,21,-1
 676 0 l 1,22,-1
 599 0 l 1,23,-1
 660 300 l 2,24,25
 664 320 664 320 666 332 c 128,-1,26
 668 344 668 344 668 357 c 0,27,28
 668 432 668 432 597 432 c 0,29,30
 576 432 576 432 540 411 c 128,-1,31
 504 390 504 390 460 344 c 1,32,-1
 391 0 l 1,33,-1
 315 0 l 1,34,-1
 375 300 l 2,35,36
 379 320 379 320 381 332 c 128,-1,37
 383 344 383 344 383 357 c 0,38,39
 383 432 383 432 313 432 c 0,40,41
 291 432 291 432 255 411 c 128,-1,42
 219 390 219 390 176 344 c 1,43,-1
 107 0 l 1,44,-1
 31 0 l 1,0,-1
EndSplineSet
Validated: 1
Substitution2: "'sups' Superscript in Latin lookup 12 subtable" m.sups
Substitution2: "'aalt' Access All Alternates in Latin lookup 0 subtable" m.sups
EndChar

StartChar: n
Encoding: 110 110 41
Width: 525
GlyphClass: 2
Flags: W
AnchorPoint: "Anchor-3" 227 -22 basechar 0
AnchorPoint: "Anchor-0" 337 509 basechar 0
LayerCount: 2
Fore
SplineSet
31 0 m 1,0,-1
 127 486 l 1,1,-1
 190 486 l 1,2,-1
 183 413 l 1,3,-1
 187 413 l 1,4,5
 229 449 229 449 270 473.5 c 128,-1,6
 311 498 311 498 357 498 c 0,7,8
 419 498 419 498 445.5 466 c 128,-1,9
 472 434 472 434 472 377 c 0,10,11
 472 360 472 360 470.5 345 c 128,-1,12
 469 330 469 330 464 310 c 2,13,-1
 402 0 l 1,14,-1
 326 0 l 1,15,-1
 386 300 l 2,16,17
 390 320 390 320 392 332 c 128,-1,18
 394 344 394 344 394 357 c 0,19,20
 394 394 394 394 377 413 c 128,-1,21
 360 432 360 432 322 432 c 0,22,23
 293 432 293 432 257.5 411 c 128,-1,24
 222 390 222 390 176 344 c 1,25,-1
 107 0 l 1,26,-1
 31 0 l 1,0,-1
EndSplineSet
Validated: 1
Substitution2: "'sups' Superscript in Latin lookup 12 subtable" n.sups
Substitution2: "'aalt' Access All Alternates in Latin lookup 0 subtable" n.sups
EndChar

StartChar: o
Encoding: 111 111 42
Width: 515
GlyphClass: 2
Flags: W
AnchorPoint: "Anchor-5" 215 0 basechar 0
AnchorPoint: "Anchor-4" 401 486 basechar 0
AnchorPoint: "Anchor-3" 193 -22 basechar 0
AnchorPoint: "Anchor-0" 324 509 basechar 0
LayerCount: 2
Fore
SplineSet
212 -12 m 0,0,1
 133 -12 133 -12 86 40 c 128,-1,2
 39 92 39 92 39 183 c 0,3,4
 39 252 39 252 61 310 c 128,-1,5
 83 368 83 368 120 409.5 c 128,-1,6
 157 451 157 451 204 474.5 c 128,-1,7
 251 498 251 498 301 498 c 0,8,9
 380 498 380 498 427.5 446 c 128,-1,10
 475 394 475 394 475 303 c 0,11,12
 475 234 475 234 452.5 176 c 128,-1,13
 430 118 430 118 393.5 76.5 c 128,-1,14
 357 35 357 35 309.5 11.5 c 128,-1,15
 262 -12 262 -12 212 -12 c 0,0,1
220 52 m 0,16,17
 254 52 254 52 285.5 71.5 c 128,-1,18
 317 91 317 91 342 124 c 128,-1,19
 367 157 367 157 382 202 c 128,-1,20
 397 247 397 247 397 298 c 0,21,22
 397 364 397 364 370.5 399.5 c 128,-1,23
 344 435 344 435 293 435 c 0,24,25
 260 435 260 435 228 415.5 c 128,-1,26
 196 396 196 396 171 362.5 c 128,-1,27
 146 329 146 329 131 284 c 128,-1,28
 116 239 116 239 116 188 c 0,29,30
 116 122 116 122 142.5 87 c 128,-1,31
 169 52 169 52 220 52 c 0,16,17
EndSplineSet
Validated: 1
Substitution2: "'sups' Superscript in Latin lookup 12 subtable" o.sups
Substitution2: "'aalt' Access All Alternates in Latin lookup 0 subtable" o.sups
EndChar

StartChar: p
Encoding: 112 112 43
Width: 535
GlyphClass: 2
Flags: W
AnchorPoint: "Anchor-3" 29 -218 basechar 0
AnchorPoint: "Anchor-0" 343 509 basechar 0
LayerCount: 2
Fore
SplineSet
115 58 m 1,0,-1
 97 -46 l 1,1,-1
 66 -205 l 1,2,-1
 -10 -205 l 1,3,-1
 128 486 l 1,4,-1
 191 486 l 1,5,-1
 185 422 l 1,6,-1
 188 422 l 1,7,8
 225 453 225 453 267.5 475.5 c 128,-1,9
 310 498 310 498 356 498 c 0,10,11
 420 498 420 498 458 452.5 c 128,-1,12
 496 407 496 407 496 322 c 0,13,14
 496 252 496 252 474 191 c 128,-1,15
 452 130 452 130 415.5 85 c 128,-1,16
 379 40 379 40 331.5 14 c 128,-1,17
 284 -12 284 -12 234 -12 c 0,18,19
 196 -12 196 -12 166 7.5 c 128,-1,20
 136 27 136 27 117 58 c 1,21,-1
 115 58 l 1,0,-1
328 434 m 0,22,23
 294 434 294 434 253.5 413 c 128,-1,24
 213 392 213 392 178 354 c 1,25,-1
 132 122 l 1,26,27
 152 84 152 84 177 68 c 128,-1,28
 202 52 202 52 231 52 c 0,29,30
 267 52 267 52 301 73.5 c 128,-1,31
 335 95 335 95 360.5 131 c 128,-1,32
 386 167 386 167 401.5 213.5 c 128,-1,33
 417 260 417 260 417 311 c 0,34,35
 417 373 417 373 393.5 403.5 c 128,-1,36
 370 434 370 434 328 434 c 0,22,23
EndSplineSet
Validated: 1
Substitution2: "'sups' Superscript in Latin lookup 12 subtable" p.sups
Substitution2: "'aalt' Access All Alternates in Latin lookup 0 subtable" p.sups
EndChar

StartChar: q
Encoding: 113 113 44
Width: 537
GlyphClass: 2
Flags: W
AnchorPoint: "Anchor-3" 336 -218 basechar 0
AnchorPoint: "Anchor-0" 330 509 basechar 0
LayerCount: 2
Fore
SplineSet
322 -46 m 1,0,-1
 352 73 l 1,1,-1
 350 73 l 1,2,3
 314 36 314 36 269.5 12 c 128,-1,4
 225 -12 225 -12 179 -12 c 0,5,6
 115 -12 115 -12 77 33 c 128,-1,7
 39 78 39 78 39 164 c 0,8,9
 39 234 39 234 61 295 c 128,-1,10
 83 356 83 356 120 401 c 128,-1,11
 157 446 157 446 204 472 c 128,-1,12
 251 498 251 498 302 498 c 0,13,14
 341 498 341 498 371.5 478 c 128,-1,15
 402 458 402 458 419 425 c 1,16,-1
 423 425 l 1,17,-1
 442 486 l 1,18,-1
 504 486 l 1,19,-1
 366 -205 l 1,20,-1
 289 -205 l 1,21,-1
 322 -46 l 1,0,-1
207 52 m 0,22,23
 241 52 241 52 282 74.5 c 128,-1,24
 323 97 323 97 360 145 c 1,25,-1
 404 362 l 1,26,27
 383 400 383 400 358 417 c 128,-1,28
 333 434 333 434 305 434 c 0,29,30
 269 434 269 434 235 412.5 c 128,-1,31
 201 391 201 391 175 355 c 128,-1,32
 149 319 149 319 133.5 272.5 c 128,-1,33
 118 226 118 226 118 176 c 0,34,35
 118 113 118 113 142 82.5 c 128,-1,36
 166 52 166 52 207 52 c 0,22,23
EndSplineSet
Validated: 1
Substitution2: "'sups' Superscript in Latin lookup 12 subtable" q.sups
Substitution2: "'aalt' Access All Alternates in Latin lookup 0 subtable" q.sups
EndChar

StartChar: r
Encoding: 114 114 45
Width: 342
GlyphClass: 2
Flags: W
AnchorPoint: "Anchor-3" 74 -22 basechar 0
AnchorPoint: "Anchor-0" 256 509 basechar 0
LayerCount: 2
Fore
SplineSet
31 0 m 1,0,-1
 127 486 l 1,1,-1
 190 486 l 1,2,-1
 179 393 l 1,3,-1
 183 393 l 1,4,5
 212 438 212 438 250.5 468 c 128,-1,6
 289 498 289 498 334 498 c 0,7,8
 359 498 359 498 380 489 c 1,9,-1
 353 421 l 1,10,11
 337 429 337 429 311 429 c 0,12,13
 275 429 275 429 237 398 c 128,-1,14
 199 367 199 367 168 307 c 1,15,-1
 107 0 l 1,16,-1
 31 0 l 1,0,-1
EndSplineSet
Validated: 1
Substitution2: "'sups' Superscript in Latin lookup 12 subtable" r.sups
Substitution2: "'aalt' Access All Alternates in Latin lookup 0 subtable" r.sups
EndChar

StartChar: s
Encoding: 115 115 46
Width: 402
GlyphClass: 2
Flags: W
AnchorPoint: "Anchor-3" 173 -22 basechar 0
AnchorPoint: "Anchor-2" 167 0 basechar 0
AnchorPoint: "Anchor-0" 261 509 basechar 0
LayerCount: 2
Fore
SplineSet
163 -12 m 0,0,1
 139 -12 139 -12 114.5 -5 c 128,-1,2
 90 2 90 2 67.5 14.5 c 128,-1,3
 45 27 45 27 26.5 44 c 128,-1,4
 8 61 8 61 -4 80 c 1,5,-1
 44 118 l 1,6,7
 67 86 67 86 99 66.5 c 128,-1,8
 131 47 131 47 169 47 c 0,9,10
 190 47 190 47 208.5 53.5 c 128,-1,11
 227 60 227 60 241.5 71 c 128,-1,12
 256 82 256 82 264 96.5 c 128,-1,13
 272 111 272 111 272 128 c 0,14,15
 272 141 272 141 267.5 152 c 128,-1,16
 263 163 263 163 253 173.5 c 128,-1,17
 243 184 243 184 225.5 195 c 128,-1,18
 208 206 208 206 183 220 c 0,19,20
 126 251 126 251 99 281 c 128,-1,21
 72 311 72 311 72 353 c 0,22,23
 72 385 72 385 85.5 412 c 128,-1,24
 99 439 99 439 121.5 458 c 128,-1,25
 144 477 144 477 174.5 487.5 c 128,-1,26
 205 498 205 498 239 498 c 0,27,28
 284 498 284 498 319.5 480 c 128,-1,29
 355 462 355 462 382 433 c 1,30,-1
 338 390 l 1,31,32
 318 410 318 410 294 424 c 128,-1,33
 270 438 270 438 237 438 c 0,34,35
 198 438 198 438 171.5 415.5 c 128,-1,36
 145 393 145 393 145 362 c 0,37,38
 145 347 145 347 152 335 c 128,-1,39
 159 323 159 323 171 313 c 128,-1,40
 183 303 183 303 198.5 294 c 128,-1,41
 214 285 214 285 231 276 c 0,42,43
 264 258 264 258 285.5 241.5 c 128,-1,44
 307 225 307 225 320.5 208.5 c 128,-1,45
 334 192 334 192 339.5 175 c 128,-1,46
 345 158 345 158 345 138 c 0,47,48
 345 104 345 104 331.5 76 c 128,-1,49
 318 48 318 48 293.5 28.5 c 128,-1,50
 269 9 269 9 235.5 -1.5 c 128,-1,51
 202 -12 202 -12 163 -12 c 0,0,1
EndSplineSet
Validated: 1
Substitution2: "'sups' Superscript in Latin lookup 12 subtable" s.sups
Substitution2: "'aalt' Access All Alternates in Latin lookup 0 subtable" s.sups
EndChar

StartChar: t
Encoding: 116 116 47
Width: 325
GlyphClass: 2
Flags: W
AnchorPoint: "Anchor-3" 161 -22 basechar 0
AnchorPoint: "Anchor-2" 168 0 basechar 0
AnchorPoint: "Anchor-0" 218 645 basechar 0
LayerCount: 2
Fore
SplineSet
185 -12 m 0,0,1
 153 -12 153 -12 131 -3.5 c 128,-1,2
 109 5 109 5 95 19.5 c 128,-1,3
 81 34 81 34 75 53.5 c 128,-1,4
 69 73 69 73 69 96 c 0,5,6
 69 111 69 111 70.5 123.5 c 128,-1,7
 72 136 72 136 74 150 c 2,8,-1
 131 424 l 1,9,-1
 60 424 l 1,10,-1
 71 481 l 1,11,-1
 147 486 l 1,12,-1
 183 620 l 1,13,-1
 248 620 l 1,14,-1
 221 486 l 1,15,-1
 344 486 l 1,16,-1
 332 424 l 1,17,-1
 207 424 l 1,18,-1
 150 146 l 2,19,20
 147 128 147 128 147 110 c 0,21,22
 147 80 147 80 160.5 65 c 128,-1,23
 174 50 174 50 209 50 c 0,24,25
 223 50 223 50 236 55 c 128,-1,26
 249 60 249 60 260 65 c 1,27,-1
 277 10 l 1,28,29
 260 2 260 2 237 -5 c 128,-1,30
 214 -12 214 -12 185 -12 c 0,0,1
EndSplineSet
Validated: 1
Substitution2: "'sups' Superscript in Latin lookup 12 subtable" t.sups
Substitution2: "'aalt' Access All Alternates in Latin lookup 0 subtable" t.sups
EndChar

StartChar: u
Encoding: 117 117 48
Width: 528
GlyphClass: 2
Flags: W
AnchorPoint: "Anchor-5" 334 0 basechar 0
AnchorPoint: "Anchor-4" 453 496 basechar 0
AnchorPoint: "Anchor-3" 244 -25 basechar 0
AnchorPoint: "Anchor-0" 317 509 basechar 0
LayerCount: 2
Fore
SplineSet
495 486 m 1,0,-1
 398 0 l 1,1,-1
 335 0 l 1,2,-1
 343 74 l 1,3,-1
 339 74 l 1,4,5
 299 39 299 39 257.5 13.5 c 128,-1,6
 216 -12 216 -12 171 -12 c 0,7,8
 109 -12 109 -12 82.5 20.5 c 128,-1,9
 56 53 56 53 56 109 c 0,10,11
 56 126 56 126 57.5 141 c 128,-1,12
 59 156 59 156 64 176 c 2,13,-1
 126 486 l 1,14,-1
 203 486 l 1,15,-1
 142 186 l 2,16,17
 138 166 138 166 136 154 c 128,-1,18
 134 142 134 142 134 129 c 0,19,20
 134 92 134 92 151 73 c 128,-1,21
 168 54 168 54 206 54 c 0,22,23
 235 54 235 54 270 75 c 128,-1,24
 305 96 305 96 350 142 c 1,25,-1
 419 486 l 1,26,-1
 495 486 l 1,0,-1
EndSplineSet
Validated: 1
Substitution2: "'sups' Superscript in Latin lookup 12 subtable" u.sups
Substitution2: "'aalt' Access All Alternates in Latin lookup 0 subtable" u.sups
EndChar

StartChar: v
Encoding: 118 118 49
Width: 448
GlyphClass: 2
Flags: W
AnchorPoint: "Anchor-3" 187 -22 basechar 0
AnchorPoint: "Anchor-0" 288 509 basechar 0
LayerCount: 2
Fore
SplineSet
130 0 m 1,0,-1
 59 486 l 1,1,-1
 135 486 l 1,2,-1
 171 205 l 2,3,4
 175 170 175 170 178 132.5 c 128,-1,5
 181 95 181 95 185 60 c 1,6,-1
 189 60 l 1,7,8
 206 96 206 96 224 132.5 c 128,-1,9
 242 169 242 169 261 205 c 2,10,-1
 404 486 l 1,11,-1
 481 486 l 1,12,-1
 222 0 l 1,13,-1
 130 0 l 1,0,-1
EndSplineSet
Validated: 1
Substitution2: "'sups' Superscript in Latin lookup 12 subtable" v.sups
Substitution2: "'aalt' Access All Alternates in Latin lookup 0 subtable" v.sups
EndChar

StartChar: w
Encoding: 119 119 50
Width: 707
GlyphClass: 2
Flags: W
AnchorPoint: "Anchor-3" 317 -22 basechar 0
AnchorPoint: "Anchor-0" 410 509 basechar 0
LayerCount: 2
Fore
SplineSet
105 0 m 1,0,-1
 70 486 l 1,1,-1
 146 486 l 1,2,-1
 162 200 l 2,3,4
 163 165 163 165 163.5 131.5 c 128,-1,5
 164 98 164 98 165 64 c 1,6,-1
 169 64 l 1,7,8
 184 98 184 98 197.5 131.5 c 128,-1,9
 211 165 211 165 227 200 c 2,10,-1
 355 486 l 1,11,-1
 430 486 l 1,12,-1
 447 200 l 2,13,14
 449 165 449 165 449.5 131.5 c 128,-1,15
 450 98 450 98 452 64 c 1,16,-1
 456 64 l 1,17,18
 470 98 470 98 483 131.5 c 128,-1,19
 496 165 496 165 512 200 c 2,20,-1
 639 486 l 1,21,-1
 711 486 l 1,22,-1
 490 0 l 1,23,-1
 395 0 l 1,24,-1
 381 266 l 2,25,26
 380 301 380 301 379.5 337 c 128,-1,27
 379 373 379 373 378 409 c 1,28,-1
 374 409 l 1,29,30
 359 373 359 373 344.5 337 c 128,-1,31
 330 301 330 301 315 266 c 2,32,-1
 197 0 l 1,33,-1
 105 0 l 1,0,-1
EndSplineSet
Validated: 1
Substitution2: "'sups' Superscript in Latin lookup 12 subtable" w.sups
Substitution2: "'aalt' Access All Alternates in Latin lookup 0 subtable" w.sups
EndChar

StartChar: x
Encoding: 120 120 51
Width: 429
GlyphClass: 2
Flags: W
AnchorPoint: "Anchor-3" 176 -22 basechar 0
AnchorPoint: "Anchor-0" 278 511 basechar 0
LayerCount: 2
Fore
SplineSet
-44 0 m 1,0,-1
 174 258 l 1,1,-1
 83 486 l 1,2,-1
 161 486 l 1,3,-1
 203 378 l 2,4,5
 211 356 211 356 217.5 336.5 c 128,-1,6
 224 317 224 317 232 296 c 1,7,-1
 236 296 l 1,8,9
 251 316 251 316 267 336.5 c 128,-1,10
 283 357 283 357 298 378 c 2,11,-1
 383 486 l 1,12,-1
 466 486 l 1,13,-1
 266 241 l 1,14,-1
 365 0 l 1,15,-1
 286 0 l 1,16,-1
 242 114 l 2,17,18
 234 136 234 136 225.5 158.5 c 128,-1,19
 217 181 217 181 207 204 c 1,20,-1
 203 204 l 1,21,22
 187 181 187 181 170 159.5 c 128,-1,23
 153 138 153 138 134 115 c 2,24,-1
 40 0 l 1,25,-1
 -44 0 l 1,0,-1
EndSplineSet
Validated: 1
Substitution2: "'sups' Superscript in Latin lookup 12 subtable" x.sups
Substitution2: "'aalt' Access All Alternates in Latin lookup 0 subtable" x.sups
EndChar

StartChar: y
Encoding: 121 121 52
Width: 448
GlyphClass: 2
Flags: W
AnchorPoint: "Anchor-3" 108 -242 basechar 0
AnchorPoint: "Anchor-0" 270 509 basechar 0
LayerCount: 2
Fore
SplineSet
-6 -209 m 0,0,1
 -17 -209 -17 -209 -32.5 -206 c 128,-1,2
 -48 -203 -48 -203 -62 -195 c 1,3,-1
 -37 -138 l 1,4,5
 -19 -147 -19 -147 -1 -147 c 0,6,7
 36 -147 36 -147 68.5 -117 c 128,-1,8
 101 -87 101 -87 126 -36 c 2,9,-1
 144 -1 l 1,10,-1
 61 486 l 1,11,-1
 137 486 l 1,12,-1
 175 213 l 2,13,14
 180 180 180 180 184 141.5 c 128,-1,15
 188 103 188 103 191 68 c 1,16,-1
 195 68 l 1,17,18
 212 103 212 103 230.5 140.5 c 128,-1,19
 249 178 249 178 267 213 c 2,20,-1
 407 486 l 1,21,-1
 483 486 l 1,22,-1
 197 -41 l 2,23,24
 178 -77 178 -77 157 -107.5 c 128,-1,25
 136 -138 136 -138 111.5 -160.5 c 128,-1,26
 87 -183 87 -183 58 -196 c 128,-1,27
 29 -209 29 -209 -6 -209 c 0,0,1
EndSplineSet
Validated: 1
Substitution2: "'sups' Superscript in Latin lookup 12 subtable" y.sups
Substitution2: "'aalt' Access All Alternates in Latin lookup 0 subtable" y.sups
EndChar

StartChar: z
Encoding: 122 122 53
Width: 410
GlyphClass: 2
Flags: W
AnchorPoint: "Anchor-3" 174 -22 basechar 0
AnchorPoint: "Anchor-0" 275 509 basechar 0
LayerCount: 2
Fore
SplineSet
-10 0 m 1,0,-1
 -2 44 l 1,1,-1
 321 424 l 1,2,-1
 100 424 l 1,3,-1
 113 486 l 1,4,-1
 430 486 l 1,5,-1
 422 441 l 1,6,-1
 99 62 l 1,7,-1
 353 62 l 1,8,-1
 341 0 l 1,9,-1
 -10 0 l 1,0,-1
EndSplineSet
Validated: 1
Substitution2: "'sups' Superscript in Latin lookup 12 subtable" z.sups
Substitution2: "'aalt' Access All Alternates in Latin lookup 0 subtable" z.sups
EndChar

StartChar: Aogonek
Encoding: 260 260 75
Width: 510
GlyphClass: 2
Flags: W
AnchorPoint: "Anchor-1" 357 682 basechar 0
LayerCount: 2
Fore
SplineSet
384 -211 m 0,0,1
 350 -211 350 -211 328 -193.5 c 128,-1,2
 306 -176 306 -176 306 -142 c 0,3,4
 306 -121 306 -121 315 -100 c 128,-1,5
 324 -79 324 -79 337.5 -60.5 c 128,-1,6
 351 -42 351 -42 368 -26.5 c 128,-1,7
 385 -11 385 -11 401 0 c 1,8,-1
 388 0 l 1,9,-1
 370 205 l 1,10,-1
 138 205 l 1,11,-1
 33 0 l 1,12,-1
 -53 0 l 1,13,-1
 303 656 l 1,14,-1
 393 656 l 1,15,-1
 469 0 l 1,16,17
 421 -27 421 -27 396 -58.5 c 128,-1,18
 371 -90 371 -90 371 -119 c 0,19,20
 371 -137 371 -137 381.5 -147 c 128,-1,21
 392 -157 392 -157 407 -157 c 0,22,23
 425 -157 425 -157 443 -146 c 1,24,-1
 460 -188 l 1,25,26
 443 -199 443 -199 422 -205 c 128,-1,27
 401 -211 401 -211 384 -211 c 0,0,1
227 377 m 2,28,-1
 169 265 l 1,29,-1
 364 265 l 1,30,-1
 354 377 l 2,31,32
 349 429 349 429 344.5 481.5 c 128,-1,33
 340 534 340 534 336 591 c 1,34,-1
 332 591 l 1,35,36
 306 534 306 534 280.5 482.5 c 128,-1,37
 255 431 255 431 227 377 c 2,28,-1
EndSplineSet
Validated: 1
Ligature2: "'ccmp' Glyph Composition/Decomposition in Latin lookup 6 subtable" A uni0328
EndChar

StartChar: AE
Encoding: 198 198 76
Width: 803
GlyphClass: 2
Flags: W
AnchorPoint: "Anchor-1" 555 694 basechar 0
LayerCount: 2
Fore
SplineSet
313 380 m 2,0,-1
 229 256 l 1,1,-1
 397 256 l 1,2,-1
 465 597 l 1,3,-1
 462 597 l 1,4,5
 424 541 424 541 387.5 488 c 128,-1,6
 351 435 351 435 313 380 c 2,0,-1
-33 0 m 1,7,-1
 426 656 l 1,8,-1
 828 656 l 1,9,-1
 814 591 l 1,10,-1
 541 591 l 1,11,-1
 499 378 l 1,12,-1
 728 378 l 1,13,-1
 715 312 l 1,14,-1
 487 312 l 1,15,-1
 436 66 l 1,16,-1
 718 66 l 1,17,-1
 705 0 l 1,18,-1
 346 0 l 1,19,-1
 385 194 l 1,20,-1
 187 194 l 1,21,-1
 56 0 l 1,22,-1
 -33 0 l 1,7,-1
EndSplineSet
Validated: 1
EndChar

StartChar: Eogonek
Encoding: 280 280 102
Width: 503
GlyphClass: 2
Flags: W
AnchorPoint: "Anchor-1" 369 682 basechar 0
LayerCount: 2
Fore
SplineSet
35 0 m 1,0,-1
 166 656 l 1,1,-1
 528 656 l 1,2,-1
 515 591 l 1,3,-1
 230 591 l 1,4,-1
 188 378 l 1,5,-1
 429 378 l 1,6,-1
 415 312 l 1,7,-1
 176 312 l 1,8,-1
 125 66 l 1,9,-1
 419 66 l 1,10,-1
 405 0 l 1,11,12
 382 -3 382 -3 361.5 -16 c 128,-1,13
 341 -29 341 -29 326 -46.5 c 128,-1,14
 311 -64 311 -64 302 -83.5 c 128,-1,15
 293 -103 293 -103 293 -119 c 0,16,17
 293 -137 293 -137 303.5 -147 c 128,-1,18
 314 -157 314 -157 330 -157 c 0,19,20
 347 -157 347 -157 365 -146 c 1,21,-1
 382 -188 l 1,22,23
 365 -199 365 -199 344.5 -205 c 128,-1,24
 324 -211 324 -211 306 -211 c 0,25,26
 272 -211 272 -211 250 -193.5 c 128,-1,27
 228 -176 228 -176 228 -142 c 0,28,29
 228 -120 228 -120 237.5 -99 c 128,-1,30
 247 -78 247 -78 261 -59 c 128,-1,31
 275 -40 275 -40 291.5 -25 c 128,-1,32
 308 -10 308 -10 322 0 c 1,33,-1
 35 0 l 1,0,-1
EndSplineSet
Validated: 1
Ligature2: "'ccmp' Glyph Composition/Decomposition in Latin lookup 6 subtable" E uni0328
EndChar

StartChar: Hbar
Encoding: 294 294 113
Width: 643
Flags: W
LayerCount: 2
Fore
SplineSet
76 493 m 1,0,-1
 85 534 l 1,1,-1
 151 537 l 1,2,-1
 175 656 l 1,3,-1
 253 656 l 1,4,-1
 229 537 l 1,5,-1
 525 537 l 1,6,-1
 549 656 l 1,7,-1
 626 656 l 1,8,-1
 602 537 l 1,9,-1
 686 537 l 1,10,-1
 677 493 l 1,11,-1
 593 493 l 1,12,-1
 495 0 l 1,13,-1
 417 0 l 1,14,-1
 480 312 l 1,15,-1
 184 312 l 1,16,-1
 122 0 l 1,17,-1
 44 0 l 1,18,-1
 142 493 l 1,19,-1
 76 493 l 1,0,-1
197 379 m 1,20,-1
 493 379 l 1,21,-1
 516 493 l 1,22,-1
 220 493 l 1,23,-1
 197 379 l 1,20,-1
EndSplineSet
Validated: 1
EndChar

StartChar: Iogonek
Encoding: 302 302 124
Width: 324
GlyphClass: 2
Flags: W
AnchorPoint: "Anchor-1" 251 682 basechar 0
LayerCount: 2
Fore
SplineSet
75 -211 m 0,0,1
 42 -211 42 -211 20.5 -193.5 c 128,-1,2
 -1 -176 -1 -176 -1 -142 c 0,3,4
 -1 -120 -1 -120 8 -99 c 128,-1,5
 17 -78 17 -78 30.5 -59 c 128,-1,6
 44 -40 44 -40 59.5 -25 c 128,-1,7
 75 -10 75 -10 88 0 c 1,8,-1
 -7 0 l 1,9,-1
 7 66 l 1,10,-1
 85 66 l 1,11,-1
 191 591 l 1,12,-1
 111 591 l 1,13,-1
 125 656 l 1,14,-1
 363 656 l 1,15,-1
 349 591 l 1,16,-1
 268 591 l 1,17,-1
 163 66 l 1,18,-1
 244 66 l 1,19,-1
 230 0 l 1,20,-1
 150 0 l 1,21,22
 112 -23 112 -23 87.5 -56.5 c 128,-1,23
 63 -90 63 -90 63 -119 c 0,24,25
 63 -137 63 -137 73.5 -147 c 128,-1,26
 84 -157 84 -157 100 -157 c 0,27,28
 118 -157 118 -157 135 -146 c 1,29,-1
 153 -186 l 1,30,31
 136 -197 136 -197 114 -204 c 128,-1,32
 92 -211 92 -211 75 -211 c 0,0,1
EndSplineSet
Substitution2: "'ss04' Style Set 4 in Latin lookup 23 subtable" Iogonek.a
Ligature2: "'ccmp' Glyph Composition/Decomposition in Latin lookup 6 subtable" I uni0328
Substitution2: "'aalt' Access All Alternates in Latin lookup 0 subtable" Iogonek.a
EndChar

StartChar: Lslash
Encoding: 321 321 134
Width: 462
Flags: W
LayerCount: 2
Fore
SplineSet
11 202 m 1,0,-1
 -9 255 l 1,1,-1
 96 305 l 1,2,-1
 166 656 l 1,3,-1
 244 656 l 1,4,-1
 182 344 l 1,5,-1
 362 433 l 1,6,-1
 383 380 l 1,7,-1
 168 277 l 1,8,-1
 126 66 l 1,9,-1
 402 66 l 1,10,-1
 389 0 l 1,11,-1
 35 0 l 1,12,-1
 82 237 l 1,13,-1
 11 202 l 1,0,-1
EndSplineSet
Validated: 1
EndChar

StartChar: Oslash
Encoding: 216 216 158
Width: 633
GlyphClass: 2
Flags: W
AnchorPoint: "Anchor-1" 419 682 basechar 0
LayerCount: 2
Fore
SplineSet
287 -12 m 0,0,1
 233 -12 233 -12 191.5 6.5 c 128,-1,2
 150 25 150 25 121 60 c 1,3,-1
 37 -30 l 1,4,-1
 -3 5 l 1,5,-1
 92 106 l 1,6,7
 60 172 60 172 60 263 c 0,8,9
 60 338 60 338 83.5 410.5 c 128,-1,10
 107 483 107 483 149 540.5 c 128,-1,11
 191 598 191 598 249.5 633 c 128,-1,12
 308 668 308 668 379 668 c 0,13,14
 435 668 435 668 477 648.5 c 128,-1,15
 519 629 519 629 548 592 c 1,16,-1
 637 687 l 1,17,-1
 673 652 l 1,18,-1
 576 548 l 1,19,20
 606 483 606 483 606 394 c 0,21,22
 606 319 606 319 582.5 246 c 128,-1,23
 559 173 559 173 517 115.5 c 128,-1,24
 475 58 475 58 416 23 c 128,-1,25
 357 -12 357 -12 287 -12 c 0,0,1
139 269 m 0,26,27
 139 212 139 212 151 169 c 1,28,-1
 495 535 l 1,29,30
 476 567 476 567 446.5 584 c 128,-1,31
 417 601 417 601 375 601 c 0,32,33
 322 601 322 601 278.5 571 c 128,-1,34
 235 541 235 541 204 493 c 128,-1,35
 173 445 173 445 156 386 c 128,-1,36
 139 327 139 327 139 269 c 0,26,27
291 55 m 0,37,38
 344 55 344 55 387.5 85.5 c 128,-1,39
 431 116 431 116 462 164 c 128,-1,40
 493 212 493 212 510 271 c 128,-1,41
 527 330 527 330 527 387 c 0,42,43
 527 439 527 439 516 483 c 1,44,-1
 174 117 l 1,45,46
 193 88 193 88 221.5 71.5 c 128,-1,47
 250 55 250 55 291 55 c 0,37,38
EndSplineSet
Validated: 1
EndChar

StartChar: OE
Encoding: 338 338 159
Width: 816
GlyphClass: 2
Flags: W
AnchorPoint: "Anchor-1" 580 682 basechar 0
LayerCount: 2
Fore
SplineSet
338 0 m 2,0,1
 201 0 201 0 130.5 67.5 c 128,-1,2
 60 135 60 135 60 256 c 0,3,4
 60 346 60 346 84 419.5 c 128,-1,5
 108 493 108 493 154 545.5 c 128,-1,6
 200 598 200 598 266 627 c 128,-1,7
 332 656 332 656 415 656 c 2,8,-1
 841 656 l 1,9,-1
 827 591 l 1,10,-1
 562 591 l 1,11,-1
 519 378 l 1,12,-1
 742 378 l 1,13,-1
 728 312 l 1,14,-1
 507 312 l 1,15,-1
 456 66 l 1,16,-1
 732 66 l 1,17,-1
 718 0 l 1,18,-1
 338 0 l 2,0,1
341 64 m 2,19,-1
 380 64 l 1,20,-1
 486 593 l 1,21,-1
 415 593 l 2,22,23
 351 593 351 593 300 568.5 c 128,-1,24
 249 544 249 544 213 500.5 c 128,-1,25
 177 457 177 457 158 395.5 c 128,-1,26
 139 334 139 334 139 261 c 0,27,28
 139 167 139 167 190 115.5 c 128,-1,29
 241 64 241 64 341 64 c 2,19,-1
EndSplineSet
Validated: 1
EndChar

StartChar: Ohorn
Encoding: 416 416 160
Width: 633
GlyphClass: 2
Flags: W
AnchorPoint: "Anchor-3" 283 -22 basechar 0
AnchorPoint: "Anchor-1" 411 682 basechar 0
LayerCount: 2
Fore
SplineSet
287 -12 m 0,0,1
 232 -12 232 -12 189.5 7.5 c 128,-1,2
 147 27 147 27 118.5 63 c 128,-1,3
 90 99 90 99 75 150 c 128,-1,4
 60 201 60 201 60 263 c 0,5,6
 60 338 60 338 83.5 410.5 c 128,-1,7
 107 483 107 483 149 540.5 c 128,-1,8
 191 598 191 598 249.5 633 c 128,-1,9
 308 668 308 668 379 668 c 0,10,11
 444 668 444 668 492 640 c 1,12,13
 540 645 540 645 566.5 670.5 c 128,-1,14
 593 696 593 696 593 735 c 0,15,16
 593 744 593 744 591 754.5 c 128,-1,17
 589 765 589 765 584 776 c 1,18,-1
 647 798 l 1,19,20
 658 769 658 769 658 741 c 0,21,22
 658 684 658 684 623.5 650.5 c 128,-1,23
 589 617 589 617 536 606 c 1,24,25
 571 570 571 570 588.5 516 c 128,-1,26
 606 462 606 462 606 394 c 0,27,28
 606 319 606 319 582.5 246 c 128,-1,29
 559 173 559 173 517 115.5 c 128,-1,30
 475 58 475 58 416 23 c 128,-1,31
 357 -12 357 -12 287 -12 c 0,0,1
291 55 m 0,32,33
 344 55 344 55 387.5 85.5 c 128,-1,34
 431 116 431 116 462 164 c 128,-1,35
 493 212 493 212 510 271 c 128,-1,36
 527 330 527 330 527 387 c 0,37,38
 527 484 527 484 490 542.5 c 128,-1,39
 453 601 453 601 375 601 c 0,40,41
 322 601 322 601 278.5 571 c 128,-1,42
 235 541 235 541 204 493 c 128,-1,43
 173 445 173 445 156 386 c 128,-1,44
 139 327 139 327 139 269 c 0,45,46
 139 221 139 221 148 181.5 c 128,-1,47
 157 142 157 142 175.5 114 c 128,-1,48
 194 86 194 86 223 70.5 c 128,-1,49
 252 55 252 55 291 55 c 0,32,33
EndSplineSet
Validated: 1
EndChar

StartChar: uni01EA
Encoding: 490 490 166
Width: 633
GlyphClass: 2
Flags: W
AnchorPoint: "Anchor-1" 416 682 basechar 0
LayerCount: 2
Fore
SplineSet
257 -211 m 0,0,1
 222 -211 222 -211 200.5 -193.5 c 128,-1,2
 179 -176 179 -176 179 -142 c 0,3,4
 179 -121 179 -121 187.5 -101 c 128,-1,5
 196 -81 196 -81 208.5 -64 c 128,-1,6
 221 -47 221 -47 235.5 -33 c 128,-1,7
 250 -19 250 -19 263 -11 c 1,8,9
 164 -2 164 -2 112 70.5 c 128,-1,10
 60 143 60 143 60 263 c 0,11,12
 60 338 60 338 83.5 410.5 c 128,-1,13
 107 483 107 483 149 540.5 c 128,-1,14
 191 598 191 598 249.5 633 c 128,-1,15
 308 668 308 668 379 668 c 0,16,17
 434 668 434 668 476.5 648.5 c 128,-1,18
 519 629 519 629 547.5 593 c 128,-1,19
 576 557 576 557 591 506.5 c 128,-1,20
 606 456 606 456 606 394 c 0,21,22
 606 329 606 329 589.5 267.5 c 128,-1,23
 573 206 573 206 541.5 153 c 128,-1,24
 510 100 510 100 463.5 59.5 c 128,-1,25
 417 19 417 19 357 -3 c 256,26,27
 297 -25 297 -25 270.5 -57.5 c 128,-1,28
 244 -90 244 -90 244 -119 c 0,29,30
 244 -137 244 -137 254.5 -147 c 128,-1,31
 265 -157 265 -157 280 -157 c 0,32,33
 298 -157 298 -157 316 -146 c 1,34,-1
 333 -188 l 1,35,36
 316 -199 316 -199 295 -205 c 128,-1,37
 274 -211 274 -211 257 -211 c 0,0,1
291 55 m 0,38,39
 344 55 344 55 387.5 85.5 c 128,-1,40
 431 116 431 116 462 164 c 128,-1,41
 493 212 493 212 510 271 c 128,-1,42
 527 330 527 330 527 387 c 0,43,44
 527 484 527 484 490 542.5 c 128,-1,45
 453 601 453 601 375 601 c 0,46,47
 322 601 322 601 278.5 571 c 128,-1,48
 235 541 235 541 204 493 c 128,-1,49
 173 445 173 445 156 386 c 128,-1,50
 139 327 139 327 139 269 c 0,51,52
 139 221 139 221 148 181.5 c 128,-1,53
 157 142 157 142 175.5 114 c 128,-1,54
 194 86 194 86 223 70.5 c 128,-1,55
 252 55 252 55 291 55 c 0,38,39
EndSplineSet
Validated: 1
Ligature2: "'ccmp' Glyph Composition/Decomposition in Latin lookup 6 subtable" O uni0328
EndChar

StartChar: uni1E9E
Encoding: 7838 7838 180
Width: 633
Flags: W
LayerCount: 2
Fore
SplineSet
391 -12 m 0,0,1
 336 -12 336 -12 290.5 10.5 c 128,-1,2
 245 33 245 33 214 75 c 1,3,-1
 262 122 l 1,4,5
 284 90 284 90 313.5 71 c 128,-1,6
 343 52 343 52 388 52 c 0,7,8
 413 52 413 52 435 62 c 128,-1,9
 457 72 457 72 473.5 89 c 128,-1,10
 490 106 490 106 499.5 129 c 128,-1,11
 509 152 509 152 509 178 c 0,12,13
 509 197 509 197 500.5 217 c 128,-1,14
 492 237 492 237 472.5 255.5 c 128,-1,15
 453 274 453 274 421.5 290 c 128,-1,16
 390 306 390 306 344 318 c 1,17,-1
 350 367 l 1,18,-1
 515 513 l 1,19,20
 499 562 499 562 464.5 585 c 128,-1,21
 430 608 430 608 379 608 c 0,22,23
 312 608 312 608 263 560 c 128,-1,24
 214 512 214 512 194 414 c 2,25,-1
 113 0 l 1,26,-1
 35 0 l 1,27,-1
 122 436 l 2,28,29
 132 487 132 487 153.5 530 c 128,-1,30
 175 573 175 573 207.5 604.5 c 128,-1,31
 240 636 240 636 284 654 c 128,-1,32
 328 672 328 672 384 672 c 0,33,34
 466 672 466 672 521 632 c 128,-1,35
 576 592 576 592 593 501 c 1,36,-1
 428 358 l 1,37,38
 506 332 506 332 547 286 c 128,-1,39
 588 240 588 240 588 185 c 0,40,41
 588 143 588 143 573.5 107 c 128,-1,42
 559 71 559 71 533 44.5 c 128,-1,43
 507 18 507 18 471 3 c 128,-1,44
 435 -12 435 -12 391 -12 c 0,0,1
EndSplineSet
Validated: 1
EndChar

StartChar: Uogonek
Encoding: 370 370 202
Width: 616
GlyphClass: 2
Flags: W
AnchorPoint: "Anchor-1" 407 682 basechar 0
LayerCount: 2
Fore
SplineSet
614 656 m 1,0,-1
 532 251 l 2,1,2
 521 191 521 191 503.5 148.5 c 128,-1,3
 486 106 486 106 462 75.5 c 128,-1,4
 438 45 438 45 407.5 25.5 c 128,-1,5
 377 6 377 6 339 -7 c 0,6,7
 310 -17 310 -17 289.5 -30.5 c 128,-1,8
 269 -44 269 -44 255.5 -59.5 c 128,-1,9
 242 -75 242 -75 236 -90.5 c 128,-1,10
 230 -106 230 -106 230 -119 c 0,11,12
 230 -137 230 -137 240.5 -147 c 128,-1,13
 251 -157 251 -157 266 -157 c 0,14,15
 284 -157 284 -157 302 -146 c 1,16,-1
 319 -188 l 1,17,18
 302 -199 302 -199 281 -205 c 128,-1,19
 260 -211 260 -211 243 -211 c 0,20,21
 208 -211 208 -211 186.5 -193.5 c 128,-1,22
 165 -176 165 -176 165 -142 c 0,23,24
 165 -124 165 -124 172.5 -105.5 c 128,-1,25
 180 -87 180 -87 192 -69.5 c 128,-1,26
 204 -52 204 -52 219 -36.5 c 128,-1,27
 234 -21 234 -21 249 -10 c 1,28,29
 166 1 166 1 122.5 52.5 c 128,-1,30
 79 104 79 104 79 195 c 0,31,32
 79 216 79 216 81.5 239.5 c 128,-1,33
 84 263 84 263 89 288 c 2,34,-1
 163 656 l 1,35,-1
 241 656 l 1,36,-1
 166 281 l 2,37,38
 157 236 157 236 157 202 c 0,39,40
 157 131 157 131 189 93 c 128,-1,41
 221 55 221 55 290 55 c 0,42,43
 318 55 318 55 343.5 66 c 128,-1,44
 369 77 369 77 391 101 c 128,-1,45
 413 125 413 125 429.5 162.5 c 128,-1,46
 446 200 446 200 457 254 c 2,47,-1
 538 656 l 1,48,-1
 614 656 l 1,0,-1
EndSplineSet
Validated: 1
Ligature2: "'ccmp' Glyph Composition/Decomposition in Latin lookup 6 subtable" U uni0328
EndChar

StartChar: Uhorn
Encoding: 431 431 203
Width: 629
GlyphClass: 2
Flags: W
AnchorPoint: "Anchor-3" 269 -22 basechar 0
AnchorPoint: "Anchor-1" 408 682 basechar 0
LayerCount: 2
Fore
SplineSet
89 288 m 2,0,-1
 163 656 l 1,1,-1
 241 656 l 1,2,-1
 166 281 l 2,3,4
 157 236 157 236 157 202 c 0,5,6
 157 131 157 131 189 93 c 128,-1,7
 221 55 221 55 290 55 c 0,8,9
 318 55 318 55 343.5 66 c 128,-1,10
 369 77 369 77 391 101 c 128,-1,11
 413 125 413 125 429.5 162.5 c 128,-1,12
 446 200 446 200 457 254 c 2,13,-1
 538 656 l 1,14,-1
 569 656 l 2,15,16
 619 659 619 659 646.5 682 c 128,-1,17
 674 705 674 705 674 745 c 0,18,19
 674 755 674 755 672.5 765 c 128,-1,20
 671 775 671 775 666 787 c 1,21,-1
 728 808 l 1,22,23
 734 792 734 792 737 778.5 c 128,-1,24
 740 765 740 765 740 751 c 0,25,26
 740 722 740 722 730 700 c 128,-1,27
 720 678 720 678 702 662 c 128,-1,28
 684 646 684 646 659.5 635.5 c 128,-1,29
 635 625 635 625 607 621 c 1,30,-1
 532 251 l 2,31,32
 518 180 518 180 494.5 130 c 128,-1,33
 471 80 471 80 439 48.5 c 128,-1,34
 407 17 407 17 368.5 2.5 c 128,-1,35
 330 -12 330 -12 286 -12 c 0,36,37
 186 -12 186 -12 132.5 40 c 128,-1,38
 79 92 79 92 79 195 c 0,39,40
 79 216 79 216 81.5 239.5 c 128,-1,41
 84 263 84 263 89 288 c 2,0,-1
EndSplineSet
Validated: 1
EndChar

StartChar: Eth
Encoding: 208 208 225
Width: 610
Flags: W
LayerCount: 2
Fore
SplineSet
47 324 m 1,0,-1
 56 365 l 1,1,-1
 126 368 l 1,2,-1
 184 656 l 1,3,-1
 306 656 l 2,4,5
 443 656 443 656 513.5 588.5 c 128,-1,6
 584 521 584 521 584 400 c 0,7,8
 584 311 584 311 559.5 237 c 128,-1,9
 535 163 535 163 489.5 110.5 c 128,-1,10
 444 58 444 58 378 29 c 128,-1,11
 312 0 312 0 229 0 c 2,12,-1
 53 0 l 1,13,-1
 118 324 l 1,14,-1
 47 324 l 1,0,-1
143 64 m 1,15,-1
 229 64 l 2,16,17
 293 64 293 64 344 88.5 c 128,-1,18
 395 113 395 113 431 156.5 c 128,-1,19
 467 200 467 200 486 261 c 128,-1,20
 505 322 505 322 505 395 c 0,21,22
 505 489 505 489 454 541 c 128,-1,23
 403 593 403 593 303 593 c 2,24,-1
 249 593 l 1,25,-1
 204 368 l 1,26,-1
 354 368 l 1,27,-1
 344 324 l 1,28,-1
 195 324 l 1,29,-1
 143 64 l 1,15,-1
EndSplineSet
Validated: 1
EndChar

StartChar: Thorn
Encoding: 222 222 226
Width: 562
Flags: W
LayerCount: 2
Fore
SplineSet
35 0 m 1,0,-1
 166 660 l 1,1,-1
 244 660 l 1,2,-1
 221 545 l 1,3,-1
 336 545 l 2,4,5
 381 545 381 545 417.5 536 c 128,-1,6
 454 527 454 527 480 507.5 c 128,-1,7
 506 488 506 488 520.5 457.5 c 128,-1,8
 535 427 535 427 535 385 c 0,9,10
 535 325 535 325 513.5 281 c 128,-1,11
 492 237 492 237 454 208.5 c 128,-1,12
 416 180 416 180 363.5 166 c 128,-1,13
 311 152 311 152 248 152 c 2,14,-1
 142 152 l 1,15,-1
 112 0 l 1,16,-1
 35 0 l 1,0,-1
156 215 m 1,17,-1
 250 215 l 2,18,19
 353 215 353 215 405.5 255.5 c 128,-1,20
 458 296 458 296 458 374 c 0,21,22
 458 431 458 431 421 456.5 c 128,-1,23
 384 482 384 482 313 482 c 2,24,-1
 208 482 l 1,25,-1
 156 215 l 1,17,-1
EndSplineSet
Validated: 1
EndChar

StartChar: uni018F
Encoding: 399 399 227
Width: 636
GlyphClass: 2
Flags: W
AnchorPoint: "Anchor-3" 301 -22 basechar 0
AnchorPoint: "Anchor-1" 459 682 basechar 0
LayerCount: 2
Fore
SplineSet
278 -12 m 0,0,1
 227 -12 227 -12 187 6 c 128,-1,2
 147 24 147 24 119.5 56.5 c 128,-1,3
 92 89 92 89 77.5 134.5 c 128,-1,4
 63 180 63 180 63 234 c 0,5,6
 63 266 63 266 67 291 c 128,-1,7
 71 316 71 316 79 345 c 1,8,-1
 531 345 l 1,9,10
 532 356 532 356 532.5 367.5 c 128,-1,11
 533 379 533 379 533 390 c 0,12,13
 533 439 533 439 525 479 c 128,-1,14
 517 519 517 519 499 547 c 128,-1,15
 481 575 481 575 452.5 590.5 c 128,-1,16
 424 606 424 606 382 606 c 0,17,18
 335 606 335 606 297 587 c 128,-1,19
 259 568 259 568 227 540 c 1,20,-1
 192 593 l 1,21,22
 229 627 229 627 279.5 649.5 c 128,-1,23
 330 672 330 672 390 672 c 0,24,25
 446 672 446 672 487.5 652.5 c 128,-1,26
 529 633 529 633 556 597.5 c 128,-1,27
 583 562 583 562 596.5 511.5 c 128,-1,28
 610 461 610 461 610 399 c 0,29,30
 610 309 610 309 583.5 234 c 128,-1,31
 557 159 557 159 512 104 c 128,-1,32
 467 49 467 49 406.5 18.5 c 128,-1,33
 346 -12 346 -12 278 -12 c 0,0,1
283 54 m 0,34,35
 325 54 325 54 362.5 71 c 128,-1,36
 400 88 400 88 431.5 118.5 c 128,-1,37
 463 149 463 149 486 191.5 c 128,-1,38
 509 234 509 234 521 286 c 1,39,-1
 139 286 l 1,40,41
 131 232 131 232 138.5 189 c 128,-1,42
 146 146 146 146 165.5 116 c 128,-1,43
 185 86 185 86 215 70 c 128,-1,44
 245 54 245 54 283 54 c 0,34,35
EndSplineSet
Validated: 33
EndChar

StartChar: aogonek
Encoding: 261 261 249
Width: 537
GlyphClass: 2
Flags: W
AnchorPoint: "Anchor-0" 316 509 basechar 0
LayerCount: 2
Fore
SplineSet
311 -206 m 0,0,1
 278 -206 278 -206 257 -189 c 128,-1,2
 236 -172 236 -172 236 -139 c 0,3,4
 236 -117 236 -117 246 -95.5 c 128,-1,5
 256 -74 256 -74 271.5 -55 c 128,-1,6
 287 -36 287 -36 306.5 -20.5 c 128,-1,7
 326 -5 326 -5 345 6 c 1,8,-1
 352 73 l 1,9,-1
 350 73 l 1,10,11
 314 36 314 36 269.5 12 c 128,-1,12
 225 -12 225 -12 179 -12 c 0,13,14
 115 -12 115 -12 77 33 c 128,-1,15
 39 78 39 78 39 164 c 0,16,17
 39 234 39 234 61 295 c 128,-1,18
 83 356 83 356 120 401 c 128,-1,19
 157 446 157 446 204 472 c 128,-1,20
 251 498 251 498 302 498 c 0,21,22
 341 498 341 498 372.5 477.5 c 128,-1,23
 404 457 404 457 421 423 c 1,24,-1
 423 423 l 1,25,-1
 442 486 l 1,26,-1
 504 486 l 1,27,-1
 407 0 l 1,28,29
 356 -23 356 -23 326.5 -54 c 128,-1,30
 297 -85 297 -85 297 -118 c 0,31,32
 297 -135 297 -135 307.5 -145 c 128,-1,33
 318 -155 318 -155 333 -155 c 0,34,35
 344 -155 344 -155 352.5 -152 c 128,-1,36
 361 -149 361 -149 371 -143 c 1,37,-1
 387 -181 l 1,38,39
 370 -192 370 -192 349 -199 c 128,-1,40
 328 -206 328 -206 311 -206 c 0,0,1
207 52 m 0,41,42
 241 52 241 52 282.5 74.5 c 128,-1,43
 324 97 324 97 360 145 c 1,44,-1
 404 363 l 1,45,46
 383 401 383 401 358 417.5 c 128,-1,47
 333 434 333 434 305 434 c 0,48,49
 269 434 269 434 235 412.5 c 128,-1,50
 201 391 201 391 175 355 c 128,-1,51
 149 319 149 319 133.5 272.5 c 128,-1,52
 118 226 118 226 118 176 c 0,53,54
 118 113 118 113 142 82.5 c 128,-1,55
 166 52 166 52 207 52 c 0,41,42
EndSplineSet
Validated: 1
Substitution2: "'ss02' Style Set 2 in Latin lookup 21 subtable" aogonek.a
Ligature2: "'ccmp' Glyph Composition/Decomposition in Latin lookup 6 subtable" a uni0328
Substitution2: "'aalt' Access All Alternates in Latin lookup 0 subtable" aogonek.a
EndChar

StartChar: ae
Encoding: 230 230 250
Width: 761
Flags: W
LayerCount: 2
Fore
SplineSet
32 106 m 0,0,1
 32 158 32 158 55.5 194 c 128,-1,2
 79 230 79 230 121 253 c 128,-1,3
 163 276 163 276 221.5 287.5 c 128,-1,4
 280 299 280 299 350 301 c 1,5,6
 353 315 353 315 354 324.5 c 128,-1,7
 355 334 355 334 355 345 c 0,8,9
 355 390 355 390 335.5 413 c 128,-1,10
 316 436 316 436 271 436 c 0,11,12
 239 436 239 436 204.5 424 c 128,-1,13
 170 412 170 412 135 392 c 1,14,-1
 114 448 l 1,15,16
 152 469 152 469 197 483.5 c 128,-1,17
 242 498 242 498 287 498 c 0,18,19
 337 498 337 498 369.5 474.5 c 128,-1,20
 402 451 402 451 410 403 c 1,21,22
 444 448 444 448 487.5 473 c 128,-1,23
 531 498 531 498 577 498 c 0,24,25
 618 498 618 498 646.5 484.5 c 128,-1,26
 675 471 675 471 693 447.5 c 128,-1,27
 711 424 711 424 719.5 391.5 c 128,-1,28
 728 359 728 359 728 322 c 0,29,30
 728 293 728 293 721.5 267 c 128,-1,31
 715 241 715 241 710 227 c 1,32,-1
 407 227 l 1,33,34
 401 187 401 187 407 154 c 128,-1,35
 413 121 413 121 429 98 c 128,-1,36
 445 75 445 75 469.5 62 c 128,-1,37
 494 49 494 49 526 49 c 0,38,39
 555 49 555 49 583.5 61.5 c 128,-1,40
 612 74 612 74 635 91 c 1,41,-1
 665 40 l 1,42,43
 636 19 636 19 597 3.5 c 128,-1,44
 558 -12 558 -12 511 -12 c 0,45,46
 458 -12 458 -12 416.5 15.5 c 128,-1,47
 375 43 375 43 358 84 c 1,48,49
 310 39 310 39 260.5 13.5 c 128,-1,50
 211 -12 211 -12 157 -12 c 0,51,52
 131 -12 131 -12 108.5 -4.5 c 128,-1,53
 86 3 86 3 69 18 c 128,-1,54
 52 33 52 33 42 55 c 128,-1,55
 32 77 32 77 32 106 c 0,0,1
415 279 m 1,56,-1
 657 279 l 1,57,58
 659 293 659 293 660.5 304 c 128,-1,59
 662 315 662 315 662 329 c 0,60,61
 662 350 662 350 657 369.5 c 128,-1,62
 652 389 652 389 641 404 c 128,-1,63
 630 419 630 419 612 428 c 128,-1,64
 594 437 594 437 568 437 c 0,65,66
 545 437 545 437 521.5 426 c 128,-1,67
 498 415 498 415 477.5 394 c 128,-1,68
 457 373 457 373 440.5 344 c 128,-1,69
 424 315 424 315 415 279 c 1,56,-1
340 250 m 1,70,71
 231 247 231 247 169 215 c 128,-1,72
 107 183 107 183 107 122 c 0,73,74
 107 87 107 87 129 68 c 128,-1,75
 151 49 151 49 185 49 c 0,76,77
 216 49 216 49 256 70 c 128,-1,78
 296 91 296 91 338 135 c 1,79,80
 334 167 334 167 334.5 192.5 c 128,-1,81
 335 218 335 218 340 250 c 1,70,71
EndSplineSet
Validated: 33
EndChar

StartChar: dcroat
Encoding: 273 273 259
Width: 535
Flags: W
LayerCount: 2
Fore
SplineSet
179 -12 m 0,0,1
 115 -12 115 -12 77 33 c 128,-1,2
 39 78 39 78 39 164 c 0,3,4
 39 226 39 226 61 283 c 128,-1,5
 83 340 83 340 119.5 383.5 c 128,-1,6
 156 427 156 427 203 452.5 c 128,-1,7
 250 478 250 478 300 478 c 0,8,9
 339 478 339 478 367.5 458.5 c 128,-1,10
 396 439 396 439 413 407 c 1,11,-1
 416 407 l 1,12,-1
 432 502 l 1,13,-1
 446 572 l 1,14,-1
 291 572 l 1,15,-1
 299 617 l 1,16,-1
 455 617 l 1,17,-1
 474 712 l 1,18,-1
 551 712 l 1,19,-1
 532 617 l 1,20,-1
 603 617 l 1,21,-1
 593 577 l 1,22,-1
 523 572 l 1,23,-1
 407 0 l 1,24,-1
 344 0 l 1,25,-1
 352 72 l 1,26,-1
 348 72 l 1,27,28
 313 34 313 34 269 11 c 128,-1,29
 225 -12 225 -12 179 -12 c 0,0,1
207 52 m 0,30,31
 245 52 245 52 284 74.5 c 128,-1,32
 323 97 323 97 360 145 c 1,33,-1
 400 342 l 1,34,35
 380 380 380 380 355.5 397 c 128,-1,36
 331 414 331 414 303 414 c 0,37,38
 267 414 267 414 233.5 393 c 128,-1,39
 200 372 200 372 174.5 338 c 128,-1,40
 149 304 149 304 133.5 261.5 c 128,-1,41
 118 219 118 219 118 176 c 0,42,43
 118 113 118 113 142 82.5 c 128,-1,44
 166 52 166 52 207 52 c 0,30,31
EndSplineSet
Validated: 1
EndChar

StartChar: eogonek
Encoding: 281 281 276
Width: 481
GlyphClass: 2
Flags: W
AnchorPoint: "Anchor-0" 306 509 basechar 0
LayerCount: 2
Fore
SplineSet
179 -139 m 0,0,1
 179 -117 179 -117 187.5 -97 c 128,-1,2
 196 -77 196 -77 208.5 -60 c 128,-1,3
 221 -43 221 -43 234.5 -30 c 128,-1,4
 248 -17 248 -17 259 -8 c 1,5,6
 251 -10 251 -10 242.5 -11 c 128,-1,7
 234 -12 234 -12 228 -12 c 0,8,9
 141 -12 141 -12 89 40.5 c 128,-1,10
 37 93 37 93 37 191 c 0,11,12
 37 260 37 260 60 316.5 c 128,-1,13
 83 373 83 373 119.5 413.5 c 128,-1,14
 156 454 156 454 202.5 476 c 128,-1,15
 249 498 249 498 297 498 c 0,16,17
 338 498 338 498 366.5 484.5 c 128,-1,18
 395 471 395 471 413 447.5 c 128,-1,19
 431 424 431 424 439 391.5 c 128,-1,20
 447 359 447 359 447 322 c 0,21,22
 447 293 447 293 441 267 c 128,-1,23
 435 241 435 241 430 227 c 1,24,-1
 114 227 l 1,25,26
 107 180 107 180 115 146.5 c 128,-1,27
 123 113 123 113 141.5 91 c 128,-1,28
 160 69 160 69 187 59 c 128,-1,29
 214 49 214 49 246 49 c 0,30,31
 275 49 275 49 303.5 61.5 c 128,-1,32
 332 74 332 74 355 91 c 1,33,-1
 385 40 l 1,34,35
 343 15 343 15 315 -7 c 128,-1,36
 287 -29 287 -29 270.5 -48.5 c 128,-1,37
 254 -68 254 -68 247 -85.5 c 128,-1,38
 240 -103 240 -103 240 -118 c 0,39,40
 240 -135 240 -135 250.5 -145 c 128,-1,41
 261 -155 261 -155 276 -155 c 0,42,43
 287 -155 287 -155 295.5 -152 c 128,-1,44
 304 -149 304 -149 314 -143 c 1,45,-1
 330 -181 l 1,46,47
 313 -192 313 -192 292 -199 c 128,-1,48
 271 -206 271 -206 253 -206 c 0,49,50
 221 -206 221 -206 200 -189 c 128,-1,51
 179 -172 179 -172 179 -139 c 0,0,1
122 279 m 1,52,-1
 377 279 l 1,53,54
 379 291 379 291 380.5 303 c 128,-1,55
 382 315 382 315 382 329 c 0,56,57
 382 350 382 350 377 369.5 c 128,-1,58
 372 389 372 389 361 404 c 128,-1,59
 350 419 350 419 332 428 c 128,-1,60
 314 437 314 437 288 437 c 0,61,62
 261 437 261 437 235.5 426 c 128,-1,63
 210 415 210 415 188 394 c 128,-1,64
 166 373 166 373 148.5 344 c 128,-1,65
 131 315 131 315 122 279 c 1,52,-1
EndSplineSet
Validated: 33
Ligature2: "'ccmp' Glyph Composition/Decomposition in Latin lookup 6 subtable" e uni0328
EndChar

StartChar: hbar
Encoding: 295 295 287
Width: 519
Flags: W
LayerCount: 2
Fore
SplineSet
31 0 m 1,0,-1
 145 572 l 1,1,-1
 75 572 l 1,2,-1
 82 612 l 1,3,-1
 154 617 l 1,4,-1
 173 712 l 1,5,-1
 250 712 l 1,6,-1
 231 617 l 1,7,-1
 406 617 l 1,8,-1
 396 572 l 1,9,-1
 221 572 l 1,10,-1
 198 457 l 1,11,-1
 182 396 l 1,12,-1
 186 396 l 1,13,14
 228 431 228 431 268 454.5 c 128,-1,15
 308 478 308 478 353 478 c 0,16,17
 415 478 415 478 441.5 446 c 128,-1,18
 468 414 468 414 468 357 c 0,19,20
 468 340 468 340 466.5 325 c 128,-1,21
 465 310 465 310 460 290 c 2,22,-1
 402 0 l 1,23,-1
 326 0 l 1,24,-1
 382 280 l 2,25,26
 386 300 386 300 388 312 c 128,-1,27
 390 324 390 324 390 337 c 0,28,29
 390 374 390 374 373 393 c 128,-1,30
 356 412 356 412 318 412 c 0,31,32
 289 412 289 412 253.5 391 c 128,-1,33
 218 370 218 370 172 324 c 1,34,-1
 107 0 l 1,35,-1
 31 0 l 1,0,-1
EndSplineSet
Validated: 1
EndChar

StartChar: iogonek
Encoding: 303 303 297
Width: 237
GlyphClass: 3
Flags: W
LayerCount: 2
Fore
SplineSet
33 -206 m 0,0,1
 1 -206 1 -206 -20.5 -189 c 128,-1,2
 -42 -172 -42 -172 -42 -139 c 0,3,4
 -42 -117 -42 -117 -33 -96.5 c 128,-1,5
 -24 -76 -24 -76 -10.5 -57.5 c 128,-1,6
 3 -39 3 -39 19 -24.5 c 128,-1,7
 35 -10 35 -10 49 0 c 1,8,-1
 31 0 l 1,9,-1
 128 486 l 1,10,-1
 205 486 l 1,11,-1
 107 0 l 1,12,13
 65 -27 65 -27 42 -56.5 c 128,-1,14
 19 -86 19 -86 19 -118 c 0,15,16
 19 -135 19 -135 29.5 -145 c 128,-1,17
 40 -155 40 -155 56 -155 c 0,18,19
 75 -155 75 -155 93 -143 c 1,20,-1
 109 -181 l 1,21,22
 92 -192 92 -192 71 -199 c 128,-1,23
 50 -206 50 -206 33 -206 c 0,0,1
193 587 m 0,24,25
 173 587 173 587 158.5 598.5 c 128,-1,26
 144 610 144 610 144 632 c 0,27,28
 144 657 144 657 161.5 673.5 c 128,-1,29
 179 690 179 690 202 690 c 0,30,31
 222 690 222 690 236.5 678 c 128,-1,32
 251 666 251 666 251 644 c 0,33,34
 251 619 251 619 233.5 603 c 128,-1,35
 216 587 216 587 193 587 c 0,24,25
EndSplineSet
Validated: 1
Substitution2: "Single Substitution lookup 26 subtable" iogonek.d
Ligature2: "'ccmp' Glyph Composition/Decomposition in Latin lookup 6 subtable" i uni0328
EndChar

StartChar: iogonek.d
Encoding: 65539 -1 298
Width: 237
GlyphClass: 2
Flags: W
AnchorPoint: "Anchor-0" 178 509 basechar 0
LayerCount: 2
Fore
SplineSet
33 -206 m 0,0,1
 1 -206 1 -206 -20.5 -189 c 128,-1,2
 -42 -172 -42 -172 -42 -139 c 0,3,4
 -42 -117 -42 -117 -33 -96.5 c 128,-1,5
 -24 -76 -24 -76 -10.5 -57.5 c 128,-1,6
 3 -39 3 -39 19 -24.5 c 128,-1,7
 35 -10 35 -10 49 0 c 1,8,-1
 31 0 l 1,9,-1
 128 486 l 1,10,-1
 205 486 l 1,11,-1
 107 0 l 1,12,13
 65 -27 65 -27 42 -56.5 c 128,-1,14
 19 -86 19 -86 19 -118 c 0,15,16
 19 -135 19 -135 29.5 -145 c 128,-1,17
 40 -155 40 -155 56 -155 c 0,18,19
 75 -155 75 -155 93 -143 c 1,20,-1
 109 -181 l 1,21,22
 92 -192 92 -192 71 -199 c 128,-1,23
 50 -206 50 -206 33 -206 c 0,0,1
EndSplineSet
Validated: 1
Ligature2: "Ligature Substitution lookup 25 subtable" i uni0328
EndChar

StartChar: dotlessi
Encoding: 305 305 299
Width: 237
GlyphClass: 2
Flags: W
AnchorPoint: "Anchor-5" 66 0 basechar 0
AnchorPoint: "Anchor-3" 76 -22 basechar 0
AnchorPoint: "Anchor-0" 178 509 basechar 0
LayerCount: 2
Fore
SplineSet
31 0 m 1,0,-1
 128 486 l 1,1,-1
 205 486 l 1,2,-1
 107 0 l 1,3,-1
 31 0 l 1,0,-1
EndSplineSet
Validated: 1
EndChar

StartChar: kgreenlandic
Encoding: 312 312 302
Width: 476
Flags: W
LayerCount: 2
Fore
SplineSet
31 0 m 1,0,-1
 127 486 l 1,1,-1
 204 486 l 1,2,-1
 154 229 l 1,3,-1
 156 229 l 1,4,-1
 405 486 l 1,5,-1
 493 486 l 1,6,-1
 299 283 l 1,7,-1
 416 0 l 1,8,-1
 338 0 l 1,9,-1
 245 237 l 1,10,-1
 133 123 l 1,11,-1
 107 0 l 1,12,-1
 31 0 l 1,0,-1
EndSplineSet
Validated: 1
EndChar

StartChar: lslash
Encoding: 322 322 310
Width: 252
Flags: W
LayerCount: 2
Fore
SplineSet
113 -12 m 0,0,1
 81 -12 81 -12 64.5 4.5 c 128,-1,2
 48 21 48 21 48 51 c 0,3,4
 48 67 48 67 54 93 c 2,5,-1
 102 337 l 1,6,-1
 44 303 l 1,7,-1
 25 351 l 1,8,-1
 115 402 l 1,9,-1
 177 712 l 1,10,-1
 254 712 l 1,11,-1
 200 441 l 1,12,-1
 266 481 l 1,13,-1
 286 433 l 1,14,-1
 186 375 l 1,15,-1
 129 89 l 2,16,17
 127 81 127 81 127 77 c 128,-1,18
 127 73 127 73 127 70 c 0,19,20
 127 52 127 52 144 52 c 0,21,22
 147 52 147 52 150 52.5 c 128,-1,23
 153 53 153 53 160 55 c 1,24,-1
 161 -4 l 1,25,26
 151 -8 151 -8 140 -10 c 128,-1,27
 129 -12 129 -12 113 -12 c 0,0,1
EndSplineSet
Validated: 1
Substitution2: "'ss01' Style Set 1 in Latin lookup 20 subtable" lslash.a
Substitution2: "'aalt' Access All Alternates in Latin lookup 0 subtable" lslash.a
EndChar

StartChar: oslash
Encoding: 248 248 335
Width: 515
GlyphClass: 2
Flags: W
AnchorPoint: "Anchor-0" 324 509 basechar 0
LayerCount: 2
Fore
SplineSet
212 -12 m 0,0,1
 135 -12 135 -12 88 38 c 1,2,-1
 29 -23 l 1,3,-1
 0 5 l 1,4,-1
 64 71 l 1,5,6
 39 118 39 118 39 183 c 0,7,8
 39 252 39 252 61 310 c 128,-1,9
 83 368 83 368 120 409.5 c 128,-1,10
 157 451 157 451 204 474.5 c 128,-1,11
 251 498 251 498 301 498 c 0,12,13
 381 498 381 498 428 445 c 1,14,-1
 489 508 l 1,15,-1
 519 480 l 1,16,-1
 452 411 l 1,17,18
 475 365 475 365 475 303 c 0,19,20
 475 234 475 234 452.5 176 c 128,-1,21
 430 118 430 118 393.5 76 c 128,-1,22
 357 34 357 34 309.5 11 c 128,-1,23
 262 -12 262 -12 212 -12 c 0,0,1
112 188 m 0,24,25
 112 152 112 152 119 128 c 1,26,-1
 378 394 l 1,27,28
 350 436 350 436 295 436 c 0,29,30
 258 436 258 436 224.5 415 c 128,-1,31
 191 394 191 394 166 359.5 c 128,-1,32
 141 325 141 325 126.5 280 c 128,-1,33
 112 235 112 235 112 188 c 0,24,25
218 50 m 0,34,35
 255 50 255 50 288.5 71 c 128,-1,36
 322 92 322 92 347.5 126.5 c 128,-1,37
 373 161 373 161 387.5 205.5 c 128,-1,38
 402 250 402 250 402 297 c 0,39,40
 402 329 402 329 396 353 c 1,41,-1
 137 88 l 1,42,43
 164 50 164 50 218 50 c 0,34,35
EndSplineSet
Validated: 1
EndChar

StartChar: oe
Encoding: 339 339 336
Width: 812
GlyphClass: 2
Flags: W
AnchorPoint: "Anchor-0" 453 502 basechar 0
LayerCount: 2
Fore
SplineSet
208 -12 m 0,0,1
 131 -12 131 -12 85 40 c 128,-1,2
 39 92 39 92 39 183 c 0,3,4
 39 252 39 252 61 310 c 128,-1,5
 83 368 83 368 119 409.5 c 128,-1,6
 155 451 155 451 201.5 474.5 c 128,-1,7
 248 498 248 498 297 498 c 0,8,9
 358 498 358 498 395.5 465.5 c 128,-1,10
 433 433 433 433 447 372 c 1,11,12
 463 402 463 402 484 425.5 c 128,-1,13
 505 449 505 449 529 465 c 128,-1,14
 553 481 553 481 578 489.5 c 128,-1,15
 603 498 603 498 628 498 c 0,16,17
 669 498 669 498 698 484.5 c 128,-1,18
 727 471 727 471 745 447.5 c 128,-1,19
 763 424 763 424 771 391.5 c 128,-1,20
 779 359 779 359 779 322 c 0,21,22
 779 293 779 293 772.5 267 c 128,-1,23
 766 241 766 241 761 227 c 1,24,-1
 461 227 l 1,25,26
 455 180 455 180 462.5 146.5 c 128,-1,27
 470 113 470 113 486.5 91 c 128,-1,28
 503 69 503 69 526.5 59 c 128,-1,29
 550 49 550 49 578 49 c 0,30,31
 607 49 607 49 635.5 61.5 c 128,-1,32
 664 74 664 74 687 91 c 1,33,-1
 716 40 l 1,34,35
 687 19 687 19 647 3.5 c 128,-1,36
 607 -12 607 -12 559 -12 c 0,37,38
 501 -12 501 -12 461 21.5 c 128,-1,39
 421 55 421 55 407 121 c 1,40,41
 373 58 373 58 320 23 c 128,-1,42
 267 -12 267 -12 208 -12 c 0,0,1
220 52 m 0,43,44
 253 52 253 52 284 71.5 c 128,-1,45
 315 91 315 91 339.5 124 c 128,-1,46
 364 157 364 157 379 202 c 128,-1,47
 394 247 394 247 394 298 c 0,48,49
 394 364 394 364 367.5 399.5 c 128,-1,50
 341 435 341 435 290 435 c 0,51,52
 258 435 258 435 226.5 415.5 c 128,-1,53
 195 396 195 396 170.5 362.5 c 128,-1,54
 146 329 146 329 131 284 c 128,-1,55
 116 239 116 239 116 188 c 0,56,57
 116 122 116 122 142.5 87 c 128,-1,58
 169 52 169 52 220 52 c 0,43,44
469 279 m 1,59,-1
 708 279 l 1,60,61
 714 303 714 303 714 329 c 0,62,63
 714 350 714 350 709 369.5 c 128,-1,64
 704 389 704 389 693 404 c 128,-1,65
 682 419 682 419 664 428 c 128,-1,66
 646 437 646 437 620 437 c 0,67,68
 596 437 596 437 572.5 426 c 128,-1,69
 549 415 549 415 529 394 c 128,-1,70
 509 373 509 373 493.5 344 c 128,-1,71
 478 315 478 315 469 279 c 1,59,-1
EndSplineSet
Validated: 33
EndChar

StartChar: ohorn
Encoding: 417 417 337
Width: 517
GlyphClass: 2
Flags: W
AnchorPoint: "Anchor-3" 193 -22 basechar 0
AnchorPoint: "Anchor-0" 317 509 basechar 0
LayerCount: 2
Fore
SplineSet
212 -12 m 0,0,1
 133 -12 133 -12 86 40 c 128,-1,2
 39 92 39 92 39 183 c 0,3,4
 39 252 39 252 61 310 c 128,-1,5
 83 368 83 368 120 409.5 c 128,-1,6
 157 451 157 451 204 474.5 c 128,-1,7
 251 498 251 498 301 498 c 0,8,9
 352 498 352 498 392 475 c 1,10,11
 435 482 435 482 461 508.5 c 128,-1,12
 487 535 487 535 489 577 c 0,13,14
 489 586 489 586 487 598.5 c 128,-1,15
 485 611 485 611 481 621 c 1,16,-1
 542 644 l 1,17,18
 548 629 548 629 550.5 613 c 128,-1,19
 553 597 553 597 553 583 c 0,20,21
 553 554 553 554 543 530.5 c 128,-1,22
 533 507 533 507 516.5 489 c 128,-1,23
 500 471 500 471 477.5 459 c 128,-1,24
 455 447 455 447 431 441 c 1,25,26
 452 416 452 416 463.5 381.5 c 128,-1,27
 475 347 475 347 475 303 c 0,28,29
 475 234 475 234 452.5 176 c 128,-1,30
 430 118 430 118 393.5 76.5 c 128,-1,31
 357 35 357 35 309.5 11.5 c 128,-1,32
 262 -12 262 -12 212 -12 c 0,0,1
220 52 m 0,33,34
 254 52 254 52 285.5 71.5 c 128,-1,35
 317 91 317 91 342 124 c 128,-1,36
 367 157 367 157 382 202 c 128,-1,37
 397 247 397 247 397 298 c 0,38,39
 397 364 397 364 370.5 399.5 c 128,-1,40
 344 435 344 435 293 435 c 0,41,42
 260 435 260 435 228 415.5 c 128,-1,43
 196 396 196 396 171 362.5 c 128,-1,44
 146 329 146 329 131 284 c 128,-1,45
 116 239 116 239 116 188 c 0,46,47
 116 122 116 122 142.5 87 c 128,-1,48
 169 52 169 52 220 52 c 0,33,34
EndSplineSet
Validated: 1
EndChar

StartChar: uni1EE1
Encoding: 7905 7905 341
Width: 517
Flags: W
LayerCount: 2
Fore
SplineSet
374 577 m 0,0,1
 349 577 349 577 333.5 590.5 c 128,-1,2
 318 604 318 604 305 619.5 c 128,-1,3
 292 635 292 635 279 648.5 c 128,-1,4
 266 662 266 662 247 662 c 0,5,6
 225 662 225 662 211 640 c 128,-1,7
 197 618 197 618 189 582 c 1,8,-1
 137 585 l 1,9,10
 148 644 148 644 176 682.5 c 128,-1,11
 204 721 204 721 251 721 c 0,12,13
 276 721 276 721 291.5 707.5 c 128,-1,14
 307 694 307 694 320 678.5 c 128,-1,15
 333 663 333 663 346 649.5 c 128,-1,16
 359 636 359 636 378 636 c 0,17,18
 400 636 400 636 414 658.5 c 128,-1,19
 428 681 428 681 436 716 c 1,20,-1
 489 712 l 1,21,22
 477 654 477 654 449.5 615.5 c 128,-1,23
 422 577 422 577 374 577 c 0,0,1
212 -12 m 0,24,25
 133 -12 133 -12 86 40 c 128,-1,26
 39 92 39 92 39 183 c 0,27,28
 39 252 39 252 61 310 c 128,-1,29
 83 368 83 368 120 409.5 c 128,-1,30
 157 451 157 451 204 474.5 c 128,-1,31
 251 498 251 498 301 498 c 0,32,33
 352 498 352 498 392 475 c 1,34,35
 435 482 435 482 461 508.5 c 128,-1,36
 487 535 487 535 489 577 c 0,37,38
 489 586 489 586 487 598.5 c 128,-1,39
 485 611 485 611 481 621 c 1,40,-1
 542 644 l 1,41,42
 548 629 548 629 550.5 613 c 128,-1,43
 553 597 553 597 553 583 c 0,44,45
 553 554 553 554 543 530.5 c 128,-1,46
 533 507 533 507 516.5 489 c 128,-1,47
 500 471 500 471 477.5 459 c 128,-1,48
 455 447 455 447 431 441 c 1,49,50
 452 416 452 416 463.5 381.5 c 128,-1,51
 475 347 475 347 475 303 c 0,52,53
 475 234 475 234 452.5 176 c 128,-1,54
 430 118 430 118 393.5 76.5 c 128,-1,55
 357 35 357 35 309.5 11.5 c 128,-1,56
 262 -12 262 -12 212 -12 c 0,24,25
220 52 m 0,57,58
 254 52 254 52 285.5 71.5 c 128,-1,59
 317 91 317 91 342 124 c 128,-1,60
 367 157 367 157 382 202 c 128,-1,61
 397 247 397 247 397 298 c 0,62,63
 397 364 397 364 370.5 399.5 c 128,-1,64
 344 435 344 435 293 435 c 0,65,66
 260 435 260 435 228 415.5 c 128,-1,67
 196 396 196 396 171 362.5 c 128,-1,68
 146 329 146 329 131 284 c 128,-1,69
 116 239 116 239 116 188 c 0,70,71
 116 122 116 122 142.5 87 c 128,-1,72
 169 52 169 52 220 52 c 0,57,58
EndSplineSet
Validated: 1
EndChar

StartChar: uni01EB
Encoding: 491 491 343
Width: 515
GlyphClass: 2
Flags: W
AnchorPoint: "Anchor-0" 324 509 basechar 0
LayerCount: 2
Fore
SplineSet
185 -206 m 0,0,1
 153 -206 153 -206 131.5 -189 c 128,-1,2
 110 -172 110 -172 110 -139 c 0,3,4
 110 -117 110 -117 118.5 -96.5 c 128,-1,5
 127 -76 127 -76 140 -59 c 128,-1,6
 153 -42 153 -42 167.5 -29 c 128,-1,7
 182 -16 182 -16 193 -10 c 1,8,9
 121 -2 121 -2 80 46.5 c 128,-1,10
 39 95 39 95 39 183 c 0,11,12
 39 252 39 252 61 310 c 128,-1,13
 83 368 83 368 120 409.5 c 128,-1,14
 157 451 157 451 204 474.5 c 128,-1,15
 251 498 251 498 301 498 c 0,16,17
 339 498 339 498 371 485 c 128,-1,18
 403 472 403 472 426 447 c 128,-1,19
 449 422 449 422 462 385.5 c 128,-1,20
 475 349 475 349 475 303 c 0,21,22
 475 244 475 244 460 195.5 c 128,-1,23
 445 147 445 147 418.5 108.5 c 128,-1,24
 392 70 392 70 355 42 c 128,-1,25
 318 14 318 14 274 -5 c 0,26,27
 223 -27 223 -27 197 -59.5 c 128,-1,28
 171 -92 171 -92 171 -118 c 0,29,30
 171 -135 171 -135 181.5 -145 c 128,-1,31
 192 -155 192 -155 207 -155 c 0,32,33
 218 -155 218 -155 226.5 -152 c 128,-1,34
 235 -149 235 -149 245 -143 c 1,35,-1
 261 -181 l 1,36,37
 244 -192 244 -192 223 -199 c 128,-1,38
 202 -206 202 -206 185 -206 c 0,0,1
220 52 m 0,39,40
 254 52 254 52 285.5 71.5 c 128,-1,41
 317 91 317 91 342 124 c 128,-1,42
 367 157 367 157 382 202 c 128,-1,43
 397 247 397 247 397 298 c 0,44,45
 397 364 397 364 370.5 399.5 c 128,-1,46
 344 435 344 435 293 435 c 0,47,48
 260 435 260 435 228 415.5 c 128,-1,49
 196 396 196 396 171 362.5 c 128,-1,50
 146 329 146 329 131 284 c 128,-1,51
 116 239 116 239 116 188 c 0,52,53
 116 122 116 122 142.5 87 c 128,-1,54
 169 52 169 52 220 52 c 0,39,40
EndSplineSet
Validated: 1
Ligature2: "'ccmp' Glyph Composition/Decomposition in Latin lookup 6 subtable" o uni0328
EndChar

StartChar: germandbls
Encoding: 223 223 357
Width: 555
Flags: W
LayerCount: 2
Fore
SplineSet
339 -12 m 0,0,1
 302 -12 302 -12 266 0.5 c 128,-1,2
 230 13 230 13 199 38 c 1,3,-1
 234 89 l 1,4,5
 257 70 257 70 282.5 59 c 128,-1,6
 308 48 308 48 339 48 c 0,7,8
 378 48 378 48 405.5 72.5 c 128,-1,9
 433 97 433 97 433 135 c 0,10,11
 433 159 433 159 422 177 c 128,-1,12
 411 195 411 195 394 210 c 128,-1,13
 377 225 377 225 358 239 c 128,-1,14
 339 253 339 253 322 269 c 128,-1,15
 305 285 305 285 294 304 c 128,-1,16
 283 323 283 323 283 349 c 256,17,18
 283 375 283 375 293 395.5 c 128,-1,19
 303 416 303 416 317.5 433 c 128,-1,20
 332 450 332 450 349.5 466 c 128,-1,21
 367 482 367 482 381.5 499.5 c 128,-1,22
 396 517 396 517 406 537 c 128,-1,23
 416 557 416 557 416 584 c 0,24,25
 416 618 416 618 399 640 c 128,-1,26
 382 662 382 662 343 662 c 0,27,28
 317 662 317 662 295.5 649.5 c 128,-1,29
 274 637 274 637 257 616 c 128,-1,30
 240 595 240 595 228 567 c 128,-1,31
 216 539 216 539 209 507 c 2,32,-1
 107 0 l 1,33,-1
 31 0 l 1,34,-1
 136 525 l 2,35,36
 145 566 145 566 163 602 c 128,-1,37
 181 638 181 638 207.5 665 c 128,-1,38
 234 692 234 692 269 708 c 128,-1,39
 304 724 304 724 346 724 c 0,40,41
 376 724 376 724 402 716 c 128,-1,42
 428 708 428 708 447.5 691.5 c 128,-1,43
 467 675 467 675 478.5 650 c 128,-1,44
 490 625 490 625 490 592 c 0,45,46
 490 561 490 561 480 537.5 c 128,-1,47
 470 514 470 514 455.5 495 c 128,-1,48
 441 476 441 476 424 460.5 c 128,-1,49
 407 445 407 445 392.5 430 c 128,-1,50
 378 415 378 415 368 399 c 128,-1,51
 358 383 358 383 358 363 c 256,52,53
 358 343 358 343 369 328 c 128,-1,54
 380 313 380 313 396 299 c 128,-1,55
 412 285 412 285 431.5 270.5 c 128,-1,56
 451 256 451 256 467 238.5 c 128,-1,57
 483 221 483 221 494 198.5 c 128,-1,58
 505 176 505 176 505 145 c 0,59,60
 505 112 505 112 492.5 83.5 c 128,-1,61
 480 55 480 55 457.5 34 c 128,-1,62
 435 13 435 13 405 0.5 c 128,-1,63
 375 -12 375 -12 339 -12 c 0,0,1
EndSplineSet
Validated: 1
EndChar

StartChar: uogonek
Encoding: 371 371 380
Width: 528
GlyphClass: 2
Flags: W
AnchorPoint: "Anchor-0" 317 509 basechar 0
LayerCount: 2
Fore
SplineSet
302 -206 m 0,0,1
 270 -206 270 -206 248.5 -189 c 128,-1,2
 227 -172 227 -172 227 -139 c 0,3,4
 227 -117 227 -117 237 -95.5 c 128,-1,5
 247 -74 247 -74 262.5 -55 c 128,-1,6
 278 -36 278 -36 297.5 -20.5 c 128,-1,7
 317 -5 317 -5 337 6 c 1,8,-1
 343 74 l 1,9,-1
 339 74 l 1,10,11
 299 39 299 39 257.5 13.5 c 128,-1,12
 216 -12 216 -12 171 -12 c 0,13,14
 109 -12 109 -12 82.5 20.5 c 128,-1,15
 56 53 56 53 56 109 c 0,16,17
 56 126 56 126 57.5 141 c 128,-1,18
 59 156 59 156 64 176 c 2,19,-1
 126 486 l 1,20,-1
 203 486 l 1,21,-1
 142 186 l 2,22,23
 138 166 138 166 136 154 c 128,-1,24
 134 142 134 142 134 129 c 0,25,26
 134 92 134 92 151 73 c 128,-1,27
 168 54 168 54 206 54 c 0,28,29
 235 54 235 54 270 75 c 128,-1,30
 305 96 305 96 350 142 c 1,31,-1
 419 486 l 1,32,-1
 495 486 l 1,33,-1
 398 0 l 1,34,35
 347 -23 347 -23 317.5 -54 c 128,-1,36
 288 -85 288 -85 288 -118 c 0,37,38
 288 -135 288 -135 298.5 -145 c 128,-1,39
 309 -155 309 -155 325 -155 c 0,40,41
 344 -155 344 -155 362 -143 c 1,42,-1
 378 -181 l 1,43,44
 361 -192 361 -192 340 -199 c 128,-1,45
 319 -206 319 -206 302 -206 c 0,0,1
EndSplineSet
Validated: 1
Ligature2: "'ccmp' Glyph Composition/Decomposition in Latin lookup 6 subtable" u uni0328
EndChar

StartChar: uhorn
Encoding: 432 432 381
Width: 543
GlyphClass: 2
Flags: W
AnchorPoint: "Anchor-3" 244 -25 basechar 0
AnchorPoint: "Anchor-0" 317 509 basechar 0
LayerCount: 2
Fore
SplineSet
339 74 m 1,0,1
 299 39 299 39 257.5 13.5 c 128,-1,2
 216 -12 216 -12 171 -12 c 0,3,4
 109 -12 109 -12 82.5 20.5 c 128,-1,5
 56 53 56 53 56 109 c 0,6,7
 56 126 56 126 57.5 141 c 128,-1,8
 59 156 59 156 64 176 c 2,9,-1
 126 486 l 1,10,-1
 203 486 l 1,11,-1
 142 186 l 2,12,13
 138 166 138 166 136 154 c 128,-1,14
 134 142 134 142 134 129 c 0,15,16
 134 92 134 92 151 73 c 128,-1,17
 168 54 168 54 206 54 c 0,18,19
 235 54 235 54 270 75 c 128,-1,20
 305 96 305 96 350 142 c 1,21,-1
 419 486 l 1,22,-1
 446 486 l 1,23,24
 482 490 482 490 509 516 c 128,-1,25
 536 542 536 542 538 587 c 0,26,27
 539 596 539 596 537 608.5 c 128,-1,28
 535 621 535 621 531 632 c 1,29,-1
 592 654 l 1,30,31
 597 639 597 639 600 623 c 128,-1,32
 603 607 603 607 603 593 c 0,33,34
 603 563 603 563 593 539.5 c 128,-1,35
 583 516 583 516 566.5 498.5 c 128,-1,36
 550 481 550 481 529.5 469.5 c 128,-1,37
 509 458 509 458 488 452 c 1,38,-1
 398 0 l 1,39,-1
 335 0 l 1,40,-1
 343 74 l 1,41,-1
 339 74 l 1,0,1
EndSplineSet
Validated: 1
EndChar

StartChar: eth
Encoding: 240 240 403
Width: 524
Flags: W
LayerCount: 2
Fore
SplineSet
216 -12 m 0,0,1
 179 -12 179 -12 147.5 2 c 128,-1,2
 116 16 116 16 92.5 40.5 c 128,-1,3
 69 65 69 65 56 98.5 c 128,-1,4
 43 132 43 132 43 172 c 0,5,6
 43 224 43 224 59 273.5 c 128,-1,7
 75 323 75 323 105 361.5 c 128,-1,8
 135 400 135 400 177.5 423.5 c 128,-1,9
 220 447 220 447 274 447 c 0,10,11
 310 447 310 447 341.5 428 c 128,-1,12
 373 409 373 409 395 376 c 1,13,14
 391 436 391 436 376 483 c 128,-1,15
 361 530 361 530 334 569 c 1,16,-1
 187 508 l 1,17,-1
 171 549 l 1,18,-1
 306 605 l 1,19,20
 269 647 269 647 211 684 c 1,21,-1
 247 730 l 1,22,23
 282 710 282 710 312.5 685 c 128,-1,24
 343 660 343 660 369 631 c 1,25,-1
 514 691 l 1,26,-1
 530 650 l 1,27,-1
 397 595 l 1,28,29
 431 545 431 545 450 484 c 128,-1,30
 469 423 469 423 469 347 c 0,31,32
 469 276 469 276 452 211 c 128,-1,33
 435 146 435 146 402.5 96.5 c 128,-1,34
 370 47 370 47 323 17.5 c 128,-1,35
 276 -12 276 -12 216 -12 c 0,0,1
225 52 m 0,36,37
 261 52 261 52 291 72.5 c 128,-1,38
 321 93 321 93 343 128 c 128,-1,39
 365 163 365 163 378.5 209.5 c 128,-1,40
 392 256 392 256 395 309 c 1,41,42
 375 339 375 339 347.5 362.5 c 128,-1,43
 320 386 320 386 281 386 c 256,44,45
 242 386 242 386 211 368 c 128,-1,46
 180 350 180 350 158.5 321 c 128,-1,47
 137 292 137 292 125 255 c 128,-1,48
 113 218 113 218 113 179 c 0,49,50
 113 153 113 153 120.5 130 c 128,-1,51
 128 107 128 107 142 89.5 c 128,-1,52
 156 72 156 72 177 62 c 128,-1,53
 198 52 198 52 225 52 c 0,36,37
EndSplineSet
Validated: 1
EndChar

StartChar: thorn
Encoding: 254 254 404
Width: 535
GlyphClass: 2
Flags: W
AnchorPoint: "Anchor-3" 233 -22 basechar 0
AnchorPoint: "Anchor-0" 219 730 basechar 0
LayerCount: 2
Fore
SplineSet
-10 -205 m 1,0,-1
 173 712 l 1,1,-1
 250 712 l 1,2,-1
 211 522 l 1,3,-1
 189 426 l 1,4,-1
 191 426 l 1,5,6
 227 455 227 455 269 476.5 c 128,-1,7
 311 498 311 498 356 498 c 0,8,9
 420 498 420 498 458 452.5 c 128,-1,10
 496 407 496 407 496 322 c 0,11,12
 496 252 496 252 474 191 c 128,-1,13
 452 130 452 130 415.5 85 c 128,-1,14
 379 40 379 40 331.5 14 c 128,-1,15
 284 -12 284 -12 234 -12 c 0,16,17
 196 -12 196 -12 166.5 7.5 c 128,-1,18
 137 27 137 27 117 58 c 1,19,-1
 115 58 l 1,20,-1
 97 -46 l 1,21,-1
 66 -205 l 1,22,-1
 -10 -205 l 1,0,-1
231 52 m 0,23,24
 267 52 267 52 301 73.5 c 128,-1,25
 335 95 335 95 360.5 131 c 128,-1,26
 386 167 386 167 401.5 213.5 c 128,-1,27
 417 260 417 260 417 311 c 0,28,29
 417 373 417 373 393.5 403.5 c 128,-1,30
 370 434 370 434 328 434 c 0,31,32
 294 434 294 434 253.5 413 c 128,-1,33
 213 392 213 392 178 355 c 1,34,-1
 132 122 l 1,35,36
 152 84 152 84 177 68 c 128,-1,37
 202 52 202 52 231 52 c 0,23,24
EndSplineSet
Validated: 1
EndChar

StartChar: uni0237
Encoding: 567 567 405
Width: 238
GlyphClass: 2
Flags: W
AnchorPoint: "Anchor-0" 174 509 basechar 0
LayerCount: 2
Fore
SplineSet
-49 -217 m 0,0,1
 -72 -217 -72 -217 -89.5 -212 c 128,-1,2
 -107 -207 -107 -207 -124 -198 c 1,3,-1
 -99 -141 l 1,4,5
 -89 -147 -89 -147 -79 -150.5 c 128,-1,6
 -69 -154 -69 -154 -53 -154 c 0,7,8
 -25 -154 -25 -154 -8.5 -130 c 128,-1,9
 8 -106 8 -106 18 -62 c 2,10,-1
 129 486 l 1,11,-1
 206 486 l 1,12,-1
 95 -61 l 2,13,14
 81 -131 81 -131 47.5 -174 c 128,-1,15
 14 -217 14 -217 -49 -217 c 0,0,1
EndSplineSet
Validated: 1
EndChar

StartChar: uni0259
Encoding: 601 601 407
Width: 478
Flags: W
LayerCount: 2
Fore
SplineSet
438 295 m 0,0,1
 438 226 438 226 415 169.5 c 128,-1,2
 392 113 392 113 355 72.5 c 128,-1,3
 318 32 318 32 271.5 10 c 128,-1,4
 225 -12 225 -12 178 -12 c 0,5,6
 137 -12 137 -12 108.5 1.5 c 128,-1,7
 80 15 80 15 62 38.5 c 128,-1,8
 44 62 44 62 36 94 c 128,-1,9
 28 126 28 126 28 164 c 0,10,11
 28 192 28 192 33.5 218.5 c 128,-1,12
 39 245 39 245 47 265 c 1,13,-1
 362 265 l 1,14,15
 371 346 371 346 340 392 c 128,-1,16
 309 438 309 438 250 438 c 0,17,18
 220 438 220 438 191 427 c 128,-1,19
 162 416 162 416 136 402 c 1,20,-1
 112 455 l 1,21,22
 146 472 146 472 183.5 485 c 128,-1,23
 221 498 221 498 266 498 c 0,24,25
 344 498 344 498 391 446.5 c 128,-1,26
 438 395 438 395 438 295 c 0,0,1
187 49 m 0,27,28
 241 49 241 49 287.5 92 c 128,-1,29
 334 135 334 135 354 213 c 1,30,-1
 100 213 l 1,31,32
 96 200 96 200 94.5 185.5 c 128,-1,33
 93 171 93 171 93 157 c 0,34,35
 93 136 93 136 97.5 116.5 c 128,-1,36
 102 97 102 97 113 82 c 128,-1,37
 124 67 124 67 142 58 c 128,-1,38
 160 49 160 49 187 49 c 0,27,28
EndSplineSet
Validated: 33
Substitution2: "'sups' Superscript in Latin lookup 12 subtable" uni0259.sups
Substitution2: "'aalt' Access All Alternates in Latin lookup 0 subtable" uni0259.sups
EndChar

StartChar: f_f
Encoding: 64256 64256 409
Width: 552
GlyphClass: 3
Flags: W
LayerCount: 2
Fore
SplineSet
313 0 m 1,0,-1
 398 424 l 1,1,-1
 205 424 l 1,2,-1
 119 0 l 1,3,-1
 43 0 l 1,4,-1
 128 424 l 1,5,-1
 65 424 l 1,6,-1
 76 481 l 1,7,-1
 141 486 l 1,8,-1
 155 557 l 2,9,10
 171 631 171 631 211.5 672.5 c 128,-1,11
 252 714 252 714 315 714 c 0,12,13
 344 714 344 714 366 707.5 c 128,-1,14
 388 701 388 701 408 691 c 1,15,-1
 381 635 l 1,16,17
 369 642 369 642 355 647 c 128,-1,18
 341 652 341 652 321 652 c 0,19,20
 286 652 286 652 263 627 c 128,-1,21
 240 602 240 602 232 559 c 2,22,-1
 217 486 l 1,23,-1
 411 486 l 1,24,-1
 427 567 l 2,25,26
 442 641 442 641 481 682.5 c 128,-1,27
 520 724 520 724 581 724 c 0,28,29
 607 724 607 724 627.5 717.5 c 128,-1,30
 648 711 648 711 668 701 c 1,31,-1
 640 645 l 1,32,33
 630 652 630 652 617 657 c 128,-1,34
 604 662 604 662 587 662 c 0,35,36
 554 662 554 662 533 637 c 128,-1,37
 512 612 512 612 504 569 c 2,38,-1
 487 486 l 1,39,-1
 586 486 l 1,40,-1
 573 424 l 1,41,-1
 475 424 l 1,42,-1
 390 0 l 1,43,-1
 313 0 l 1,0,-1
EndSplineSet
Validated: 1
Ligature2: "'liga' Standard Ligatures in Latin lookup 24 subtable" f f
EndChar

StartChar: f_t
Encoding: 65540 -1 410
Width: 561
GlyphClass: 3
Flags: W
LayerCount: 2
Fore
SplineSet
43 0 m 1,0,-1
 128 424 l 1,1,-1
 65 424 l 1,2,-1
 76 481 l 1,3,-1
 141 486 l 1,4,-1
 157 567 l 2,5,6
 172 641 172 641 210.5 682.5 c 128,-1,7
 249 724 249 724 311 724 c 0,8,9
 337 724 337 724 357.5 717.5 c 128,-1,10
 378 711 378 711 397 701 c 1,11,-1
 370 645 l 1,12,13
 359 652 359 652 346 657 c 128,-1,14
 333 662 333 662 316 662 c 0,15,16
 283 662 283 662 262.5 637 c 128,-1,17
 242 612 242 612 234 569 c 2,18,-1
 217 486 l 1,19,-1
 384 486 l 1,20,-1
 420 620 l 1,21,-1
 485 620 l 1,22,-1
 458 486 l 1,23,-1
 581 486 l 1,24,-1
 569 424 l 1,25,-1
 444 424 l 1,26,-1
 387 146 l 2,27,28
 384 128 384 128 384 110 c 0,29,30
 384 80 384 80 397.5 65 c 128,-1,31
 411 50 411 50 446 50 c 0,32,33
 460 50 460 50 473 55 c 128,-1,34
 486 60 486 60 497 65 c 1,35,-1
 513 10 l 1,36,37
 497 2 497 2 474 -5 c 128,-1,38
 451 -12 451 -12 422 -12 c 0,39,40
 390 -12 390 -12 368 -3.5 c 128,-1,41
 346 5 346 5 332 19.5 c 128,-1,42
 318 34 318 34 312 53.5 c 128,-1,43
 306 73 306 73 306 96 c 0,44,45
 306 111 306 111 307 123.5 c 128,-1,46
 308 136 308 136 311 150 c 2,47,-1
 368 424 l 1,48,-1
 205 424 l 1,49,-1
 119 0 l 1,50,-1
 43 0 l 1,0,-1
EndSplineSet
Validated: 1
Ligature2: "'liga' Standard Ligatures in Latin lookup 24 subtable" f t
EndChar

StartChar: I.a
Encoding: 65541 -1 411
Width: 252
GlyphClass: 2
Flags: W
LayerCount: 2
Fore
SplineSet
35 0 m 1,0,-1
 166 656 l 1,1,-1
 244 656 l 1,2,-1
 113 0 l 1,3,-1
 35 0 l 1,0,-1
EndSplineSet
Validated: 1
EndChar

StartChar: Iogonek.a
Encoding: 65552 -1 422
Width: 252
GlyphClass: 2
Flags: W
AnchorPoint: "Anchor-1" 209 682 basechar 0
LayerCount: 2
Fore
SplineSet
37 -211 m 0,0,1
 4 -211 4 -211 -17.5 -193.5 c 128,-1,2
 -39 -176 -39 -176 -39 -142 c 0,3,4
 -39 -120 -39 -120 -30 -99 c 128,-1,5
 -21 -78 -21 -78 -7.5 -59 c 128,-1,6
 6 -40 6 -40 21.5 -25 c 128,-1,7
 37 -10 37 -10 50 0 c 1,8,-1
 35 0 l 1,9,-1
 166 656 l 1,10,-1
 244 656 l 1,11,-1
 113 0 l 1,12,13
 75 -23 75 -23 50.5 -56.5 c 128,-1,14
 26 -90 26 -90 26 -119 c 0,15,16
 26 -137 26 -137 36.5 -147 c 128,-1,17
 47 -157 47 -157 62 -157 c 0,18,19
 80 -157 80 -157 97 -146 c 1,20,-1
 115 -186 l 1,21,22
 99 -197 99 -197 76.5 -204 c 128,-1,23
 54 -211 54 -211 37 -211 c 0,0,1
EndSplineSet
EndChar

StartChar: a.a
Encoding: 65553 -1 423
Width: 492
GlyphClass: 2
Flags: W
AnchorPoint: "Anchor-5" 307 0 basechar 0
AnchorPoint: "Anchor-3" 207 -22 basechar 0
AnchorPoint: "Anchor-0" 300 509 basechar 0
LayerCount: 2
Fore
SplineSet
32 106 m 0,0,1
 32 158 32 158 55.5 194 c 128,-1,2
 79 230 79 230 122 253.5 c 128,-1,3
 165 277 165 277 224 288 c 128,-1,4
 283 299 283 299 355 301 c 1,5,6
 359 315 359 315 360 325 c 128,-1,7
 361 335 361 335 361 346 c 0,8,9
 361 396 361 396 339.5 416 c 128,-1,10
 318 436 318 436 273 436 c 0,11,12
 240 436 240 436 206.5 424 c 128,-1,13
 173 412 173 412 138 392 c 1,14,-1
 113 448 l 1,15,16
 151 469 151 469 196.5 483.5 c 128,-1,17
 242 498 242 498 287 498 c 0,18,19
 358 498 358 498 397.5 464.5 c 128,-1,20
 437 431 437 431 437 353 c 0,21,22
 437 338 437 338 435 320 c 128,-1,23
 433 302 433 302 429 286 c 2,24,-1
 372 0 l 1,25,-1
 310 0 l 1,26,-1
 314 57 l 1,27,-1
 311 57 l 1,28,29
 279 28 279 28 237 8 c 128,-1,30
 195 -12 195 -12 153 -12 c 0,31,32
 129 -12 129 -12 107 -4.5 c 128,-1,33
 85 3 85 3 68.5 18 c 128,-1,34
 52 33 52 33 42 55 c 128,-1,35
 32 77 32 77 32 106 c 0,0,1
346 250 m 1,36,37
 232 247 232 247 169.5 215 c 128,-1,38
 107 183 107 183 107 122 c 0,39,40
 107 84 107 84 129 66.5 c 128,-1,41
 151 49 151 49 185 49 c 0,42,43
 244 49 244 49 319 115 c 1,44,-1
 346 250 l 1,36,37
EndSplineSet
Validated: 1
EndChar

StartChar: aogonek.a
Encoding: 65575 -1 445
Width: 492
GlyphClass: 2
Flags: W
AnchorPoint: "Anchor-0" 300 509 basechar 0
LayerCount: 2
Fore
SplineSet
311 6 m 1,0,-1
 314 57 l 1,1,-1
 311 57 l 1,2,3
 279 28 279 28 237 8 c 128,-1,4
 195 -12 195 -12 153 -12 c 0,5,6
 129 -12 129 -12 107 -4.5 c 128,-1,7
 85 3 85 3 68.5 18 c 128,-1,8
 52 33 52 33 42 55 c 128,-1,9
 32 77 32 77 32 106 c 0,10,11
 32 158 32 158 55.5 194 c 128,-1,12
 79 230 79 230 122 253.5 c 128,-1,13
 165 277 165 277 224 288 c 128,-1,14
 283 299 283 299 355 301 c 1,15,16
 359 315 359 315 360 325 c 128,-1,17
 361 335 361 335 361 346 c 0,18,19
 361 396 361 396 339.5 416 c 128,-1,20
 318 436 318 436 273 436 c 0,21,22
 240 436 240 436 206.5 424 c 128,-1,23
 173 412 173 412 138 392 c 1,24,-1
 113 448 l 1,25,26
 151 469 151 469 196.5 483.5 c 128,-1,27
 242 498 242 498 287 498 c 0,28,29
 358 498 358 498 397.5 464.5 c 128,-1,30
 437 431 437 431 437 353 c 0,31,32
 437 338 437 338 435 320 c 128,-1,33
 433 302 433 302 429 286 c 2,34,-1
 372 0 l 1,35,36
 321 -23 321 -23 291.5 -54 c 128,-1,37
 262 -85 262 -85 262 -118 c 0,38,39
 262 -135 262 -135 272.5 -145 c 128,-1,40
 283 -155 283 -155 298 -155 c 0,41,42
 318 -155 318 -155 336 -143 c 1,43,-1
 352 -181 l 1,44,45
 335 -192 335 -192 314 -199 c 128,-1,46
 293 -206 293 -206 276 -206 c 0,47,48
 244 -206 244 -206 222.5 -189 c 128,-1,49
 201 -172 201 -172 201 -139 c 0,50,51
 201 -117 201 -117 211 -95.5 c 128,-1,52
 221 -74 221 -74 236.5 -55 c 128,-1,53
 252 -36 252 -36 271.5 -20.5 c 128,-1,54
 291 -5 291 -5 311 6 c 1,0,-1
346 250 m 1,55,56
 232 247 232 247 169.5 215 c 128,-1,57
 107 183 107 183 107 122 c 0,58,59
 107 84 107 84 129 66.5 c 128,-1,60
 151 49 151 49 185 49 c 0,61,62
 244 49 244 49 319 115 c 1,63,-1
 346 250 l 1,55,56
EndSplineSet
Validated: 1
EndChar

StartChar: g.a
Encoding: 65576 -1 446
Width: 477
GlyphClass: 2
Flags: W
AnchorPoint: "Anchor-3" 157 -230 basechar 0
AnchorPoint: "Anchor-0" 283 509 basechar 0
LayerCount: 2
Fore
SplineSet
163 -224 m 0,0,1
 133 -224 133 -224 101.5 -218 c 128,-1,2
 70 -212 70 -212 44 -198.5 c 128,-1,3
 18 -185 18 -185 1.5 -162.5 c 128,-1,4
 -15 -140 -15 -140 -15 -107 c 0,5,6
 -15 -83 -15 -83 -4.5 -63 c 128,-1,7
 6 -43 6 -43 23 -26.5 c 128,-1,8
 40 -10 40 -10 61 2.5 c 128,-1,9
 82 15 82 15 102 25 c 1,10,-1
 102 27 l 1,11,12
 88 38 88 38 79.5 55 c 128,-1,13
 71 72 71 72 71 92 c 0,14,15
 71 117 71 117 86.5 140 c 128,-1,16
 102 163 102 163 129 182 c 1,17,-1
 129 186 l 1,18,19
 107 205 107 205 93 232 c 128,-1,20
 79 259 79 259 79 293 c 0,21,22
 79 337 79 337 94.5 374.5 c 128,-1,23
 110 412 110 412 137 439.5 c 128,-1,24
 164 467 164 467 201 482.5 c 128,-1,25
 238 498 238 498 281 498 c 0,26,27
 299 498 299 498 312.5 495 c 128,-1,28
 326 492 326 492 340 486 c 1,29,-1
 506 486 l 1,30,-1
 494 426 l 1,31,-1
 398 426 l 1,32,33
 409 411 409 411 415.5 392 c 128,-1,34
 422 373 422 373 422 355 c 0,35,36
 422 311 422 311 407 274.5 c 128,-1,37
 392 238 392 238 365 211 c 128,-1,38
 338 184 338 184 301 169 c 128,-1,39
 264 154 264 154 220 154 c 0,40,41
 191 154 191 154 170 163 c 1,42,43
 157 154 157 154 147 139.5 c 128,-1,44
 137 125 137 125 137 108 c 0,45,46
 137 83 137 83 156 71 c 128,-1,47
 175 59 175 59 230 53 c 0,48,49
 277 47 277 47 309.5 38 c 128,-1,50
 342 29 342 29 361.5 15.5 c 128,-1,51
 381 2 381 2 389.5 -16 c 128,-1,52
 398 -34 398 -34 398 -58 c 0,53,54
 398 -99 398 -99 378 -130 c 128,-1,55
 358 -161 358 -161 325 -182 c 128,-1,56
 292 -203 292 -203 250 -213.5 c 128,-1,57
 208 -224 208 -224 163 -224 c 0,0,1
228 206 m 0,58,59
 255 206 255 206 278 218 c 128,-1,60
 301 230 301 230 318 250.5 c 128,-1,61
 335 271 335 271 344.5 297 c 128,-1,62
 354 323 354 323 354 350 c 0,63,64
 354 392 354 392 333.5 417 c 128,-1,65
 313 442 313 442 277 442 c 0,66,67
 250 442 250 442 226.5 430 c 128,-1,68
 203 418 203 418 186 397.5 c 128,-1,69
 169 377 169 377 159.5 351 c 128,-1,70
 150 325 150 325 150 298 c 0,71,72
 150 256 150 256 171 231 c 128,-1,73
 192 206 192 206 228 206 c 0,58,59
170 -171 m 0,74,75
 203 -171 203 -171 230.5 -164 c 128,-1,76
 258 -157 258 -157 278.5 -144 c 128,-1,77
 299 -131 299 -131 310.5 -114 c 128,-1,78
 322 -97 322 -97 322 -77 c 0,79,80
 322 -45 322 -45 292.5 -30 c 128,-1,81
 263 -15 263 -15 203 -8 c 0,82,83
 191 -6 191 -6 175.5 -3.5 c 128,-1,84
 160 -1 160 -1 144 3 c 1,85,86
 129 -4 129 -4 113 -14 c 128,-1,87
 97 -24 97 -24 83.5 -36.5 c 128,-1,88
 70 -49 70 -49 61.5 -63.5 c 128,-1,89
 53 -78 53 -78 53 -93 c 0,90,91
 53 -134 53 -134 86.5 -152.5 c 128,-1,92
 120 -171 120 -171 170 -171 c 0,74,75
EndSplineSet
Validated: 1
EndChar

StartChar: l.a
Encoding: 65584 -1 454
Width: 238
GlyphClass: 2
Flags: W
AnchorPoint: "Anchor-3" 71 -22 basechar 0
AnchorPoint: "Anchor-0" 219 730 basechar 0
LayerCount: 2
Fore
SplineSet
31 0 m 1,0,-1
 173 712 l 1,1,-1
 250 712 l 1,2,-1
 107 0 l 1,3,-1
 31 0 l 1,0,-1
EndSplineSet
Validated: 1
EndChar

StartChar: lslash.a
Encoding: 65592 -1 462
Width: 246
Flags: W
LayerCount: 2
Fore
SplineSet
44 303 m 1,0,-1
 25 351 l 1,1,-1
 115 401 l 1,2,-1
 177 712 l 1,3,-1
 254 712 l 1,4,-1
 200 441 l 1,5,-1
 266 481 l 1,6,-1
 286 433 l 1,7,-1
 186 375 l 1,8,-1
 111 0 l 1,9,-1
 35 0 l 1,10,-1
 102 337 l 1,11,-1
 44 303 l 1,0,-1
EndSplineSet
Validated: 1
EndChar

StartChar: ampersand
Encoding: 38 38 463
Width: 582
Flags: W
LayerCount: 2
Fore
SplineSet
180 -12 m 0,0,1
 105 -12 105 -12 60 29.5 c 128,-1,2
 15 71 15 71 15 141 c 0,3,4
 15 181 15 181 29 213.5 c 128,-1,5
 43 246 43 246 66 273 c 128,-1,6
 89 300 89 300 119 321.5 c 128,-1,7
 149 343 149 343 181 363 c 1,8,9
 163 421 163 421 163 476 c 0,10,11
 163 518 163 518 177 553 c 128,-1,12
 191 588 191 588 214.5 613.5 c 128,-1,13
 238 639 238 639 269 653.5 c 128,-1,14
 300 668 300 668 335 668 c 0,15,16
 389 668 389 668 416 637.5 c 128,-1,17
 443 607 443 607 443 561 c 0,18,19
 443 523 443 523 427 492 c 128,-1,20
 411 461 411 461 385 434.5 c 128,-1,21
 359 408 359 408 326 385.5 c 128,-1,22
 293 363 293 363 259 342 c 1,23,24
 280 289 280 289 312 240 c 128,-1,25
 344 191 344 191 382 151 c 1,26,27
 423 194 423 194 453.5 244 c 128,-1,28
 484 294 484 294 510 352 c 1,29,-1
 580 352 l 1,30,31
 549 286 549 286 511 224.5 c 128,-1,32
 473 163 473 163 425 111 c 1,33,34
 480 67 480 67 527 50 c 1,35,-1
 495 -12 l 1,36,37
 434 8 434 8 372 61 c 1,38,39
 330 27 330 27 282 7.5 c 128,-1,40
 234 -12 234 -12 180 -12 c 0,0,1
229 480 m 0,41,42
 229 442 229 442 240 398 c 1,43,44
 268 415 268 415 293.5 432 c 128,-1,45
 319 449 319 449 338 468 c 128,-1,46
 357 487 357 487 368.5 509 c 128,-1,47
 380 531 380 531 380 558 c 0,48,49
 380 581 380 581 368 597.5 c 128,-1,50
 356 614 356 614 330 614 c 0,51,52
 309 614 309 614 290.5 604 c 128,-1,53
 272 594 272 594 258.5 576 c 128,-1,54
 245 558 245 558 237 533.5 c 128,-1,55
 229 509 229 509 229 480 c 0,41,42
194 49 m 0,56,57
 229 49 229 49 263.5 63 c 128,-1,58
 298 77 298 77 330 102 c 1,59,60
 291 145 291 145 258 196.5 c 128,-1,61
 225 248 225 248 202 304 c 1,62,63
 155 272 155 272 123 236 c 128,-1,64
 91 200 91 200 91 151 c 0,65,66
 91 105 91 105 119.5 77 c 128,-1,67
 148 49 148 49 194 49 c 0,56,57
EndSplineSet
Validated: 1
EndChar

StartChar: zero
Encoding: 48 48 464
Width: 480
Flags: W
LayerCount: 2
Fore
SplineSet
200 -12 m 0,0,1
 162 -12 162 -12 132.5 4.5 c 128,-1,2
 103 21 103 21 83 50 c 128,-1,3
 63 79 63 79 52.5 118.5 c 128,-1,4
 42 158 42 158 42 205 c 0,5,6
 42 294 42 294 63.5 375 c 128,-1,7
 85 456 85 456 121 517 c 128,-1,8
 157 578 157 578 205 614 c 128,-1,9
 253 650 253 650 306 650 c 0,10,11
 343 650 343 650 372.5 633 c 128,-1,12
 402 616 402 616 421.5 587 c 128,-1,13
 441 558 441 558 451.5 517.5 c 128,-1,14
 462 477 462 477 462 431 c 0,15,16
 462 341 462 341 441 261 c 128,-1,17
 420 181 420 181 384 120 c 128,-1,18
 348 59 348 59 300.5 23.5 c 128,-1,19
 253 -12 253 -12 200 -12 c 0,0,1
204 49 m 0,20,21
 243 49 243 49 277 83.5 c 128,-1,22
 311 118 311 118 336.5 173.5 c 128,-1,23
 362 229 362 229 376.5 297.5 c 128,-1,24
 391 366 391 366 391 434 c 0,25,26
 391 501 391 501 369 544.5 c 128,-1,27
 347 588 347 588 301 588 c 0,28,29
 262 588 262 588 228 553 c 128,-1,30
 194 518 194 518 168.5 462.5 c 128,-1,31
 143 407 143 407 128.5 338 c 128,-1,32
 114 269 114 269 114 202 c 0,33,34
 114 169 114 169 119.5 141 c 128,-1,35
 125 113 125 113 136 92.5 c 128,-1,36
 147 72 147 72 164 60.5 c 128,-1,37
 181 49 181 49 204 49 c 0,20,21
EndSplineSet
Validated: 1
Substitution2: "'zero' Slashed Zero in Latin lookup 18 subtable" zero.0
Substitution2: "'ss05' Style Set 5 in Latin lookup 17 subtable" zero.0s
Substitution2: "'onum' Oldstyle Figures in Latin lookup 16 subtable" zero.tnum
Substitution2: "'pnum' Proportional Numbers in Latin lookup 15 subtable" zero.pnum
Substitution2: "'subs' Subscript in Latin lookup 14 subtable" zero.subs
Substitution2: "'sups' Superscript in Latin lookup 13 subtable" zero.sups
Substitution2: "'dnom' Denominators in Latin lookup 9 subtable" zero.dnom
Substitution2: "'numr' Numerators in Latin lookup 8 subtable" zero.numr
AlternateSubs2: "'aalt' Access All Alternates in Latin lookup 1 subtable" zero.numr zero.dnom zero.sups zero.subs zero.pnum zero.tnum
EndChar

StartChar: one
Encoding: 49 49 465
Width: 480
Flags: W
LayerCount: 2
Fore
SplineSet
26 0 m 1,0,-1
 39 64 l 1,1,-1
 178 64 l 1,2,-1
 274 542 l 1,3,-1
 161 542 l 1,4,-1
 171 592 l 1,5,6
 256 604 256 604 311 638 c 1,7,-1
 370 638 l 1,8,-1
 254 64 l 1,9,-1
 384 64 l 1,10,-1
 372 0 l 1,11,-1
 26 0 l 1,0,-1
EndSplineSet
Validated: 1
Substitution2: "'onum' Oldstyle Figures in Latin lookup 16 subtable" one.tnum
Substitution2: "'pnum' Proportional Numbers in Latin lookup 15 subtable" one.pnum
Substitution2: "'subs' Subscript in Latin lookup 14 subtable" one.subs
Substitution2: "'sups' Superscript in Latin lookup 13 subtable" one.sups
Substitution2: "'dnom' Denominators in Latin lookup 9 subtable" one.dnom
Substitution2: "'numr' Numerators in Latin lookup 8 subtable" one.numr
AlternateSubs2: "'aalt' Access All Alternates in Latin lookup 1 subtable" one.numr one.dnom one.sups one.subs one.pnum one.tnum
EndChar

StartChar: two
Encoding: 50 50 466
Width: 480
Flags: W
LayerCount: 2
Fore
SplineSet
-10 0 m 1,0,-1
 -2 46 l 1,1,2
 94 127 94 127 165 188 c 128,-1,3
 236 249 236 249 283 299 c 128,-1,4
 330 349 330 349 353.5 392.5 c 128,-1,5
 377 436 377 436 377 483 c 0,6,7
 377 527 377 527 351.5 557 c 128,-1,8
 326 587 326 587 273 587 c 0,9,10
 241 587 241 587 208.5 570.5 c 128,-1,11
 176 554 176 554 142 523 c 1,12,-1
 103 571 l 1,13,14
 147 609 147 609 190.5 629.5 c 128,-1,15
 234 650 234 650 282 650 c 0,16,17
 323 650 323 650 354.5 638.5 c 128,-1,18
 386 627 386 627 408 606 c 128,-1,19
 430 585 430 585 441 556 c 128,-1,20
 452 527 452 527 452 493 c 0,21,22
 452 440 452 440 431 393.5 c 128,-1,23
 410 347 410 347 369 298 c 128,-1,24
 328 249 328 249 265.5 193.5 c 128,-1,25
 203 138 203 138 121 66 c 1,26,-1
 397 66 l 1,27,-1
 385 0 l 1,28,-1
 -10 0 l 1,0,-1
EndSplineSet
Validated: 1
Substitution2: "'onum' Oldstyle Figures in Latin lookup 16 subtable" two.tnum
Substitution2: "'pnum' Proportional Numbers in Latin lookup 15 subtable" two.pnum
Substitution2: "'subs' Subscript in Latin lookup 14 subtable" two.subs
Substitution2: "'sups' Superscript in Latin lookup 13 subtable" two.sups
Substitution2: "'dnom' Denominators in Latin lookup 9 subtable" two.dnom
Substitution2: "'numr' Numerators in Latin lookup 8 subtable" two.numr
AlternateSubs2: "'aalt' Access All Alternates in Latin lookup 1 subtable" two.numr two.dnom two.sups two.subs two.pnum two.tnum
EndChar

StartChar: three
Encoding: 51 51 467
Width: 480
Flags: W
LayerCount: 2
Fore
SplineSet
187 -12 m 0,0,1
 121 -12 121 -12 71 20.5 c 128,-1,2
 21 53 21 53 -9 98 c 1,3,-1
 42 138 l 1,4,5
 65 104 65 104 101.5 78 c 128,-1,6
 138 52 138 52 188 52 c 0,7,8
 222 52 222 52 250.5 62 c 128,-1,9
 279 72 279 72 299.5 89.5 c 128,-1,10
 320 107 320 107 331.5 131 c 128,-1,11
 343 155 343 155 343 184 c 0,12,13
 343 209 343 209 333 230.5 c 128,-1,14
 323 252 323 252 301 268 c 128,-1,15
 279 284 279 284 244 292.5 c 128,-1,16
 209 301 209 301 158 301 c 1,17,-1
 170 359 l 1,18,19
 229 359 229 359 269 371 c 128,-1,20
 309 383 309 383 333.5 402 c 128,-1,21
 358 421 358 421 368.5 444.5 c 128,-1,22
 379 468 379 468 379 491 c 0,23,24
 379 533 379 533 354 560 c 128,-1,25
 329 587 329 587 278 587 c 0,26,27
 249 587 249 587 215.5 573 c 128,-1,28
 182 559 182 559 153 536 c 1,29,-1
 114 587 l 1,30,31
 197 650 197 650 290 650 c 0,32,33
 371 650 371 650 414 610 c 128,-1,34
 457 570 457 570 457 504 c 0,35,36
 457 443 457 443 420 397 c 128,-1,37
 383 351 383 351 308 330 c 1,38,-1
 308 326 l 1,39,40
 361 309 361 309 390.5 273 c 128,-1,41
 420 237 420 237 420 187 c 0,42,43
 420 141 420 141 402.5 104.5 c 128,-1,44
 385 68 385 68 354 42 c 128,-1,45
 323 16 323 16 280 2 c 128,-1,46
 237 -12 237 -12 187 -12 c 0,0,1
EndSplineSet
Validated: 1
Substitution2: "'onum' Oldstyle Figures in Latin lookup 16 subtable" three.tnum
Substitution2: "'pnum' Proportional Numbers in Latin lookup 15 subtable" three.pnum
Substitution2: "'subs' Subscript in Latin lookup 14 subtable" three.subs
Substitution2: "'sups' Superscript in Latin lookup 13 subtable" three.sups
Substitution2: "'dnom' Denominators in Latin lookup 9 subtable" three.dnom
Substitution2: "'numr' Numerators in Latin lookup 8 subtable" three.numr
AlternateSubs2: "'aalt' Access All Alternates in Latin lookup 1 subtable" three.numr three.dnom three.sups three.subs three.pnum three.tnum
EndChar

StartChar: four
Encoding: 52 52 468
Width: 480
Flags: W
LayerCount: 2
Fore
SplineSet
316 0 m 1,0,-1
 244 0 l 1,1,-1
 280 176 l 1,2,-1
 8 176 l 1,3,-1
 17 228 l 1,4,-1
 359 638 l 1,5,-1
 443 638 l 1,6,-1
 363 238 l 1,7,-1
 447 238 l 1,8,-1
 434 176 l 1,9,-1
 351 176 l 1,10,-1
 316 0 l 1,0,-1
102 238 m 1,11,-1
 292 238 l 1,12,-1
 329 427 l 2,13,14
 335 456 335 456 343.5 488.5 c 128,-1,15
 352 521 352 521 360 554 c 1,16,-1
 356 554 l 1,17,18
 336 526 336 526 316.5 499.5 c 128,-1,19
 297 473 297 473 279 450 c 2,20,-1
 102 238 l 1,11,-1
EndSplineSet
Validated: 1
Substitution2: "'onum' Oldstyle Figures in Latin lookup 16 subtable" four.tnum
Substitution2: "'pnum' Proportional Numbers in Latin lookup 15 subtable" four.pnum
Substitution2: "'subs' Subscript in Latin lookup 14 subtable" four.subs
Substitution2: "'sups' Superscript in Latin lookup 13 subtable" four.sups
Substitution2: "'dnom' Denominators in Latin lookup 9 subtable" four.dnom
Substitution2: "'numr' Numerators in Latin lookup 8 subtable" four.numr
AlternateSubs2: "'aalt' Access All Alternates in Latin lookup 1 subtable" four.numr four.dnom four.sups four.subs four.pnum four.tnum
EndChar

StartChar: five
Encoding: 53 53 469
Width: 480
Flags: W
LayerCount: 2
Fore
SplineSet
184 -12 m 0,0,1
 118 -12 118 -12 71.5 19.5 c 128,-1,2
 25 51 25 51 -4 96 c 1,3,-1
 46 137 l 1,4,5
 57 120 57 120 70 105 c 128,-1,6
 83 90 83 90 100 78 c 128,-1,7
 117 66 117 66 139 59 c 128,-1,8
 161 52 161 52 189 52 c 0,9,10
 220 52 220 52 248.5 64 c 128,-1,11
 277 76 277 76 299 98.5 c 128,-1,12
 321 121 321 121 334 152 c 128,-1,13
 347 183 347 183 347 222 c 0,14,15
 347 284 347 284 315.5 314 c 128,-1,16
 284 344 284 344 232 344 c 0,17,18
 201 344 201 344 179 336 c 128,-1,19
 157 328 157 328 125 311 c 1,20,-1
 92 337 l 1,21,-1
 172 638 l 1,22,-1
 471 638 l 1,23,-1
 458 572 l 1,24,-1
 225 572 l 1,25,-1
 173 384 l 1,26,27
 190 392 190 392 211 398 c 128,-1,28
 232 404 232 404 257 404 c 0,29,30
 293 404 293 404 323.5 393.5 c 128,-1,31
 354 383 354 383 376.5 362 c 128,-1,32
 399 341 399 341 411.5 309.5 c 128,-1,33
 424 278 424 278 424 236 c 0,34,35
 424 179 424 179 404 133 c 128,-1,36
 384 87 384 87 351 55 c 128,-1,37
 318 23 318 23 274.5 5.5 c 128,-1,38
 231 -12 231 -12 184 -12 c 0,0,1
EndSplineSet
Validated: 1
Substitution2: "'onum' Oldstyle Figures in Latin lookup 16 subtable" five.tnum
Substitution2: "'pnum' Proportional Numbers in Latin lookup 15 subtable" five.pnum
Substitution2: "'subs' Subscript in Latin lookup 14 subtable" five.subs
Substitution2: "'sups' Superscript in Latin lookup 13 subtable" five.sups
Substitution2: "'dnom' Denominators in Latin lookup 9 subtable" five.dnom
Substitution2: "'numr' Numerators in Latin lookup 8 subtable" five.numr
AlternateSubs2: "'aalt' Access All Alternates in Latin lookup 1 subtable" five.numr five.dnom five.sups five.subs five.pnum five.tnum
EndChar

StartChar: six
Encoding: 54 54 470
Width: 480
Flags: W
LayerCount: 2
Fore
SplineSet
228 -12 m 0,0,1
 187 -12 187 -12 154.5 4 c 128,-1,2
 122 20 122 20 99 48.5 c 128,-1,3
 76 77 76 77 63.5 117 c 128,-1,4
 51 157 51 157 51 204 c 0,5,6
 51 301 51 301 73.5 383 c 128,-1,7
 96 465 96 465 136 524.5 c 128,-1,8
 176 584 176 584 230.5 617 c 128,-1,9
 285 650 285 650 349 650 c 0,10,11
 401 650 401 650 434.5 625.5 c 128,-1,12
 468 601 468 601 488 569 c 1,13,-1
 436 528 l 1,14,15
 419 556 419 556 397.5 571 c 128,-1,16
 376 586 376 586 345 586 c 0,17,18
 307 586 307 586 273 566.5 c 128,-1,19
 239 547 239 547 210.5 511.5 c 128,-1,20
 182 476 182 476 161.5 425.5 c 128,-1,21
 141 375 141 375 131 312 c 1,22,23
 164 350 164 350 205 368 c 128,-1,24
 246 386 246 386 279 386 c 0,25,26
 350 386 350 386 392 342 c 128,-1,27
 434 298 434 298 434 220 c 0,28,29
 434 173 434 173 418.5 131 c 128,-1,30
 403 89 403 89 375 57 c 128,-1,31
 347 25 347 25 309.5 6.5 c 128,-1,32
 272 -12 272 -12 228 -12 c 0,0,1
232 48 m 0,33,34
 259 48 259 48 283 62 c 128,-1,35
 307 76 307 76 325 98.5 c 128,-1,36
 343 121 343 121 353 150 c 128,-1,37
 363 179 363 179 363 209 c 0,38,39
 363 264 363 264 337.5 296.5 c 128,-1,40
 312 329 312 329 261 329 c 0,41,42
 237 329 237 329 198 311.5 c 128,-1,43
 159 294 159 294 124 248 c 1,44,45
 123 237 123 237 123 225.5 c 128,-1,46
 123 214 123 214 123 202 c 0,47,48
 123 133 123 133 152 90.5 c 128,-1,49
 181 48 181 48 232 48 c 0,33,34
EndSplineSet
Validated: 1
Substitution2: "'onum' Oldstyle Figures in Latin lookup 16 subtable" six.tnum
Substitution2: "'pnum' Proportional Numbers in Latin lookup 15 subtable" six.pnum
Substitution2: "'subs' Subscript in Latin lookup 14 subtable" six.subs
Substitution2: "'sups' Superscript in Latin lookup 13 subtable" six.sups
Substitution2: "'dnom' Denominators in Latin lookup 9 subtable" six.dnom
Substitution2: "'numr' Numerators in Latin lookup 8 subtable" six.numr
AlternateSubs2: "'aalt' Access All Alternates in Latin lookup 1 subtable" six.numr six.dnom six.sups six.subs six.pnum six.tnum
EndChar

StartChar: seven
Encoding: 55 55 471
Width: 480
Flags: W
LayerCount: 2
Fore
SplineSet
120 0 m 1,0,1
 141 90 141 90 167 167.5 c 128,-1,2
 193 245 193 245 227.5 315 c 128,-1,3
 262 385 262 385 307 448.5 c 128,-1,4
 352 512 352 512 413 572 c 1,5,-1
 107 572 l 1,6,-1
 121 638 l 1,7,-1
 515 638 l 1,8,-1
 505 588 l 1,9,10
 431 518 431 518 380.5 448 c 128,-1,11
 330 378 330 378 295.5 306 c 128,-1,12
 261 234 261 234 239 158 c 128,-1,13
 217 82 217 82 200 0 c 1,14,-1
 120 0 l 1,0,1
EndSplineSet
Validated: 1
Substitution2: "'onum' Oldstyle Figures in Latin lookup 16 subtable" seven.tnum
Substitution2: "'pnum' Proportional Numbers in Latin lookup 15 subtable" seven.pnum
Substitution2: "'subs' Subscript in Latin lookup 14 subtable" seven.subs
Substitution2: "'sups' Superscript in Latin lookup 13 subtable" seven.sups
Substitution2: "'dnom' Denominators in Latin lookup 9 subtable" seven.dnom
Substitution2: "'numr' Numerators in Latin lookup 8 subtable" seven.numr
AlternateSubs2: "'aalt' Access All Alternates in Latin lookup 1 subtable" seven.numr seven.dnom seven.sups seven.subs seven.pnum seven.tnum
EndChar

StartChar: eight
Encoding: 56 56 472
Width: 480
Flags: W
LayerCount: 2
Fore
SplineSet
222 -12 m 0,0,1
 187 -12 187 -12 153.5 -2 c 128,-1,2
 120 8 120 8 94 28.5 c 128,-1,3
 68 49 68 49 51.5 80.5 c 128,-1,4
 35 112 35 112 35 154 c 0,5,6
 35 190 35 190 47.5 220 c 128,-1,7
 60 250 60 250 80.5 273.5 c 128,-1,8
 101 297 101 297 128 315 c 128,-1,9
 155 333 155 333 184 346 c 1,10,-1
 184 350 l 1,11,12
 156 378 156 378 141.5 407.5 c 128,-1,13
 127 437 127 437 127 476 c 0,14,15
 127 517 127 517 142 549 c 128,-1,16
 157 581 157 581 183 603.5 c 128,-1,17
 209 626 209 626 242.5 638 c 128,-1,18
 276 650 276 650 314 650 c 0,19,20
 344 650 344 650 372.5 641 c 128,-1,21
 401 632 401 632 423 613.5 c 128,-1,22
 445 595 445 595 458 567 c 128,-1,23
 471 539 471 539 471 502 c 0,24,25
 471 438 471 438 437 395 c 128,-1,26
 403 352 403 352 349 322 c 1,27,-1
 349 318 l 1,28,29
 363 308 363 308 378.5 294 c 128,-1,30
 394 280 394 280 406.5 262 c 128,-1,31
 419 244 419 244 427 221.5 c 128,-1,32
 435 199 435 199 435 174 c 0,33,34
 435 131 435 131 417.5 96.5 c 128,-1,35
 400 62 400 62 371 38 c 128,-1,36
 342 14 342 14 303.5 1 c 128,-1,37
 265 -12 265 -12 222 -12 c 0,0,1
308 345 m 1,38,39
 326 357 326 357 343.5 372 c 128,-1,40
 361 387 361 387 374.5 405.5 c 128,-1,41
 388 424 388 424 396 445.5 c 128,-1,42
 404 467 404 467 404 492 c 0,43,44
 404 540 404 540 376.5 566 c 128,-1,45
 349 592 349 592 308 592 c 0,46,47
 286 592 286 592 266 584.5 c 128,-1,48
 246 577 246 577 230.5 562.5 c 128,-1,49
 215 548 215 548 206 527 c 128,-1,50
 197 506 197 506 197 480 c 0,51,52
 197 430 197 430 226 400 c 128,-1,53
 255 370 255 370 308 345 c 1,38,39
226 45 m 0,54,55
 252 45 252 45 276.5 53.5 c 128,-1,56
 301 62 301 62 320.5 77.5 c 128,-1,57
 340 93 340 93 351.5 116.5 c 128,-1,58
 363 140 363 140 363 170 c 0,59,60
 363 198 363 198 351.5 219 c 128,-1,61
 340 240 340 240 320 257.5 c 128,-1,62
 300 275 300 275 274 290 c 128,-1,63
 248 305 248 305 220 320 c 1,64,65
 169 292 169 292 137 255 c 128,-1,66
 105 218 105 218 105 162 c 0,67,68
 105 134 105 134 114.5 112.5 c 128,-1,69
 124 91 124 91 140.5 76 c 128,-1,70
 157 61 157 61 179 53 c 128,-1,71
 201 45 201 45 226 45 c 0,54,55
EndSplineSet
Validated: 1
Substitution2: "'onum' Oldstyle Figures in Latin lookup 16 subtable" eight.tnum
Substitution2: "'pnum' Proportional Numbers in Latin lookup 15 subtable" eight.pnum
Substitution2: "'subs' Subscript in Latin lookup 14 subtable" eight.subs
Substitution2: "'sups' Superscript in Latin lookup 13 subtable" eight.sups
Substitution2: "'dnom' Denominators in Latin lookup 9 subtable" eight.dnom
Substitution2: "'numr' Numerators in Latin lookup 8 subtable" eight.numr
AlternateSubs2: "'aalt' Access All Alternates in Latin lookup 1 subtable" eight.numr eight.dnom eight.sups eight.subs eight.pnum eight.tnum
EndChar

StartChar: nine
Encoding: 57 57 473
Width: 480
Flags: W
LayerCount: 2
Fore
SplineSet
245 309 m 0,0,1
 257 309 257 309 273.5 313 c 128,-1,2
 290 317 290 317 308 326.5 c 128,-1,3
 326 336 326 336 345 351.5 c 128,-1,4
 364 367 364 367 382 390 c 1,5,6
 383 401 383 401 383 412.5 c 128,-1,7
 383 424 383 424 383 436 c 0,8,9
 383 505 383 505 354 547.5 c 128,-1,10
 325 590 325 590 274 590 c 0,11,12
 247 590 247 590 223 576 c 128,-1,13
 199 562 199 562 181.5 539.5 c 128,-1,14
 164 517 164 517 154 488 c 128,-1,15
 144 459 144 459 144 429 c 0,16,17
 144 373 144 373 169.5 341 c 128,-1,18
 195 309 195 309 245 309 c 0,0,1
157 -12 m 0,19,20
 105 -12 105 -12 71.5 12.5 c 128,-1,21
 38 37 38 37 18 69 c 1,22,-1
 70 110 l 1,23,24
 87 82 87 82 108.5 67 c 128,-1,25
 130 52 130 52 162 52 c 0,26,27
 199 52 199 52 233 71.5 c 128,-1,28
 267 91 267 91 295 126.5 c 128,-1,29
 323 162 323 162 343.5 212 c 128,-1,30
 364 262 364 262 374 324 c 1,31,32
 341 287 341 287 300.5 269.5 c 128,-1,33
 260 252 260 252 228 252 c 0,34,35
 156 252 156 252 114 296 c 128,-1,36
 72 340 72 340 72 418 c 0,37,38
 72 465 72 465 87.5 507 c 128,-1,39
 103 549 103 549 131 581 c 128,-1,40
 159 613 159 613 196.5 631.5 c 128,-1,41
 234 650 234 650 278 650 c 0,42,43
 319 650 319 650 352 634 c 128,-1,44
 385 618 385 618 408 589.5 c 128,-1,45
 431 561 431 561 443 521 c 128,-1,46
 455 481 455 481 455 434 c 0,47,48
 455 336 455 336 432.5 254.5 c 128,-1,49
 410 173 410 173 370 113.5 c 128,-1,50
 330 54 330 54 275.5 21 c 128,-1,51
 221 -12 221 -12 157 -12 c 0,19,20
EndSplineSet
Validated: 1
Substitution2: "'onum' Oldstyle Figures in Latin lookup 16 subtable" nine.tnum
Substitution2: "'pnum' Proportional Numbers in Latin lookup 15 subtable" nine.pnum
Substitution2: "'subs' Subscript in Latin lookup 14 subtable" nine.subs
Substitution2: "'sups' Superscript in Latin lookup 13 subtable" nine.sups
Substitution2: "'dnom' Denominators in Latin lookup 9 subtable" nine.dnom
Substitution2: "'numr' Numerators in Latin lookup 8 subtable" nine.numr
AlternateSubs2: "'aalt' Access All Alternates in Latin lookup 1 subtable" nine.numr nine.dnom nine.sups nine.subs nine.pnum nine.tnum
EndChar

StartChar: zero.pnum
Encoding: 65593 -1 474
Width: 504
Flags: W
LayerCount: 2
Fore
SplineSet
210 -12 m 0,0,1
 169 -12 169 -12 137.5 4.5 c 128,-1,2
 106 21 106 21 85 50.5 c 128,-1,3
 64 80 64 80 53 119.5 c 128,-1,4
 42 159 42 159 42 205 c 0,5,6
 42 294 42 294 64 375 c 128,-1,7
 86 456 86 456 123.5 517 c 128,-1,8
 161 578 161 578 211 614 c 128,-1,9
 261 650 261 650 316 650 c 0,10,11
 356 650 356 650 387 633 c 128,-1,12
 418 616 418 616 439 586.5 c 128,-1,13
 460 557 460 557 471 517 c 128,-1,14
 482 477 482 477 482 431 c 0,15,16
 482 341 482 341 460 261 c 128,-1,17
 438 181 438 181 401 120 c 128,-1,18
 364 59 364 59 314.5 23.5 c 128,-1,19
 265 -12 265 -12 210 -12 c 0,0,1
214 49 m 0,20,21
 254 49 254 49 290 83.5 c 128,-1,22
 326 118 326 118 353 173.5 c 128,-1,23
 380 229 380 229 395.5 297.5 c 128,-1,24
 411 366 411 366 411 434 c 0,25,26
 411 501 411 501 386.5 544.5 c 128,-1,27
 362 588 362 588 311 588 c 0,28,29
 270 588 270 588 234 553 c 128,-1,30
 198 518 198 518 171.5 462.5 c 128,-1,31
 145 407 145 407 129.5 338 c 128,-1,32
 114 269 114 269 114 202 c 0,33,34
 114 136 114 136 138 92.5 c 128,-1,35
 162 49 162 49 214 49 c 0,20,21
EndSplineSet
Validated: 1
Substitution2: "'zero' Slashed Zero in Latin lookup 18 subtable" zero.0p
Substitution2: "'ss05' Style Set 5 in Latin lookup 17 subtable" zero.0ps
Substitution2: "'onum' Oldstyle Figures in Latin lookup 16 subtable" zero.onum
Substitution2: "'aalt' Access All Alternates in Latin lookup 0 subtable" zero.onum
EndChar

StartChar: one.pnum
Encoding: 65594 -1 475
Width: 340
Flags: W
LayerCount: 2
Fore
SplineSet
100 0 m 1,0,-1
 209 542 l 1,1,-1
 95 542 l 1,2,-1
 105 592 l 1,3,4
 191 604 191 604 246 638 c 1,5,-1
 305 638 l 1,6,-1
 177 0 l 1,7,-1
 100 0 l 1,0,-1
EndSplineSet
Validated: 1
Substitution2: "'onum' Oldstyle Figures in Latin lookup 16 subtable" one.onum
Substitution2: "'aalt' Access All Alternates in Latin lookup 0 subtable" one.onum
EndChar

StartChar: two.pnum
Encoding: 65595 -1 476
Width: 467
Flags: W
LayerCount: 2
Fore
SplineSet
-10 0 m 1,0,-1
 -2 46 l 1,1,2
 91 127 91 127 160.5 188 c 128,-1,3
 230 249 230 249 276 299 c 128,-1,4
 322 349 322 349 344.5 392.5 c 128,-1,5
 367 436 367 436 367 483 c 0,6,7
 367 527 367 527 344 557 c 128,-1,8
 321 587 321 587 273 587 c 0,9,10
 241 587 241 587 208.5 570.5 c 128,-1,11
 176 554 176 554 142 523 c 1,12,-1
 103 571 l 1,13,14
 147 609 147 609 190.5 629.5 c 128,-1,15
 234 650 234 650 282 650 c 0,16,17
 320 650 320 650 349.5 638.5 c 128,-1,18
 379 627 379 627 399.5 606 c 128,-1,19
 420 585 420 585 431 556 c 128,-1,20
 442 527 442 527 442 493 c 0,21,22
 442 440 442 440 421.5 393.5 c 128,-1,23
 401 347 401 347 361 298 c 128,-1,24
 321 249 321 249 260.5 193.5 c 128,-1,25
 200 138 200 138 121 66 c 1,26,-1
 387 66 l 1,27,-1
 375 0 l 1,28,-1
 -10 0 l 1,0,-1
EndSplineSet
Validated: 1
Substitution2: "'onum' Oldstyle Figures in Latin lookup 16 subtable" two.onum
Substitution2: "'aalt' Access All Alternates in Latin lookup 0 subtable" two.onum
EndChar

StartChar: seven.pnum
Encoding: 65600 -1 481
Width: 456
Flags: W
LayerCount: 2
Fore
SplineSet
105 0 m 1,0,1
 127 90 127 90 152.5 167.5 c 128,-1,2
 178 245 178 245 211.5 315 c 128,-1,3
 245 385 245 385 289 448.5 c 128,-1,4
 333 512 333 512 392 572 c 1,5,-1
 97 572 l 1,6,-1
 110 638 l 1,7,-1
 494 638 l 1,8,-1
 484 588 l 1,9,10
 413 518 413 518 363.5 448 c 128,-1,11
 314 378 314 378 280.5 306 c 128,-1,12
 247 234 247 234 225 158 c 128,-1,13
 203 82 203 82 186 0 c 1,14,-1
 105 0 l 1,0,1
EndSplineSet
Validated: 1
Substitution2: "'onum' Oldstyle Figures in Latin lookup 16 subtable" seven.onum
Substitution2: "'aalt' Access All Alternates in Latin lookup 0 subtable" seven.onum
EndChar

StartChar: zero.tnum
Encoding: 65603 -1 484
Width: 480
Flags: W
LayerCount: 2
Fore
SplineSet
201 -12 m 0,0,1
 124 -12 124 -12 81 44 c 128,-1,2
 38 100 38 100 38 193 c 0,3,4
 38 262 38 262 55.5 332.5 c 128,-1,5
 73 403 73 403 106 459 c 128,-1,6
 139 515 139 515 186 550.5 c 128,-1,7
 233 586 233 586 291 586 c 0,8,9
 328 586 328 586 358 571.5 c 128,-1,10
 388 557 388 557 409 530 c 128,-1,11
 430 503 430 503 441.5 465 c 128,-1,12
 453 427 453 427 453 380 c 0,13,14
 453 311 453 311 435.5 241 c 128,-1,15
 418 171 418 171 385 114.5 c 128,-1,16
 352 58 352 58 305.5 23 c 128,-1,17
 259 -12 259 -12 201 -12 c 0,0,1
207 49 m 0,18,19
 244 49 244 49 275.5 79 c 128,-1,20
 307 109 307 109 330.5 156 c 128,-1,21
 354 203 354 203 367 260.5 c 128,-1,22
 380 318 380 318 380 373 c 0,23,24
 380 446 380 446 356 485 c 128,-1,25
 332 524 332 524 284 524 c 0,26,27
 247 524 247 524 215 494 c 128,-1,28
 183 464 183 464 160 417 c 128,-1,29
 137 370 137 370 123.5 313 c 128,-1,30
 110 256 110 256 110 201 c 0,31,32
 110 128 110 128 134.5 88.5 c 128,-1,33
 159 49 159 49 207 49 c 0,18,19
EndSplineSet
Validated: 1
Substitution2: "'pnum' Proportional Numbers in Latin lookup 15 subtable" zero.onum
Substitution2: "'aalt' Access All Alternates in Latin lookup 0 subtable" zero.onum
EndChar

StartChar: one.tnum
Encoding: 65604 -1 485
Width: 480
Flags: W
LayerCount: 2
Fore
SplineSet
26 0 m 1,0,-1
 39 64 l 1,1,-1
 178 64 l 1,2,-1
 261 478 l 1,3,-1
 147 478 l 1,4,-1
 157 528 l 1,5,6
 243 540 243 540 298 574 c 1,7,-1
 357 574 l 1,8,-1
 254 64 l 1,9,-1
 384 64 l 1,10,-1
 372 0 l 1,11,-1
 26 0 l 1,0,-1
EndSplineSet
Validated: 1
Substitution2: "'pnum' Proportional Numbers in Latin lookup 15 subtable" one.onum
Substitution2: "'aalt' Access All Alternates in Latin lookup 0 subtable" one.onum
EndChar

StartChar: two.tnum
Encoding: 65605 -1 486
Width: 480
Flags: W
LayerCount: 2
Fore
SplineSet
-10 0 m 1,0,-1
 -2 46 l 1,1,2
 89 116 89 116 157 168.5 c 128,-1,3
 225 221 225 221 270 263.5 c 128,-1,4
 315 306 315 306 337 343 c 128,-1,5
 359 380 359 380 359 419 c 0,6,7
 359 463 359 463 333.5 493 c 128,-1,8
 308 523 308 523 255 523 c 0,9,10
 223 523 223 523 190.5 506.5 c 128,-1,11
 158 490 158 490 124 459 c 1,12,-1
 85 507 l 1,13,14
 129 544 129 544 172.5 565 c 128,-1,15
 216 586 216 586 264 586 c 0,16,17
 305 586 305 586 336.5 574 c 128,-1,18
 368 562 368 562 390 541 c 128,-1,19
 412 520 412 520 423 491.5 c 128,-1,20
 434 463 434 463 434 429 c 0,21,22
 434 384 434 384 414 344.5 c 128,-1,23
 394 305 394 305 354.5 263 c 128,-1,24
 315 221 315 221 257 173.5 c 128,-1,25
 199 126 199 126 123 66 c 1,26,-1
 397 66 l 1,27,-1
 385 0 l 1,28,-1
 -10 0 l 1,0,-1
EndSplineSet
Validated: 1
Substitution2: "'pnum' Proportional Numbers in Latin lookup 15 subtable" two.onum
Substitution2: "'aalt' Access All Alternates in Latin lookup 0 subtable" two.onum
EndChar

StartChar: three.tnum
Encoding: 65606 -1 487
Width: 480
Flags: W
LayerCount: 2
Fore
SplineSet
174 -86 m 0,0,1
 142 -86 142 -86 113 -77 c 128,-1,2
 84 -68 84 -68 59 -53 c 128,-1,3
 34 -38 34 -38 13.5 -18 c 128,-1,4
 -7 2 -7 2 -22 24 c 1,5,-1
 29 64 l 1,6,7
 52 31 52 31 87 4.5 c 128,-1,8
 122 -22 122 -22 171 -22 c 0,9,10
 205 -22 205 -22 234 -11.5 c 128,-1,11
 263 -1 263 -1 283.5 17.5 c 128,-1,12
 304 36 304 36 315.5 61.5 c 128,-1,13
 327 87 327 87 327 116 c 0,14,15
 327 141 327 141 317.5 163 c 128,-1,16
 308 185 308 185 286 200.5 c 128,-1,17
 264 216 264 216 229.5 225 c 128,-1,18
 195 234 195 234 145 234 c 1,19,-1
 157 291 l 1,20,21
 216 291 216 291 256 303.5 c 128,-1,22
 296 316 296 316 320.5 335.5 c 128,-1,23
 345 355 345 355 355.5 379 c 128,-1,24
 366 403 366 403 366 426 c 0,25,26
 366 469 366 469 341 496 c 128,-1,27
 316 523 316 523 265 523 c 0,28,29
 236 523 236 523 202.5 509 c 128,-1,30
 169 495 169 495 141 472 c 1,31,-1
 101 523 l 1,32,33
 184 586 184 586 278 586 c 0,34,35
 358 586 358 586 401 546 c 128,-1,36
 444 506 444 506 444 440 c 0,37,38
 444 377 444 377 405 330 c 128,-1,39
 366 283 366 283 296 262 c 1,40,-1
 296 258 l 1,41,42
 345 240 345 240 374 204.5 c 128,-1,43
 403 169 403 169 403 117 c 0,44,45
 403 71 403 71 386 33.5 c 128,-1,46
 369 -4 369 -4 338 -30.5 c 128,-1,47
 307 -57 307 -57 265 -71.5 c 128,-1,48
 223 -86 223 -86 174 -86 c 0,0,1
EndSplineSet
Validated: 1
Substitution2: "'pnum' Proportional Numbers in Latin lookup 15 subtable" three.onum
Substitution2: "'aalt' Access All Alternates in Latin lookup 0 subtable" three.onum
EndChar

StartChar: four.tnum
Encoding: 65607 -1 488
Width: 480
Flags: W
LayerCount: 2
Fore
SplineSet
237 -74 m 1,0,-1
 271 95 l 1,1,-1
 -9 95 l 1,2,-1
 1 146 l 1,3,-1
 354 574 l 1,4,-1
 438 574 l 1,5,-1
 355 156 l 1,6,-1
 437 156 l 1,7,-1
 425 95 l 1,8,-1
 343 95 l 1,9,-1
 309 -74 l 1,10,-1
 237 -74 l 1,0,-1
85 156 m 1,11,-1
 283 156 l 1,12,-1
 325 363 l 2,13,14
 330 391 330 391 338.5 424 c 128,-1,15
 347 457 347 457 355 490 c 1,16,-1
 351 490 l 1,17,18
 331 462 331 462 312 435.5 c 128,-1,19
 293 409 293 409 274 385 c 2,20,-1
 85 156 l 1,11,-1
EndSplineSet
Validated: 1
Substitution2: "'pnum' Proportional Numbers in Latin lookup 15 subtable" four.onum
Substitution2: "'aalt' Access All Alternates in Latin lookup 0 subtable" four.onum
EndChar

StartChar: five.tnum
Encoding: 65608 -1 489
Width: 480
Flags: W
LayerCount: 2
Fore
SplineSet
168 -86 m 0,0,1
 102 -86 102 -86 55.5 -55 c 128,-1,2
 9 -24 9 -24 -20 22 c 1,3,-1
 30 62 l 1,4,5
 41 46 41 46 54 30.5 c 128,-1,6
 67 15 67 15 84 3 c 128,-1,7
 101 -9 101 -9 122.5 -16 c 128,-1,8
 144 -23 144 -23 172 -23 c 0,9,10
 203 -23 203 -23 232 -11 c 128,-1,11
 261 1 261 1 283 23.5 c 128,-1,12
 305 46 305 46 318 77.5 c 128,-1,13
 331 109 331 109 331 148 c 0,14,15
 331 211 331 211 299.5 243 c 128,-1,16
 268 275 268 275 216 275 c 0,17,18
 184 275 184 275 162 267 c 128,-1,19
 140 259 140 259 109 242 c 1,20,-1
 76 268 l 1,21,-1
 157 574 l 1,22,-1
 457 574 l 1,23,-1
 443 508 l 1,24,-1
 211 508 l 1,25,-1
 157 314 l 1,26,27
 174 323 174 323 195 328.5 c 128,-1,28
 216 334 216 334 241 334 c 0,29,30
 277 334 277 334 307.5 323 c 128,-1,31
 338 312 338 312 360.5 290 c 128,-1,32
 383 268 383 268 395.5 235.5 c 128,-1,33
 408 203 408 203 408 161 c 0,34,35
 408 104 408 104 388 58.5 c 128,-1,36
 368 13 368 13 335 -19.5 c 128,-1,37
 302 -52 302 -52 258.5 -69 c 128,-1,38
 215 -86 215 -86 168 -86 c 0,0,1
EndSplineSet
Validated: 1
Substitution2: "'pnum' Proportional Numbers in Latin lookup 15 subtable" five.onum
Substitution2: "'aalt' Access All Alternates in Latin lookup 0 subtable" five.onum
EndChar

StartChar: seven.tnum
Encoding: 65610 -1 491
Width: 480
Flags: W
LayerCount: 2
Fore
SplineSet
104 -74 m 1,0,1
 126 17 126 17 152 96.5 c 128,-1,2
 178 176 178 176 212.5 247.5 c 128,-1,3
 247 319 247 319 292.5 383 c 128,-1,4
 338 447 338 447 399 508 c 1,5,-1
 93 508 l 1,6,-1
 107 574 l 1,7,-1
 501 574 l 1,8,-1
 491 524 l 1,9,10
 417 453 417 453 366.5 382 c 128,-1,11
 316 311 316 311 281 237.5 c 128,-1,12
 246 164 246 164 224 86.5 c 128,-1,13
 202 9 202 9 185 -74 c 1,14,-1
 104 -74 l 1,0,1
EndSplineSet
Validated: 1
Substitution2: "'pnum' Proportional Numbers in Latin lookup 15 subtable" seven.onum
Substitution2: "'aalt' Access All Alternates in Latin lookup 0 subtable" seven.onum
EndChar

StartChar: nine.tnum
Encoding: 65612 -1 493
Width: 480
Flags: W
LayerCount: 2
Fore
SplineSet
227 225 m 0,0,1
 252 225 252 225 290 240.5 c 128,-1,2
 328 256 328 256 368 303 c 1,3,4
 371 336 371 336 371 372 c 0,5,6
 371 441 371 441 342 483.5 c 128,-1,7
 313 526 313 526 262 526 c 0,8,9
 233 526 233 526 207.5 511 c 128,-1,10
 182 496 182 496 163 472 c 128,-1,11
 144 448 144 448 133 417.5 c 128,-1,12
 122 387 122 387 122 355 c 0,13,14
 122 295 122 295 149 260 c 128,-1,15
 176 225 176 225 227 225 c 0,0,1
142 -85 m 0,16,17
 90 -85 90 -85 56.5 -60.5 c 128,-1,18
 23 -36 23 -36 3 -4 c 1,19,-1
 55 37 l 1,20,21
 72 9 72 9 93.5 -6 c 128,-1,22
 115 -21 115 -21 147 -21 c 0,23,24
 183 -21 183 -21 216.5 -3 c 128,-1,25
 250 15 250 15 277.5 48.5 c 128,-1,26
 305 82 305 82 326 130 c 128,-1,27
 347 178 347 178 358 237 c 1,28,29
 323 202 323 202 283 185 c 128,-1,30
 243 168 243 168 209 168 c 0,31,32
 140 168 140 168 95.5 214 c 128,-1,33
 51 260 51 260 51 344 c 0,34,35
 51 393 51 393 67.5 437 c 128,-1,36
 84 481 84 481 112.5 514 c 128,-1,37
 141 547 141 547 180.5 566.5 c 128,-1,38
 220 586 220 586 267 586 c 0,39,40
 308 586 308 586 340.5 570 c 128,-1,41
 373 554 373 554 396 525.5 c 128,-1,42
 419 497 419 497 431 457 c 128,-1,43
 443 417 443 417 443 370 c 0,44,45
 443 271 443 271 420.5 187.5 c 128,-1,46
 398 104 398 104 357.5 43.5 c 128,-1,47
 317 -17 317 -17 262 -51 c 128,-1,48
 207 -85 207 -85 142 -85 c 0,16,17
EndSplineSet
Validated: 1
Substitution2: "'pnum' Proportional Numbers in Latin lookup 15 subtable" nine.onum
Substitution2: "'aalt' Access All Alternates in Latin lookup 0 subtable" nine.onum
EndChar

StartChar: one.onum
Encoding: 65614 -1 495
Width: 342
Flags: W
LayerCount: 2
Fore
SplineSet
93 0 m 1,0,-1
 190 478 l 1,1,-1
 76 478 l 1,2,-1
 86 528 l 1,3,4
 172 540 172 540 227 574 c 1,5,-1
 286 574 l 1,6,-1
 170 0 l 1,7,-1
 93 0 l 1,0,-1
EndSplineSet
Validated: 1
EndChar

StartChar: two.onum
Encoding: 65615 -1 496
Width: 462
Flags: W
LayerCount: 2
Fore
SplineSet
-10 0 m 1,0,-1
 -2 46 l 1,1,2
 86 116 86 116 151.5 168.5 c 128,-1,3
 217 221 217 221 260.5 263.5 c 128,-1,4
 304 306 304 306 325.5 343 c 128,-1,5
 347 380 347 380 347 419 c 0,6,7
 347 463 347 463 323.5 493 c 128,-1,8
 300 523 300 523 255 523 c 0,9,10
 223 523 223 523 190.5 506.5 c 128,-1,11
 158 490 158 490 124 459 c 1,12,-1
 85 507 l 1,13,14
 129 544 129 544 172.5 565 c 128,-1,15
 216 586 216 586 264 586 c 0,16,17
 301 586 301 586 330.5 574 c 128,-1,18
 360 562 360 562 380 541 c 128,-1,19
 400 520 400 520 411 491.5 c 128,-1,20
 422 463 422 463 422 429 c 0,21,22
 422 384 422 384 402.5 344.5 c 128,-1,23
 383 305 383 305 344.5 263 c 128,-1,24
 306 221 306 221 249.5 173.5 c 128,-1,25
 193 126 193 126 120 66 c 1,26,-1
 381 66 l 1,27,-1
 369 0 l 1,28,-1
 -10 0 l 1,0,-1
EndSplineSet
Validated: 1
EndChar

StartChar: seven.onum
Encoding: 65620 -1 501
Width: 456
Flags: W
LayerCount: 2
Fore
SplineSet
85 -74 m 1,0,1
 107 17 107 17 132.5 97 c 128,-1,2
 158 177 158 177 192 248 c 128,-1,3
 226 319 226 319 271 383.5 c 128,-1,4
 316 448 316 448 376 508 c 1,5,-1
 80 508 l 1,6,-1
 93 574 l 1,7,-1
 478 574 l 1,8,-1
 468 524 l 1,9,10
 394 454 394 454 344.5 383 c 128,-1,11
 295 312 295 312 261 238.5 c 128,-1,12
 227 165 227 165 205 87 c 128,-1,13
 183 9 183 9 166 -74 c 1,14,-1
 85 -74 l 1,0,1
EndSplineSet
Validated: 1
EndChar

StartChar: period
Encoding: 46 46 504
Width: 242
Flags: W
LayerCount: 2
Fore
SplineSet
70 -12 m 0,0,1
 48 -12 48 -12 35.5 2 c 128,-1,2
 23 16 23 16 23 38 c 0,3,4
 23 64 23 64 42 86 c 128,-1,5
 61 108 61 108 90 108 c 0,6,7
 112 108 112 108 124 93.5 c 128,-1,8
 136 79 136 79 136 57 c 0,9,10
 136 31 136 31 117.5 9.5 c 128,-1,11
 99 -12 99 -12 70 -12 c 0,0,1
EndSplineSet
Validated: 1
Substitution2: "'subs' Subscript in Latin lookup 14 subtable" period.subs
Substitution2: "'sups' Superscript in Latin lookup 13 subtable" period.sups
Substitution2: "'dnom' Denominators in Latin lookup 9 subtable" period.dnom
Substitution2: "'numr' Numerators in Latin lookup 8 subtable" period.numr
AlternateSubs2: "'aalt' Access All Alternates in Latin lookup 1 subtable" period.numr period.dnom period.sups period.subs
EndChar

StartChar: comma
Encoding: 44 44 505
Width: 242
Flags: W
LayerCount: 2
Fore
SplineSet
-20 -164 m 1,0,-1
 -31 -118 l 1,1,2
 17 -100 17 -100 45 -70 c 128,-1,3
 73 -40 73 -40 80 -4 c 1,4,-1
 78 -4 l 2,5,6
 55 -4 55 -4 40.5 8.5 c 128,-1,7
 26 21 26 21 26 44 c 0,8,9
 26 69 26 69 43.5 88.5 c 128,-1,10
 61 108 61 108 90 108 c 0,11,12
 116 108 116 108 130 90 c 128,-1,13
 144 72 144 72 144 42 c 0,14,15
 144 -32 144 -32 99 -87.5 c 128,-1,16
 54 -143 54 -143 -20 -164 c 1,0,-1
EndSplineSet
Validated: 1
Substitution2: "'subs' Subscript in Latin lookup 14 subtable" comma.subs
Substitution2: "'sups' Superscript in Latin lookup 13 subtable" comma.sups
Substitution2: "'dnom' Denominators in Latin lookup 9 subtable" comma.dnom
Substitution2: "'numr' Numerators in Latin lookup 8 subtable" comma.numr
AlternateSubs2: "'aalt' Access All Alternates in Latin lookup 1 subtable" comma.numr comma.dnom comma.sups comma.subs
EndChar

StartChar: exclam
Encoding: 33 33 509
Width: 282
Flags: W
LayerCount: 2
Fore
SplineSet
102 196 m 1,0,-1
 169 579 l 1,1,-1
 184 671 l 1,2,-1
 261 671 l 1,3,-1
 242 579 l 1,4,-1
 156 196 l 1,5,-1
 102 196 l 1,0,-1
91 -12 m 0,6,7
 69 -12 69 -12 56 2 c 128,-1,8
 43 16 43 16 43 38 c 0,9,10
 43 64 43 64 62 86 c 128,-1,11
 81 108 81 108 110 108 c 0,12,13
 133 108 133 108 144.5 93.5 c 128,-1,14
 156 79 156 79 156 57 c 0,15,16
 156 31 156 31 138 9.5 c 128,-1,17
 120 -12 120 -12 91 -12 c 0,6,7
EndSplineSet
Validated: 1
EndChar

StartChar: exclamdown
Encoding: 161 161 510
Width: 282
Flags: W
LayerCount: 2
Fore
SplineSet
21 -185 m 1,0,-1
 40 -93 l 1,1,-1
 126 290 l 1,2,-1
 180 290 l 1,3,-1
 113 -93 l 1,4,-1
 98 -185 l 1,5,-1
 21 -185 l 1,0,-1
171 378 m 0,6,7
 149 378 149 378 137.5 392.5 c 128,-1,8
 126 407 126 407 126 429 c 0,9,10
 126 455 126 455 144 476.5 c 128,-1,11
 162 498 162 498 191 498 c 0,12,13
 213 498 213 498 225.5 484 c 128,-1,14
 238 470 238 470 238 448 c 0,15,16
 238 435 238 435 233 422.5 c 128,-1,17
 228 410 228 410 219 400 c 128,-1,18
 210 390 210 390 198 384 c 128,-1,19
 186 378 186 378 171 378 c 0,6,7
EndSplineSet
Validated: 1
EndChar

StartChar: question
Encoding: 63 63 511
Width: 409
Flags: W
LayerCount: 2
Fore
SplineSet
145 201 m 1,0,1
 147 243 147 243 163 275.5 c 128,-1,2
 179 308 179 308 201 334.5 c 128,-1,3
 223 361 223 361 248 383.5 c 128,-1,4
 273 406 273 406 294 428.5 c 128,-1,5
 315 451 315 451 329 475.5 c 128,-1,6
 343 500 343 500 343 531 c 0,7,8
 343 573 343 573 320 595.5 c 128,-1,9
 297 618 297 618 257 618 c 0,10,11
 228 618 228 618 201 604 c 128,-1,12
 174 590 174 590 152 567 c 1,13,-1
 111 613 l 1,14,15
 140 643 140 643 180.5 662.5 c 128,-1,16
 221 682 221 682 266 682 c 0,17,18
 336 682 336 682 377 645.5 c 128,-1,19
 418 609 418 609 418 544 c 0,20,21
 418 503 418 503 403.5 472 c 128,-1,22
 389 441 389 441 367 415 c 128,-1,23
 345 389 345 389 319 365.5 c 128,-1,24
 293 342 293 342 270 317 c 128,-1,25
 247 292 247 292 230.5 262.5 c 128,-1,26
 214 233 214 233 211 195 c 1,27,-1
 145 201 l 1,0,1
141 -12 m 0,28,29
 119 -12 119 -12 106.5 2 c 128,-1,30
 94 16 94 16 94 38 c 0,31,32
 94 64 94 64 113 86 c 128,-1,33
 132 108 132 108 161 108 c 0,34,35
 183 108 183 108 195 93.5 c 128,-1,36
 207 79 207 79 207 57 c 0,37,38
 207 31 207 31 188.5 9.5 c 128,-1,39
 170 -12 170 -12 141 -12 c 0,28,29
EndSplineSet
Validated: 1
EndChar

StartChar: questiondown
Encoding: 191 191 512
Width: 409
Flags: W
LayerCount: 2
Fore
SplineSet
148 -195 m 0,0,1
 78 -195 78 -195 37 -158.5 c 128,-1,2
 -4 -122 -4 -122 -4 -56 c 0,3,4
 -4 -16 -4 -16 10.5 15 c 128,-1,5
 25 46 25 46 46.5 72 c 128,-1,6
 68 98 68 98 94 121.5 c 128,-1,7
 120 145 120 145 143 170.5 c 128,-1,8
 166 196 166 196 182.5 225 c 128,-1,9
 199 254 199 254 203 292 c 1,10,-1
 269 286 l 1,11,12
 266 244 266 244 250.5 212 c 128,-1,13
 235 180 235 180 213 153.5 c 128,-1,14
 191 127 191 127 166 104.5 c 128,-1,15
 141 82 141 82 120 59 c 128,-1,16
 99 36 99 36 85 11.5 c 128,-1,17
 71 -13 71 -13 71 -44 c 0,18,19
 71 -85 71 -85 93.5 -108 c 128,-1,20
 116 -131 116 -131 156 -131 c 0,21,22
 185 -131 185 -131 212.5 -117 c 128,-1,23
 240 -103 240 -103 262 -79 c 1,24,-1
 302 -125 l 1,25,26
 273 -156 273 -156 233 -175.5 c 128,-1,27
 193 -195 193 -195 148 -195 c 0,0,1
253 379 m 0,28,29
 230 379 230 379 218.5 393.5 c 128,-1,30
 207 408 207 408 207 430 c 0,31,32
 207 456 207 456 225 477.5 c 128,-1,33
 243 499 243 499 272 499 c 0,34,35
 294 499 294 499 307 485 c 128,-1,36
 320 471 320 471 320 449 c 0,37,38
 320 424 320 424 301 401.5 c 128,-1,39
 282 379 282 379 253 379 c 0,28,29
EndSplineSet
Validated: 1
EndChar

StartChar: quotesingle
Encoding: 39 39 513
Width: 242
Flags: W
LayerCount: 2
Fore
SplineSet
128 426 m 1,0,-1
 151 579 l 1,1,-1
 166 671 l 1,2,-1
 241 671 l 1,3,-1
 222 579 l 1,4,-1
 180 426 l 1,5,-1
 128 426 l 1,0,-1
EndSplineSet
Validated: 1
EndChar

StartChar: quoteleft
Encoding: 8216 8216 515
Width: 242
Flags: W
LayerCount: 2
Fore
SplineSet
163 434 m 0,0,1
 140 434 140 434 125 452 c 128,-1,2
 110 470 110 470 110 502 c 0,3,4
 110 536 110 536 120 565.5 c 128,-1,5
 130 595 130 595 148 619 c 128,-1,6
 166 643 166 643 190 661 c 128,-1,7
 214 679 214 679 242 691 c 1,8,-1
 258 653 l 1,9,10
 212 630 212 630 187.5 596.5 c 128,-1,11
 163 563 163 563 163 535 c 1,12,-1
 168 535 l 2,13,14
 189 535 189 535 203 523.5 c 128,-1,15
 217 512 217 512 217 491 c 0,16,17
 217 468 217 468 202 451 c 128,-1,18
 187 434 187 434 163 434 c 0,0,1
EndSplineSet
Validated: 1
EndChar

StartChar: quoteright
Encoding: 8217 8217 516
Width: 242
Flags: W
LayerCount: 2
Fore
SplineSet
127 443 m 1,0,-1
 111 480 l 1,1,2
 158 503 158 503 182.5 537 c 128,-1,3
 207 571 207 571 207 598 c 1,4,-1
 202 598 l 2,5,6
 180 598 180 598 166 609.5 c 128,-1,7
 152 621 152 621 152 643 c 0,8,9
 152 666 152 666 167 683 c 128,-1,10
 182 700 182 700 207 700 c 0,11,12
 230 700 230 700 245 682 c 128,-1,13
 260 664 260 664 260 632 c 0,14,15
 260 597 260 597 250 568 c 128,-1,16
 240 539 240 539 222 515 c 128,-1,17
 204 491 204 491 179.5 473 c 128,-1,18
 155 455 155 455 127 443 c 1,0,-1
EndSplineSet
Validated: 1
EndChar

StartChar: guilsinglleft
Encoding: 8249 8249 521
Width: 252
Flags: W
LayerCount: 2
Fore
SplineSet
143 67 m 1,0,-1
 40 225 l 1,1,-1
 51 287 l 1,2,-1
 207 435 l 1,3,-1
 235 406 l 1,4,-1
 93 250 l 1,5,-1
 178 89 l 1,6,-1
 143 67 l 1,0,-1
EndSplineSet
Validated: 1
EndChar

StartChar: guilsinglright
Encoding: 8250 8250 522
Width: 252
Flags: W
LayerCount: 2
Fore
SplineSet
51 67 m 1,0,-1
 23 96 l 1,1,-1
 164 252 l 1,2,-1
 79 413 l 1,3,-1
 115 435 l 1,4,-1
 218 277 l 1,5,-1
 207 215 l 1,6,-1
 51 67 l 1,0,-1
EndSplineSet
Validated: 1
EndChar

StartChar: hyphen
Encoding: 45 45 525
Width: 299
Flags: W
LayerCount: 2
Fore
SplineSet
35 222 m 1,0,-1
 47 281 l 1,1,-1
 266 281 l 1,2,-1
 253 222 l 1,3,-1
 35 222 l 1,0,-1
EndSplineSet
Validated: 1
EndChar

StartChar: endash
Encoding: 8211 8211 527
Width: 463
Flags: W
LayerCount: 2
Fore
SplineSet
35 225 m 1,0,-1
 46 279 l 1,1,-1
 427 279 l 1,2,-1
 415 225 l 1,3,-1
 35 225 l 1,0,-1
EndSplineSet
Validated: 1
EndChar

StartChar: emdash
Encoding: 8212 8212 528
Width: 769
Flags: W
LayerCount: 2
Fore
SplineSet
35 225 m 1,0,-1
 46 279 l 1,1,-1
 734 279 l 1,2,-1
 723 225 l 1,3,-1
 35 225 l 1,0,-1
EndSplineSet
Validated: 1
EndChar

StartChar: figuredash
Encoding: 8210 8210 529
Width: 480
Flags: W
LayerCount: 2
Fore
SplineSet
35 225 m 1,0,-1
 46 279 l 1,1,-1
 444 279 l 1,2,-1
 432 225 l 1,3,-1
 35 225 l 1,0,-1
EndSplineSet
Validated: 1
EndChar

StartChar: bullet
Encoding: 8226 8226 532
Width: 295
Flags: W
LayerCount: 2
Fore
SplineSet
139 145 m 0,0,1
 96 145 96 145 68.5 174 c 128,-1,2
 41 203 41 203 41 250 c 0,3,4
 41 274 41 274 49.5 298 c 128,-1,5
 58 322 58 322 73.5 340.5 c 128,-1,6
 89 359 89 359 111 371 c 128,-1,7
 133 383 133 383 161 383 c 0,8,9
 203 383 203 383 230.5 353.5 c 128,-1,10
 258 324 258 324 258 278 c 0,11,12
 258 253 258 253 249.5 229 c 128,-1,13
 241 205 241 205 225.5 186.5 c 128,-1,14
 210 168 210 168 188 156.5 c 128,-1,15
 166 145 166 145 139 145 c 0,0,1
EndSplineSet
Validated: 1
EndChar

StartChar: underscore
Encoding: 95 95 533
Width: 483
Flags: W
LayerCount: 2
Fore
SplineSet
-36 -124 m 1,0,-1
 -25 -74 l 1,1,-1
 432 -74 l 1,2,-1
 422 -124 l 1,3,-1
 -36 -124 l 1,0,-1
EndSplineSet
Validated: 1
EndChar

StartChar: parenleft
Encoding: 40 40 534
Width: 291
Flags: W
LayerCount: 2
Fore
SplineSet
122 -176 m 1,0,1
 98 -112 98 -112 81.5 -31 c 128,-1,2
 65 50 65 50 65 133 c 0,3,4
 65 220 65 220 80.5 298 c 128,-1,5
 96 376 96 376 126 449 c 128,-1,6
 156 522 156 522 199 591.5 c 128,-1,7
 242 661 242 661 298 731 c 1,8,-1
 343 706 l 1,9,10
 237 571 237 571 183 427 c 128,-1,11
 129 283 129 283 129 125 c 0,12,13
 129 90 129 90 131.5 52.5 c 128,-1,14
 134 15 134 15 139.5 -22 c 128,-1,15
 145 -59 145 -59 153 -94 c 128,-1,16
 161 -129 161 -129 172 -157 c 1,17,-1
 122 -176 l 1,0,1
EndSplineSet
Validated: 1
Substitution2: "'subs' Subscript in Latin lookup 14 subtable" parenleft.subs
Substitution2: "'sups' Superscript in Latin lookup 13 subtable" parenleft.sups
Substitution2: "'dnom' Denominators in Latin lookup 9 subtable" parenleft.dnom
Substitution2: "'numr' Numerators in Latin lookup 8 subtable" parenleft.numr
AlternateSubs2: "'aalt' Access All Alternates in Latin lookup 1 subtable" parenleft.numr parenleft.dnom parenleft.sups parenleft.subs
EndChar

StartChar: parenright
Encoding: 41 41 535
Width: 293
Flags: W
LayerCount: 2
Fore
SplineSet
1 -176 m 1,0,-1
 -44 -150 l 1,1,2
 169 119 169 119 169 430 c 0,3,4
 169 465 169 465 166.5 503 c 128,-1,5
 164 541 164 541 159 578 c 128,-1,6
 154 615 154 615 146 649 c 128,-1,7
 138 683 138 683 127 712 c 1,8,-1
 177 731 l 1,9,10
 201 667 201 667 217.5 586 c 128,-1,11
 234 505 234 505 234 423 c 0,12,13
 234 335 234 335 218.5 257 c 128,-1,14
 203 179 203 179 173 106 c 128,-1,15
 143 33 143 33 99.5 -36.5 c 128,-1,16
 56 -106 56 -106 1 -176 c 1,0,-1
EndSplineSet
Validated: 1
Substitution2: "'subs' Subscript in Latin lookup 14 subtable" parenright.subs
Substitution2: "'sups' Superscript in Latin lookup 13 subtable" parenright.sups
Substitution2: "'dnom' Denominators in Latin lookup 9 subtable" parenright.dnom
Substitution2: "'numr' Numerators in Latin lookup 8 subtable" parenright.numr
AlternateSubs2: "'aalt' Access All Alternates in Latin lookup 1 subtable" parenright.numr parenright.dnom parenright.sups parenright.subs
EndChar

StartChar: bracketleft
Encoding: 91 91 536
Width: 292
Flags: W
LayerCount: 2
Fore
SplineSet
8 -152 m 1,0,-1
 180 708 l 1,1,-1
 349 708 l 1,2,-1
 342 663 l 1,3,-1
 229 663 l 1,4,-1
 76 -107 l 1,5,-1
 188 -107 l 1,6,-1
 177 -152 l 1,7,-1
 8 -152 l 1,0,-1
EndSplineSet
Validated: 1
EndChar

StartChar: bracketright
Encoding: 93 93 537
Width: 293
Flags: W
LayerCount: 2
Fore
SplineSet
-49 -152 m 1,0,-1
 -39 -107 l 1,1,-1
 72 -107 l 1,2,-1
 227 663 l 1,3,-1
 115 663 l 1,4,-1
 123 708 l 1,5,-1
 294 708 l 1,6,-1
 122 -152 l 1,7,-1
 -49 -152 l 1,0,-1
EndSplineSet
Validated: 1
EndChar

StartChar: braceleft
Encoding: 123 123 538
Width: 290
Flags: W
LayerCount: 2
Fore
SplineSet
135 -152 m 2,0,1
 88 -152 88 -152 67.5 -133 c 128,-1,2
 47 -114 47 -114 47 -72 c 0,3,4
 47 -44 47 -44 55.5 -7 c 128,-1,5
 64 30 64 30 74.5 68.5 c 128,-1,6
 85 107 85 107 93.5 141 c 128,-1,7
 102 175 102 175 102 197 c 0,8,9
 102 207 102 207 99 217.5 c 128,-1,10
 96 228 96 228 88.5 235.5 c 128,-1,11
 81 243 81 243 67 248 c 128,-1,12
 53 253 53 253 32 253 c 1,13,-1
 43 303 l 1,14,15
 68 303 68 303 85.5 310 c 128,-1,16
 103 317 103 317 114.5 328.5 c 128,-1,17
 126 340 126 340 132 354 c 128,-1,18
 138 368 138 368 141 382 c 0,19,20
 150 430 150 430 155.5 476 c 128,-1,21
 161 522 161 522 172 573 c 0,22,23
 179 612 179 612 190 638 c 128,-1,24
 201 664 201 664 216.5 679.5 c 128,-1,25
 232 695 232 695 254 701.5 c 128,-1,26
 276 708 276 708 306 708 c 2,27,-1
 352 708 l 1,28,-1
 342 663 l 1,29,-1
 316 663 l 2,30,31
 276 663 276 663 259 640 c 128,-1,32
 242 617 242 617 232 569 c 0,33,34
 224 526 224 526 217.5 480.5 c 128,-1,35
 211 435 211 435 202 389 c 0,36,37
 192 340 192 340 172.5 313 c 128,-1,38
 153 286 153 286 118 277 c 1,39,-1
 118 273 l 1,40,41
 142 265 142 265 152 249.5 c 128,-1,42
 162 234 162 234 162 212 c 0,43,44
 162 186 162 186 154 149.5 c 128,-1,45
 146 113 146 113 136 74.5 c 128,-1,46
 126 36 126 36 118 1 c 128,-1,47
 110 -34 110 -34 110 -58 c 0,48,49
 110 -83 110 -83 121.5 -95 c 128,-1,50
 133 -107 133 -107 165 -107 c 2,51,-1
 189 -107 l 1,52,-1
 179 -152 l 1,53,-1
 135 -152 l 2,0,1
EndSplineSet
Validated: 1
EndChar

StartChar: braceright
Encoding: 125 125 539
Width: 293
Flags: W
LayerCount: 2
Fore
SplineSet
-52 -152 m 1,0,-1
 -43 -107 l 1,1,-1
 -17 -107 l 2,2,3
 23 -107 23 -107 40.5 -85 c 128,-1,4
 58 -63 58 -63 67 -14 c 0,5,6
 75 29 75 29 82 74 c 128,-1,7
 89 119 89 119 97 166 c 0,8,9
 108 216 108 216 127 243 c 128,-1,10
 146 270 146 270 181 279 c 1,11,-1
 181 283 l 1,12,13
 156 291 156 291 146.5 306.5 c 128,-1,14
 137 322 137 322 137 344 c 0,15,16
 137 370 137 370 145 406.5 c 128,-1,17
 153 443 153 443 163 481 c 128,-1,18
 173 519 173 519 181 554 c 128,-1,19
 189 589 189 589 189 613 c 0,20,21
 189 639 189 639 178 651 c 128,-1,22
 167 663 167 663 135 663 c 2,23,-1
 110 663 l 1,24,-1
 120 708 l 1,25,-1
 164 708 l 2,26,27
 212 708 212 708 232.5 688.5 c 128,-1,28
 253 669 253 669 253 628 c 0,29,30
 253 600 253 600 244.5 562.5 c 128,-1,31
 236 525 236 525 225.5 487 c 128,-1,32
 215 449 215 449 206.5 414 c 128,-1,33
 198 379 198 379 198 357 c 0,34,35
 198 347 198 347 201 337.5 c 128,-1,36
 204 328 204 328 211.5 320.5 c 128,-1,37
 219 313 219 313 232.5 308 c 128,-1,38
 246 303 246 303 268 303 c 1,39,-1
 257 253 l 1,40,41
 231 253 231 253 213.5 246 c 128,-1,42
 196 239 196 239 184.5 227.5 c 128,-1,43
 173 216 173 216 167.5 202 c 128,-1,44
 162 188 162 188 159 174 c 0,45,46
 150 126 150 126 144.5 79.5 c 128,-1,47
 139 33 139 33 128 -19 c 0,48,49
 120 -58 120 -58 109 -83.5 c 128,-1,50
 98 -109 98 -109 82.5 -124 c 128,-1,51
 67 -139 67 -139 45 -145.5 c 128,-1,52
 23 -152 23 -152 -6 -152 c 2,53,-1
 -52 -152 l 1,0,-1
EndSplineSet
Validated: 1
EndChar

StartChar: slash
Encoding: 47 47 540
Width: 340
Flags: W
LayerCount: 2
Fore
SplineSet
-72 -160 m 1,0,-1
 362 710 l 1,1,-1
 418 710 l 1,2,-1
 -17 -160 l 1,3,-1
 -72 -160 l 1,0,-1
EndSplineSet
Validated: 1
Substitution2: "'frac' Diagonal Fractions in Latin lookup 10 subtable" slash.frac
EndChar

StartChar: bar
Encoding: 124 124 541
Width: 231
Flags: W
LayerCount: 2
Fore
SplineSet
95 -250 m 1,0,-1
 95 750 l 1,1,-1
 147 750 l 1,2,-1
 147 -250 l 1,3,-1
 95 -250 l 1,0,-1
EndSplineSet
Validated: 1
EndChar

StartChar: backslash
Encoding: 92 92 542
Width: 340
Flags: W
LayerCount: 2
Fore
SplineSet
203 -160 m 1,0,-1
 88 710 l 1,1,-1
 140 710 l 1,2,-1
 257 -160 l 1,3,-1
 203 -160 l 1,0,-1
EndSplineSet
Validated: 1
EndChar

StartChar: brokenbar
Encoding: 166 166 543
Width: 231
Flags: W
LayerCount: 2
Fore
SplineSet
95 289 m 1,0,-1
 95 750 l 1,1,-1
 147 750 l 1,2,-1
 147 289 l 1,3,-1
 95 289 l 1,0,-1
95 -250 m 1,4,-1
 95 213 l 1,5,-1
 147 213 l 1,6,-1
 147 -250 l 1,7,-1
 95 -250 l 1,4,-1
EndSplineSet
Validated: 1
EndChar

StartChar: asterisk
Encoding: 42 42 544
Width: 403
Flags: W
LayerCount: 2
Fore
SplineSet
176 434 m 1,0,-1
 144 463 l 1,1,-1
 213 551 l 1,2,-1
 125 600 l 1,3,-1
 143 640 l 1,4,-1
 242 607 l 1,5,-1
 267 713 l 1,6,-1
 311 709 l 1,7,-1
 303 602 l 1,8,-1
 406 616 l 1,9,-1
 413 573 l 1,10,-1
 310 542 l 1,11,-1
 348 445 l 1,12,-1
 308 422 l 1,13,-1
 256 510 l 1,14,-1
 176 434 l 1,0,-1
EndSplineSet
Validated: 1
EndChar

StartChar: dagger
Encoding: 8224 8224 545
Width: 435
Flags: W
LayerCount: 2
Fore
SplineSet
118 -80 m 1,0,-1
 239 496 l 1,1,-1
 101 491 l 1,2,-1
 114 557 l 1,3,-1
 248 552 l 1,4,-1
 276 712 l 1,5,-1
 342 712 l 1,6,-1
 306 552 l 1,7,-1
 443 557 l 1,8,-1
 430 491 l 1,9,-1
 295 496 l 1,10,-1
 184 -80 l 1,11,-1
 118 -80 l 1,0,-1
EndSplineSet
Validated: 1
EndChar

StartChar: daggerdbl
Encoding: 8225 8225 546
Width: 435
Flags: W
LayerCount: 2
Fore
SplineSet
119 -80 m 1,0,-1
 154 79 l 1,1,-1
 18 74 l 1,2,-1
 31 140 l 1,3,-1
 166 134 l 1,4,-1
 197 316 l 1,5,-1
 239 498 l 1,6,-1
 101 491 l 1,7,-1
 113 557 l 1,8,-1
 248 552 l 1,9,-1
 276 712 l 1,10,-1
 341 712 l 1,11,-1
 306 552 l 1,12,-1
 443 557 l 1,13,-1
 430 491 l 1,14,-1
 295 498 l 1,15,-1
 263 316 l 1,16,-1
 222 134 l 1,17,-1
 360 140 l 1,18,-1
 347 74 l 1,19,-1
 212 79 l 1,20,-1
 185 -80 l 1,21,-1
 119 -80 l 1,0,-1
EndSplineSet
Validated: 1
EndChar

StartChar: section
Encoding: 167 167 547
Width: 477
Flags: W
LayerCount: 2
Fore
SplineSet
124 344 m 0,0,1
 124 314 124 314 142 293.5 c 128,-1,2
 160 273 160 273 186.5 256 c 128,-1,3
 213 239 213 239 243.5 223 c 128,-1,4
 274 207 274 207 298 186 c 1,5,6
 333 199 333 199 351.5 220.5 c 128,-1,7
 370 242 370 242 370 282 c 0,8,9
 370 311 370 311 352.5 332.5 c 128,-1,10
 335 354 335 354 309 372 c 128,-1,11
 283 390 283 390 253.5 407 c 128,-1,12
 224 424 224 424 199 444 c 1,13,14
 166 430 166 430 145 406 c 128,-1,15
 124 382 124 382 124 344 c 0,0,1
182 -60 m 0,16,17
 137 -60 137 -60 93.5 -40 c 128,-1,18
 50 -20 50 -20 15 15 c 1,19,-1
 56 65 l 1,20,21
 82 37 82 37 116 18.5 c 128,-1,22
 150 0 150 0 186 0 c 0,23,24
 224 0 224 0 249.5 22 c 128,-1,25
 275 44 275 44 275 79 c 0,26,27
 275 105 275 105 259 124 c 128,-1,28
 243 143 243 143 218.5 159 c 128,-1,29
 194 175 194 175 165.5 190 c 128,-1,30
 137 205 137 205 112.5 224.5 c 128,-1,31
 88 244 88 244 72 270 c 128,-1,32
 56 296 56 296 56 333 c 0,33,34
 56 387 56 387 86 424.5 c 128,-1,35
 116 462 116 462 164 482 c 1,36,37
 148 509 148 509 148 540 c 0,38,39
 148 573 148 573 159.5 599.5 c 128,-1,40
 171 626 171 626 191 644.5 c 128,-1,41
 211 663 211 663 238.5 673.5 c 128,-1,42
 266 684 266 684 299 684 c 0,43,44
 344 684 344 684 382.5 663.5 c 128,-1,45
 421 643 421 643 450 611 c 1,46,-1
 407 566 l 1,47,48
 386 590 386 590 358 607 c 128,-1,49
 330 624 330 624 298 624 c 0,50,51
 267 624 267 624 243 604.5 c 128,-1,52
 219 585 219 585 219 550 c 0,53,54
 219 526 219 526 235 508 c 128,-1,55
 251 490 251 490 275.5 473.5 c 128,-1,56
 300 457 300 457 328.5 440.5 c 128,-1,57
 357 424 357 424 381.5 403.5 c 128,-1,58
 406 383 406 383 422 356 c 128,-1,59
 438 329 438 329 438 292 c 0,60,61
 438 234 438 234 410 201 c 128,-1,62
 382 168 382 168 332 145 c 1,63,64
 345 119 345 119 345 90 c 0,65,66
 345 58 345 58 333 30.5 c 128,-1,67
 321 3 321 3 299 -17 c 128,-1,68
 277 -37 277 -37 247.5 -48.5 c 128,-1,69
 218 -60 218 -60 182 -60 c 0,16,17
EndSplineSet
Validated: 1
EndChar

StartChar: paragraph
Encoding: 182 182 548
Width: 535
Flags: W
LayerCount: 2
Fore
SplineSet
300 -80 m 1,0,-1
 446 656 l 1,1,-1
 523 656 l 1,2,-1
 376 -80 l 1,3,-1
 300 -80 l 1,0,-1
293 227 m 2,4,5
 248 227 248 227 208 238.5 c 128,-1,6
 168 250 168 250 138 272 c 128,-1,7
 108 294 108 294 90.5 327 c 128,-1,8
 73 360 73 360 73 403 c 0,9,10
 73 467 73 467 96 515 c 128,-1,11
 119 563 119 563 157 594 c 128,-1,12
 195 625 195 625 244.5 640.5 c 128,-1,13
 294 656 294 656 347 656 c 2,14,-1
 395 656 l 1,15,-1
 308 227 l 1,16,-1
 293 227 l 2,4,5
EndSplineSet
Validated: 1
EndChar

StartChar: copyright
Encoding: 169 169 549
Width: 665
Flags: W
LayerCount: 2
Fore
SplineSet
298 -11 m 0,0,1
 240 -11 240 -11 191.5 9.5 c 128,-1,2
 143 30 143 30 108.5 66.5 c 128,-1,3
 74 103 74 103 55 154 c 128,-1,4
 36 205 36 205 36 266 c 0,5,6
 36 340 36 340 62 409.5 c 128,-1,7
 88 479 88 479 135.5 533 c 128,-1,8
 183 587 183 587 250 620 c 128,-1,9
 317 653 317 653 398 653 c 0,10,11
 456 653 456 653 504.5 632.5 c 128,-1,12
 553 612 553 612 587.5 575.5 c 128,-1,13
 622 539 622 539 641.5 488.5 c 128,-1,14
 661 438 661 438 661 377 c 0,15,16
 661 303 661 303 635 233 c 128,-1,17
 609 163 609 163 561 109 c 128,-1,18
 513 55 513 55 446 22 c 128,-1,19
 379 -11 379 -11 298 -11 c 0,0,1
301 30 m 0,20,21
 371 30 371 30 429.5 59.5 c 128,-1,22
 488 89 488 89 530 137.5 c 128,-1,23
 572 186 572 186 595 247.5 c 128,-1,24
 618 309 618 309 618 372 c 0,25,26
 618 425 618 425 603 469 c 128,-1,27
 588 513 588 513 559 545 c 128,-1,28
 530 577 530 577 488.5 595 c 128,-1,29
 447 613 447 613 395 613 c 0,30,31
 325 613 325 613 267 583.5 c 128,-1,32
 209 554 209 554 167 505.5 c 128,-1,33
 125 457 125 457 102 395.5 c 128,-1,34
 79 334 79 334 79 271 c 0,35,36
 79 218 79 218 94 174 c 128,-1,37
 109 130 109 130 137.5 98 c 128,-1,38
 166 66 166 66 207.5 48 c 128,-1,39
 249 30 249 30 301 30 c 0,20,21
326 125 m 0,40,41
 261 125 261 125 220.5 163.5 c 128,-1,42
 180 202 180 202 180 276 c 0,43,44
 180 331 180 331 199 374.5 c 128,-1,45
 218 418 218 418 248 448.5 c 128,-1,46
 278 479 278 479 315 495.5 c 128,-1,47
 352 512 352 512 388 512 c 0,48,49
 423 512 423 512 446 497 c 128,-1,50
 469 482 469 482 486 461 c 1,51,-1
 449 427 l 1,52,53
 435 444 435 444 419.5 453 c 128,-1,54
 404 462 404 462 381 462 c 0,55,56
 357 462 357 462 332 449 c 128,-1,57
 307 436 307 436 286 412.5 c 128,-1,58
 265 389 265 389 252 356.5 c 128,-1,59
 239 324 239 324 239 285 c 0,60,61
 239 231 239 231 265.5 203.5 c 128,-1,62
 292 176 292 176 337 176 c 0,63,64
 365 176 365 176 387.5 187.5 c 128,-1,65
 410 199 410 199 435 215 c 1,66,-1
 460 176 l 1,67,68
 429 153 429 153 397.5 139 c 128,-1,69
 366 125 366 125 326 125 c 0,40,41
EndSplineSet
Validated: 1
EndChar

StartChar: uni2117
Encoding: 8471 8471 550
Width: 665
Flags: W
LayerCount: 2
Fore
SplineSet
298 -11 m 0,0,1
 240 -11 240 -11 191.5 9.5 c 128,-1,2
 143 30 143 30 108.5 66.5 c 128,-1,3
 74 103 74 103 55 154 c 128,-1,4
 36 205 36 205 36 266 c 0,5,6
 36 340 36 340 62 409.5 c 128,-1,7
 88 479 88 479 135.5 533 c 128,-1,8
 183 587 183 587 250 620 c 128,-1,9
 317 653 317 653 398 653 c 0,10,11
 456 653 456 653 504.5 632.5 c 128,-1,12
 553 612 553 612 587.5 575.5 c 128,-1,13
 622 539 622 539 641.5 488.5 c 128,-1,14
 661 438 661 438 661 377 c 0,15,16
 661 303 661 303 635 233 c 128,-1,17
 609 163 609 163 561 109 c 128,-1,18
 513 55 513 55 446 22 c 128,-1,19
 379 -11 379 -11 298 -11 c 0,0,1
301 30 m 0,20,21
 371 30 371 30 429.5 59.5 c 128,-1,22
 488 89 488 89 530 137.5 c 128,-1,23
 572 186 572 186 595 247.5 c 128,-1,24
 618 309 618 309 618 372 c 0,25,26
 618 425 618 425 603 469 c 128,-1,27
 588 513 588 513 559 545 c 128,-1,28
 530 577 530 577 488.5 595 c 128,-1,29
 447 613 447 613 395 613 c 0,30,31
 325 613 325 613 267 583.5 c 128,-1,32
 209 554 209 554 167 505.5 c 128,-1,33
 125 457 125 457 102 395.5 c 128,-1,34
 79 334 79 334 79 271 c 0,35,36
 79 218 79 218 94 174 c 128,-1,37
 109 130 109 130 137.5 98 c 128,-1,38
 166 66 166 66 207.5 48 c 128,-1,39
 249 30 249 30 301 30 c 0,20,21
196 137 m 1,40,-1
 268 500 l 1,41,-1
 393 500 l 2,42,43
 447 500 447 500 482 475.5 c 128,-1,44
 517 451 517 451 517 403 c 0,45,46
 517 365 517 365 502.5 337 c 128,-1,47
 488 309 488 309 464 290.5 c 128,-1,48
 440 272 440 272 408.5 262.5 c 128,-1,49
 377 253 377 253 343 253 c 2,50,-1
 278 253 l 1,51,-1
 256 137 l 1,52,-1
 196 137 l 1,40,-1
288 298 m 1,53,-1
 346 298 l 2,54,55
 399 298 399 298 428.5 323 c 128,-1,56
 458 348 458 348 458 392 c 0,57,58
 458 421 458 421 437.5 437 c 128,-1,59
 417 453 417 453 379 453 c 2,60,-1
 318 453 l 1,61,-1
 288 298 l 1,53,-1
EndSplineSet
Validated: 1
EndChar

StartChar: registered
Encoding: 174 174 551
Width: 406
Flags: W
LayerCount: 2
Fore
SplineSet
235 323 m 0,0,1
 202 323 202 323 172.5 335.5 c 128,-1,2
 143 348 143 348 121 370 c 128,-1,3
 99 392 99 392 86 423 c 128,-1,4
 73 454 73 454 73 492 c 0,5,6
 73 534 73 534 88 573 c 128,-1,7
 103 612 103 612 129.5 642.5 c 128,-1,8
 156 673 156 673 192.5 691.5 c 128,-1,9
 229 710 229 710 272 710 c 0,10,11
 305 710 305 710 334.5 697.5 c 128,-1,12
 364 685 364 685 386 662.5 c 128,-1,13
 408 640 408 640 421.5 609 c 128,-1,14
 435 578 435 578 435 541 c 0,15,16
 435 499 435 499 420 459.5 c 128,-1,17
 405 420 405 420 378 389.5 c 128,-1,18
 351 359 351 359 314.5 341 c 128,-1,19
 278 323 278 323 235 323 c 0,0,1
238 357 m 0,20,21
 271 357 271 357 300.5 371.5 c 128,-1,22
 330 386 330 386 351.5 410.5 c 128,-1,23
 373 435 373 435 385.5 468 c 128,-1,24
 398 501 398 501 398 537 c 0,25,26
 398 597 398 597 363.5 636 c 128,-1,27
 329 675 329 675 269 675 c 0,28,29
 235 675 235 675 206 660.5 c 128,-1,30
 177 646 177 646 155.5 621.5 c 128,-1,31
 134 597 134 597 122 564.5 c 128,-1,32
 110 532 110 532 110 496 c 0,33,34
 110 466 110 466 118.5 441 c 128,-1,35
 127 416 127 416 143.5 397 c 128,-1,36
 160 378 160 378 184 367.5 c 128,-1,37
 208 357 208 357 238 357 c 0,20,21
169 417 m 1,38,-1
 210 619 l 1,39,-1
 276 619 l 2,40,41
 305 619 305 619 322 604 c 128,-1,42
 339 589 339 589 339 561 c 0,43,44
 339 538 339 538 326 521 c 128,-1,45
 313 504 313 504 290 496 c 1,46,-1
 318 417 l 1,47,-1
 278 417 l 1,48,-1
 256 487 l 1,49,-1
 222 487 l 1,50,-1
 207 417 l 1,51,-1
 169 417 l 1,38,-1
228 517 m 1,52,-1
 250 517 l 2,53,54
 273 517 273 517 286 528 c 128,-1,55
 299 539 299 539 299 557 c 0,56,57
 299 587 299 587 266 587 c 2,58,-1
 241 587 l 1,59,-1
 228 517 l 1,52,-1
EndSplineSet
Validated: 1
EndChar

StartChar: trademark
Encoding: 8482 8482 552
Width: 611
Flags: W
LayerCount: 2
Fore
SplineSet
123 366 m 1,0,-1
 175 626 l 1,1,-1
 76 626 l 1,2,-1
 87 676 l 1,3,-1
 336 676 l 1,4,-1
 326 626 l 1,5,-1
 230 626 l 1,6,-1
 178 366 l 1,7,-1
 123 366 l 1,0,-1
320 366 m 1,8,-1
 382 676 l 1,9,-1
 450 676 l 1,10,-1
 473 561 l 1,11,-1
 484 480 l 1,12,-1
 488 480 l 1,13,-1
 528 561 l 1,14,-1
 599 676 l 1,15,-1
 668 676 l 1,16,-1
 607 366 l 1,17,-1
 552 366 l 1,18,-1
 580 506 l 1,19,-1
 612 618 l 1,20,-1
 608 618 l 1,21,-1
 490 414 l 1,22,-1
 455 414 l 1,23,-1
 417 618 l 1,24,-1
 413 618 l 1,25,-1
 402 506 l 1,26,-1
 373 366 l 1,27,-1
 320 366 l 1,8,-1
EndSplineSet
Validated: 1
EndChar

StartChar: uni2120
Encoding: 8480 8480 553
Width: 601
Flags: W
LayerCount: 2
Fore
SplineSet
148 354 m 0,0,1
 113 354 113 354 87 368.5 c 128,-1,2
 61 383 61 383 43 409 c 1,3,-1
 81 440 l 1,4,5
 94 421 94 421 112 410 c 128,-1,6
 130 399 130 399 152 399 c 0,7,8
 178 399 178 399 195.5 413 c 128,-1,9
 213 427 213 427 213 447 c 0,10,11
 213 462 213 462 205 471 c 128,-1,12
 197 480 197 480 183 488 c 2,13,-1
 142 512 l 2,14,15
 128 521 128 521 113 538.5 c 128,-1,16
 98 556 98 556 98 584 c 0,17,18
 98 628 98 628 130.5 655.5 c 128,-1,19
 163 683 163 683 212 683 c 0,20,21
 239 683 239 683 260.5 671 c 128,-1,22
 282 659 282 659 301 641 c 1,23,-1
 265 607 l 1,24,25
 250 623 250 623 236.5 631 c 128,-1,26
 223 639 223 639 207 639 c 0,27,28
 181 639 181 639 166 625 c 128,-1,29
 151 611 151 611 151 596 c 0,30,31
 151 580 151 580 161 569.5 c 128,-1,32
 171 559 171 559 183 553 c 2,33,-1
 222 530 l 2,34,35
 242 519 242 519 254.5 501.5 c 128,-1,36
 267 484 267 484 267 458 c 0,37,38
 267 437 267 437 258.5 418.5 c 128,-1,39
 250 400 250 400 234 385.5 c 128,-1,40
 218 371 218 371 196.5 362.5 c 128,-1,41
 175 354 175 354 148 354 c 0,0,1
310 366 m 1,42,-1
 372 676 l 1,43,-1
 440 676 l 1,44,-1
 463 561 l 1,45,-1
 474 480 l 1,46,-1
 478 480 l 1,47,-1
 518 561 l 1,48,-1
 589 676 l 1,49,-1
 658 676 l 1,50,-1
 597 366 l 1,51,-1
 542 366 l 1,52,-1
 570 506 l 1,53,-1
 602 618 l 1,54,-1
 598 618 l 1,55,-1
 480 414 l 1,56,-1
 445 414 l 1,57,-1
 407 618 l 1,58,-1
 403 618 l 1,59,-1
 392 506 l 1,60,-1
 363 366 l 1,61,-1
 310 366 l 1,42,-1
EndSplineSet
Validated: 1
EndChar

StartChar: at
Encoding: 64 64 554
Width: 814
Flags: W
LayerCount: 2
Fore
SplineSet
352 -155 m 0,0,1
 287 -155 287 -155 231 -133.5 c 128,-1,2
 175 -112 175 -112 134 -71.5 c 128,-1,3
 93 -31 93 -31 69 28 c 128,-1,4
 45 87 45 87 45 163 c 0,5,6
 45 266 45 266 81.5 354 c 128,-1,7
 118 442 118 442 178.5 506.5 c 128,-1,8
 239 571 239 571 317.5 607.5 c 128,-1,9
 396 644 396 644 480 644 c 0,10,11
 551 644 551 644 606 622 c 128,-1,12
 661 600 661 600 699 560.5 c 128,-1,13
 737 521 737 521 757 466.5 c 128,-1,14
 777 412 777 412 777 348 c 0,15,16
 777 275 777 275 759.5 219 c 128,-1,17
 742 163 742 163 712.5 124.5 c 128,-1,18
 683 86 683 86 645 66.5 c 128,-1,19
 607 47 607 47 567 47 c 0,20,21
 532 47 532 47 508 67.5 c 128,-1,22
 484 88 484 88 477 123 c 1,23,-1
 474 123 l 1,24,25
 451 94 451 94 421.5 75 c 128,-1,26
 392 56 392 56 359 56 c 0,27,28
 336 56 336 56 315 65 c 128,-1,29
 294 74 294 74 278.5 91 c 128,-1,30
 263 108 263 108 253.5 133.5 c 128,-1,31
 244 159 244 159 244 191 c 0,32,33
 244 235 244 235 259.5 278 c 128,-1,34
 275 321 275 321 301.5 354.5 c 128,-1,35
 328 388 328 388 363.5 408.5 c 128,-1,36
 399 429 399 429 440 429 c 0,37,38
 487 429 487 429 513 378 c 1,39,-1
 515 378 l 1,40,-1
 528 421 l 1,41,-1
 579 421 l 1,42,-1
 529 204 l 2,43,44
 518 157 518 157 529.5 128.5 c 128,-1,45
 541 100 541 100 581 100 c 0,46,47
 605 100 605 100 630.5 115.5 c 128,-1,48
 656 131 656 131 676 161.5 c 128,-1,49
 696 192 696 192 709 236.5 c 128,-1,50
 722 281 722 281 722 338 c 0,51,52
 722 392 722 392 707.5 439 c 128,-1,53
 693 486 693 486 662 520 c 128,-1,54
 631 554 631 554 584 573.5 c 128,-1,55
 537 593 537 593 473 593 c 0,56,57
 405 593 405 593 338.5 561 c 128,-1,58
 272 529 272 529 219.5 472.5 c 128,-1,59
 167 416 167 416 134.5 339.5 c 128,-1,60
 102 263 102 263 102 174 c 0,61,62
 102 107 102 107 122.5 55.5 c 128,-1,63
 143 4 143 4 177.5 -31.5 c 128,-1,64
 212 -67 212 -67 258.5 -85 c 128,-1,65
 305 -103 305 -103 358 -103 c 0,66,67
 433 -103 433 -103 493 -66 c 1,68,-1
 516 -112 l 1,69,70
 436 -155 436 -155 352 -155 c 0,0,1
373 109 m 0,71,72
 418 109 418 109 463 170 c 1,73,-1
 499 331 l 1,74,75
 485 357 485 357 471 366.5 c 128,-1,76
 457 376 457 376 440 376 c 0,77,78
 410 376 410 376 385.5 359 c 128,-1,79
 361 342 361 342 343 316 c 128,-1,80
 325 290 325 290 315 258.5 c 128,-1,81
 305 227 305 227 305 198 c 0,82,83
 305 153 305 153 324.5 131 c 128,-1,84
 344 109 344 109 373 109 c 0,71,72
EndSplineSet
Validated: 33
Substitution2: "'case' Case-Sensitive Forms in Latin lookup 19 subtable" at.case
Substitution2: "'aalt' Access All Alternates in Latin lookup 0 subtable" at.case
EndChar

StartChar: at.case
Encoding: 65623 -1 555
Width: 802
Flags: W
LayerCount: 2
Fore
SplineSet
368 -21 m 0,0,1
 309 -21 309 -21 259.5 -2 c 128,-1,2
 210 17 210 17 174 52 c 128,-1,3
 138 87 138 87 118 137.5 c 128,-1,4
 98 188 98 188 98 251 c 0,5,6
 98 347 98 347 131.5 426.5 c 128,-1,7
 165 506 165 506 221 564 c 128,-1,8
 277 622 277 622 349 654 c 128,-1,9
 421 686 421 686 498 686 c 0,10,11
 564 686 564 686 614.5 666.5 c 128,-1,12
 665 647 665 647 699 612 c 128,-1,13
 733 577 733 577 750.5 529 c 128,-1,14
 768 481 768 481 768 425 c 0,15,16
 768 358 768 358 753 306.5 c 128,-1,17
 738 255 738 255 712.5 220 c 128,-1,18
 687 185 687 185 653.5 167 c 128,-1,19
 620 149 620 149 584 149 c 0,20,21
 549 149 549 149 526.5 168.5 c 128,-1,22
 504 188 504 188 497 223 c 1,23,-1
 494 223 l 1,24,25
 472 194 472 194 443 175.5 c 128,-1,26
 414 157 414 157 383 157 c 0,27,28
 341 157 341 157 310 191 c 128,-1,29
 279 225 279 225 279 289 c 0,30,31
 279 328 279 328 293 366.5 c 128,-1,32
 307 405 307 405 331.5 435 c 128,-1,33
 356 465 356 465 389 483.5 c 128,-1,34
 422 502 422 502 460 502 c 0,35,36
 506 502 506 502 530 453 c 1,37,-1
 532 453 l 1,38,-1
 546 496 l 1,39,-1
 596 496 l 1,40,-1
 551 304 l 2,41,42
 540 257 540 257 550.5 229 c 128,-1,43
 561 201 561 201 599 201 c 0,44,45
 620 201 620 201 640.5 215.5 c 128,-1,46
 661 230 661 230 677.5 258 c 128,-1,47
 694 286 694 286 704.5 326.5 c 128,-1,48
 715 367 715 367 715 419 c 0,49,50
 715 466 715 466 701.5 506 c 128,-1,51
 688 546 688 546 661 575 c 128,-1,52
 634 604 634 604 592 620.5 c 128,-1,53
 550 637 550 637 493 637 c 0,54,55
 430 637 430 637 369 608.5 c 128,-1,56
 308 580 308 580 260 529.5 c 128,-1,57
 212 479 212 479 183 410.5 c 128,-1,58
 154 342 154 342 154 262 c 0,59,60
 154 206 154 206 170.5 163 c 128,-1,61
 187 120 187 120 216 90 c 128,-1,62
 245 60 245 60 286 44.5 c 128,-1,63
 327 29 327 29 377 29 c 0,64,65
 413 29 413 29 448.5 37.5 c 128,-1,66
 484 46 484 46 513 63 c 1,67,-1
 527 20 l 1,68,69
 489 -3 489 -3 447.5 -12 c 128,-1,70
 406 -21 406 -21 368 -21 c 0,0,1
398 210 m 0,71,72
 419 210 419 210 440.5 224 c 128,-1,73
 462 238 462 238 485 270 c 1,74,-1
 515 405 l 1,75,76
 502 431 502 431 488.5 440 c 128,-1,77
 475 449 475 449 459 449 c 0,78,79
 432 449 432 449 410 434.5 c 128,-1,80
 388 420 388 420 372 397.5 c 128,-1,81
 356 375 356 375 347.5 348 c 128,-1,82
 339 321 339 321 339 296 c 0,83,84
 339 251 339 251 356 230.5 c 128,-1,85
 373 210 373 210 398 210 c 0,71,72
EndSplineSet
Validated: 33
EndChar

StartChar: numbersign
Encoding: 35 35 556
Width: 479
Flags: W
LayerCount: 2
Fore
SplineSet
38 0 m 1,0,-1
 103 205 l 1,1,-1
 24 205 l 1,2,-1
 37 260 l 1,3,-1
 119 260 l 1,4,-1
 165 410 l 1,5,-1
 85 410 l 1,6,-1
 99 465 l 1,7,-1
 183 465 l 1,8,-1
 242 650 l 1,9,-1
 293 650 l 1,10,-1
 235 465 l 1,11,-1
 360 465 l 1,12,-1
 419 650 l 1,13,-1
 470 650 l 1,14,-1
 412 465 l 1,15,-1
 491 465 l 1,16,-1
 477 410 l 1,17,-1
 395 410 l 1,18,-1
 349 260 l 1,19,-1
 430 260 l 1,20,-1
 416 205 l 1,21,-1
 331 205 l 1,22,-1
 267 0 l 1,23,-1
 215 0 l 1,24,-1
 280 205 l 1,25,-1
 154 205 l 1,26,-1
 90 0 l 1,27,-1
 38 0 l 1,0,-1
171 260 m 1,28,-1
 298 260 l 1,29,-1
 344 410 l 1,30,-1
 217 410 l 1,31,-1
 171 260 l 1,28,-1
EndSplineSet
Validated: 1
EndChar

StartChar: zero.dnom
Encoding: 65628 -1 585
Width: 357
Flags: W
LayerCount: 2
Fore
SplineSet
138 -12 m 0,0,1
 109 -12 109 -12 86 -0.5 c 128,-1,2
 63 11 63 11 47.5 31.5 c 128,-1,3
 32 52 32 52 23.5 79.5 c 128,-1,4
 15 107 15 107 15 140 c 0,5,6
 15 186 15 186 27 233 c 128,-1,7
 39 280 39 280 62.5 318 c 128,-1,8
 86 356 86 356 119.5 379.5 c 128,-1,9
 153 403 153 403 197 403 c 0,10,11
 226 403 226 403 249 391.5 c 128,-1,12
 272 380 272 380 287.5 359.5 c 128,-1,13
 303 339 303 339 311.5 311.5 c 128,-1,14
 320 284 320 284 320 251 c 0,15,16
 320 204 320 204 308 157 c 128,-1,17
 296 110 296 110 272.5 72.5 c 128,-1,18
 249 35 249 35 215 11.5 c 128,-1,19
 181 -12 181 -12 138 -12 c 0,0,1
143 38 m 0,20,21
 171 38 171 38 193 57 c 128,-1,22
 215 76 215 76 230 106 c 128,-1,23
 245 136 245 136 253 173 c 128,-1,24
 261 210 261 210 261 246 c 0,25,26
 261 292 261 292 245 322.5 c 128,-1,27
 229 353 229 353 192 353 c 0,28,29
 164 353 164 353 142 334 c 128,-1,30
 120 315 120 315 105 284.5 c 128,-1,31
 90 254 90 254 82 217 c 128,-1,32
 74 180 74 180 74 144 c 0,33,34
 74 98 74 98 90 68 c 128,-1,35
 106 38 106 38 143 38 c 0,20,21
EndSplineSet
Validated: 1
EndChar

StartChar: one.dnom
Encoding: 65629 -1 586
Width: 356
Flags: W
LayerCount: 2
Fore
SplineSet
120 0 m 1,0,-1
 182 312 l 1,1,-1
 92 312 l 1,2,-1
 100 351 l 1,3,4
 139 357 139 357 162.5 365.5 c 128,-1,5
 186 374 186 374 210 390 c 1,6,-1
 257 390 l 1,7,-1
 180 0 l 1,8,-1
 120 0 l 1,0,-1
EndSplineSet
Validated: 1
EndChar

StartChar: two.dnom
Encoding: 65630 -1 587
Width: 353
Flags: W
LayerCount: 2
Fore
SplineSet
1 0 m 1,0,-1
 8 38 l 1,1,2
 69 81 69 81 113 115.5 c 128,-1,3
 157 150 157 150 185 179 c 128,-1,4
 213 208 213 208 226 234.5 c 128,-1,5
 239 261 239 261 239 288 c 0,6,7
 239 317 239 317 223 333.5 c 128,-1,8
 207 350 207 350 175 350 c 0,9,10
 154 350 154 350 133.5 336.5 c 128,-1,11
 113 323 113 323 94 303 c 1,12,-1
 59 339 l 1,13,14
 87 366 87 366 116.5 384 c 128,-1,15
 146 402 146 402 184 402 c 0,16,17
 238 402 238 402 269 374 c 128,-1,18
 300 346 300 346 300 297 c 0,19,20
 300 266 300 266 287.5 237 c 128,-1,21
 275 208 275 208 250.5 179 c 128,-1,22
 226 150 226 150 189.5 118.5 c 128,-1,23
 153 87 153 87 105 51 c 1,24,-1
 268 51 l 1,25,-1
 258 0 l 1,26,-1
 1 0 l 1,0,-1
EndSplineSet
Validated: 1
EndChar

StartChar: three.dnom
Encoding: 65631 -1 588
Width: 351
Flags: W
LayerCount: 2
Fore
SplineSet
134 -12 m 0,0,1
 85 -12 85 -12 51 12 c 128,-1,2
 17 36 17 36 0 68 c 1,3,-1
 41 97 l 1,4,5
 55 71 55 71 76.5 54 c 128,-1,6
 98 37 98 37 131 37 c 0,7,8
 166 37 166 37 191 55.5 c 128,-1,9
 216 74 216 74 216 109 c 0,10,11
 216 138 216 138 191 159 c 128,-1,12
 166 180 166 180 109 180 c 1,13,-1
 118 221 l 1,14,15
 152 221 152 221 175 228 c 128,-1,16
 198 235 198 235 212 246 c 128,-1,17
 226 257 226 257 232 271 c 128,-1,18
 238 285 238 285 238 299 c 0,19,20
 238 324 238 324 222 339 c 128,-1,21
 206 354 206 354 177 354 c 0,22,23
 136 354 136 354 94 321 c 1,24,-1
 67 362 l 1,25,26
 96 383 96 383 125.5 392.5 c 128,-1,27
 155 402 155 402 188 402 c 0,28,29
 237 402 237 402 267.5 377 c 128,-1,30
 298 352 298 352 298 307 c 0,31,32
 298 270 298 270 274.5 241 c 128,-1,33
 251 212 251 212 207 198 c 1,34,35
 241 186 241 186 258 161 c 128,-1,36
 275 136 275 136 275 110 c 0,37,38
 275 81 275 81 263.5 58.5 c 128,-1,39
 252 36 252 36 233 20 c 128,-1,40
 214 4 214 4 188 -4 c 128,-1,41
 162 -12 162 -12 134 -12 c 0,0,1
EndSplineSet
Validated: 1
EndChar

StartChar: four.dnom
Encoding: 65632 -1 589
Width: 354
Flags: W
LayerCount: 2
Fore
SplineSet
164 0 m 1,0,-1
 185 106 l 1,1,-1
 9 106 l 1,2,-1
 16 139 l 1,3,-1
 230 390 l 1,4,-1
 295 390 l 1,5,-1
 247 149 l 1,6,-1
 304 149 l 1,7,-1
 295 106 l 1,8,-1
 239 106 l 1,9,-1
 218 0 l 1,10,-1
 164 0 l 1,0,-1
78 149 m 1,11,-1
 194 149 l 1,12,-1
 209 225 l 1,13,-1
 235 333 l 1,14,-1
 231 333 l 1,15,-1
 164 249 l 1,16,-1
 78 149 l 1,11,-1
EndSplineSet
Validated: 1
EndChar

StartChar: five.dnom
Encoding: 65633 -1 590
Width: 351
Flags: W
LayerCount: 2
Fore
SplineSet
135 -12 m 0,0,1
 85 -12 85 -12 51 12 c 128,-1,2
 17 36 17 36 0 68 c 1,3,-1
 41 97 l 1,4,5
 55 71 55 71 77 54 c 128,-1,6
 99 37 99 37 137 37 c 0,7,8
 153 37 153 37 169 44 c 128,-1,9
 185 51 185 51 198 63.5 c 128,-1,10
 211 76 211 76 218.5 93.5 c 128,-1,11
 226 111 226 111 226 133 c 0,12,13
 226 169 226 169 207 189 c 128,-1,14
 188 209 188 209 156 209 c 0,15,16
 133 209 133 209 117 201.5 c 128,-1,17
 101 194 101 194 82 180 c 1,18,-1
 59 203 l 1,19,-1
 111 390 l 1,20,-1
 318 390 l 1,21,-1
 308 339 l 1,22,-1
 150 339 l 1,23,-1
 121 238 l 1,24,25
 134 246 134 246 149 249.5 c 128,-1,26
 164 253 164 253 175 253 c 0,27,28
 224 253 224 253 255 222.5 c 128,-1,29
 286 192 286 192 286 139 c 0,30,31
 286 105 286 105 273.5 77 c 128,-1,32
 261 49 261 49 240 29.5 c 128,-1,33
 219 10 219 10 192 -1 c 128,-1,34
 165 -12 165 -12 135 -12 c 0,0,1
EndSplineSet
Validated: 1
EndChar

StartChar: six.dnom
Encoding: 65634 -1 591
Width: 353
Flags: W
LayerCount: 2
Fore
SplineSet
151 -12 m 0,0,1
 124 -12 124 -12 101 -1.5 c 128,-1,2
 78 9 78 9 61 29 c 128,-1,3
 44 49 44 49 34 77 c 128,-1,4
 24 105 24 105 24 140 c 0,5,6
 24 204 24 204 41 253 c 128,-1,7
 58 302 58 302 85.5 335 c 128,-1,8
 113 368 113 368 149 385 c 128,-1,9
 185 402 185 402 224 402 c 0,10,11
 284 402 284 402 322 364 c 1,12,-1
 288 326 l 1,13,14
 274 340 274 340 257.5 346.5 c 128,-1,15
 241 353 241 353 219 353 c 0,16,17
 172 353 172 353 134.5 313.5 c 128,-1,18
 97 274 97 274 86 198 c 1,19,20
 103 216 103 216 128 229 c 128,-1,21
 153 242 153 242 182 242 c 0,22,23
 232 242 232 242 260 212 c 128,-1,24
 288 182 288 182 288 136 c 0,25,26
 288 102 288 102 276.5 74.5 c 128,-1,27
 265 47 265 47 245.5 28 c 128,-1,28
 226 9 226 9 201.5 -1.5 c 128,-1,29
 177 -12 177 -12 151 -12 c 0,0,1
156 37 m 0,30,31
 171 37 171 37 184.5 44 c 128,-1,32
 198 51 198 51 208.5 63 c 128,-1,33
 219 75 219 75 225.5 92.5 c 128,-1,34
 232 110 232 110 232 131 c 0,35,36
 232 162 232 162 215 180 c 128,-1,37
 198 198 198 198 169 198 c 0,38,39
 149 198 149 198 125.5 186.5 c 128,-1,40
 102 175 102 175 82 150 c 1,41,-1
 82 143 l 2,42,43
 82 86 82 86 104.5 61.5 c 128,-1,44
 127 37 127 37 156 37 c 0,30,31
EndSplineSet
Validated: 1
EndChar

StartChar: seven.dnom
Encoding: 65635 -1 592
Width: 353
Flags: W
LayerCount: 2
Fore
SplineSet
72 0 m 1,0,1
 97 97 97 97 141 179 c 128,-1,2
 185 261 185 261 259 339 c 1,3,-1
 66 339 l 1,4,-1
 76 390 l 1,5,-1
 337 390 l 1,6,-1
 333 356 l 1,7,8
 286 311 286 311 254 267.5 c 128,-1,9
 222 224 222 224 199.5 180.5 c 128,-1,10
 177 137 177 137 162.5 92 c 128,-1,11
 148 47 148 47 137 0 c 1,12,-1
 72 0 l 1,0,1
EndSplineSet
Validated: 1
EndChar

StartChar: eight.dnom
Encoding: 65636 -1 593
Width: 353
Flags: W
LayerCount: 2
Fore
SplineSet
134 -12 m 0,0,1
 81 -12 81 -12 47 16.5 c 128,-1,2
 13 45 13 45 13 91 c 0,3,4
 13 112 13 112 21 130.5 c 128,-1,5
 29 149 29 149 42.5 164.5 c 128,-1,6
 56 180 56 180 73 192 c 128,-1,7
 90 204 90 204 108 212 c 1,8,-1
 109 216 l 1,9,10
 92 231 92 231 80.5 250 c 128,-1,11
 69 269 69 269 69 292 c 0,12,13
 69 316 69 316 79 336.5 c 128,-1,14
 89 357 89 357 106.5 371.5 c 128,-1,15
 124 386 124 386 147.5 394 c 128,-1,16
 171 402 171 402 197 402 c 0,17,18
 245 402 245 402 275 375.5 c 128,-1,19
 305 349 305 349 305 305 c 0,20,21
 305 267 305 267 281 239.5 c 128,-1,22
 257 212 257 212 229 197 c 1,23,-1
 229 193 l 1,24,25
 250 178 250 178 264 157.5 c 128,-1,26
 278 137 278 137 278 107 c 0,27,28
 278 81 278 81 266.5 59 c 128,-1,29
 255 37 255 37 235.5 21 c 128,-1,30
 216 5 216 5 190 -3.5 c 128,-1,31
 164 -12 164 -12 134 -12 c 0,0,1
191 220 m 1,32,33
 220 237 220 237 235.5 257 c 128,-1,34
 251 277 251 277 251 298 c 0,35,36
 251 326 251 326 234.5 341.5 c 128,-1,37
 218 357 218 357 193 357 c 0,38,39
 164 357 164 357 144 339.5 c 128,-1,40
 124 322 124 322 124 295 c 0,41,42
 124 267 124 267 143 249 c 128,-1,43
 162 231 162 231 191 220 c 1,32,33
139 32 m 0,44,45
 172 32 172 32 197 51.5 c 128,-1,46
 222 71 222 71 222 104 c 0,47,48
 222 121 222 121 215.5 133 c 128,-1,49
 209 145 209 145 198 154 c 128,-1,50
 187 163 187 163 172.5 170.5 c 128,-1,51
 158 178 158 178 142 186 c 1,52,53
 107 169 107 169 88.5 146.5 c 128,-1,54
 70 124 70 124 70 99 c 0,55,56
 70 68 70 68 90 50 c 128,-1,57
 110 32 110 32 139 32 c 0,44,45
EndSplineSet
Validated: 1
EndChar

StartChar: nine.dnom
Encoding: 65637 -1 594
Width: 353
Flags: W
LayerCount: 2
Fore
SplineSet
159 192 m 0,0,1
 180 192 180 192 203.5 203.5 c 128,-1,2
 227 215 227 215 247 241 c 1,3,-1
 247 247 l 2,4,5
 247 304 247 304 224.5 328.5 c 128,-1,6
 202 353 202 353 172 353 c 0,7,8
 157 353 157 353 143.5 346 c 128,-1,9
 130 339 130 339 119.5 327 c 128,-1,10
 109 315 109 315 102.5 297.5 c 128,-1,11
 96 280 96 280 96 259 c 0,12,13
 96 228 96 228 113 210 c 128,-1,14
 130 192 130 192 159 192 c 0,0,1
104 -12 m 0,15,16
 44 -12 44 -12 6 26 c 1,17,-1
 40 64 l 1,18,19
 68 37 68 37 109 37 c 0,20,21
 157 37 157 37 194.5 77 c 128,-1,22
 232 117 232 117 243 193 c 1,23,24
 226 175 226 175 200.5 161.5 c 128,-1,25
 175 148 175 148 146 148 c 0,26,27
 96 148 96 148 68 178 c 128,-1,28
 40 208 40 208 40 254 c 0,29,30
 40 288 40 288 51.5 315.5 c 128,-1,31
 63 343 63 343 82.5 362 c 128,-1,32
 102 381 102 381 126.5 391.5 c 128,-1,33
 151 402 151 402 177 402 c 0,34,35
 204 402 204 402 227 391.5 c 128,-1,36
 250 381 250 381 267 361 c 128,-1,37
 284 341 284 341 294 313 c 128,-1,38
 304 285 304 285 304 250 c 0,39,40
 304 186 304 186 287.5 137 c 128,-1,41
 271 88 271 88 243 55 c 128,-1,42
 215 22 215 22 179 5 c 128,-1,43
 143 -12 143 -12 104 -12 c 0,15,16
EndSplineSet
Validated: 1
EndChar

StartChar: parenleft.dnom
Encoding: 65638 -1 595
Width: 227
Flags: W
LayerCount: 2
Fore
SplineSet
81 -79 m 1,0,1
 61 -37 61 -37 50 11 c 128,-1,2
 39 59 39 59 39 113 c 0,3,4
 39 164 39 164 47.5 208.5 c 128,-1,5
 56 253 56 253 74.5 295 c 128,-1,6
 93 337 93 337 121 379 c 128,-1,7
 149 421 149 421 188 466 c 1,8,-1
 226 444 l 1,9,10
 159 361 159 361 127.5 280.5 c 128,-1,11
 96 200 96 200 96 112 c 0,12,13
 96 71 96 71 102.5 24 c 128,-1,14
 109 -23 109 -23 125 -59 c 1,15,-1
 81 -79 l 1,0,1
EndSplineSet
Validated: 1
EndChar

StartChar: parenright.dnom
Encoding: 65639 -1 596
Width: 226
Flags: W
LayerCount: 2
Fore
SplineSet
15 -79 m 1,0,-1
 -24 -58 l 1,1,2
 44 25 44 25 75.5 105.5 c 128,-1,3
 107 186 107 186 107 274 c 0,4,5
 107 315 107 315 100.5 362 c 128,-1,6
 94 409 94 409 78 445 c 1,7,-1
 121 466 l 1,8,9
 141 424 141 424 152.5 375.5 c 128,-1,10
 164 327 164 327 164 274 c 0,11,12
 164 223 164 223 155.5 178.5 c 128,-1,13
 147 134 147 134 128.5 91.5 c 128,-1,14
 110 49 110 49 82 7.5 c 128,-1,15
 54 -34 54 -34 15 -79 c 1,0,-1
EndSplineSet
Validated: 1
EndChar

StartChar: period.dnom
Encoding: 65640 -1 597
Width: 170
Flags: W
LayerCount: 2
Fore
SplineSet
34 -8 m 0,0,1
 17 -8 17 -8 7 2.5 c 128,-1,2
 -3 13 -3 13 -3 30 c 0,3,4
 -3 53 -3 53 12 68.5 c 128,-1,5
 27 84 27 84 49 84 c 0,6,7
 65 84 65 84 75.5 73.5 c 128,-1,8
 86 63 86 63 86 46 c 0,9,10
 86 23 86 23 71 7.5 c 128,-1,11
 56 -8 56 -8 34 -8 c 0,0,1
EndSplineSet
Validated: 1
EndChar

StartChar: comma.dnom
Encoding: 65641 -1 598
Width: 170
Flags: W
LayerCount: 2
Fore
SplineSet
-24 -114 m 1,0,-1
 -35 -78 l 1,1,2
 -3 -65 -3 -65 16.5 -46.5 c 128,-1,3
 36 -28 36 -28 41 -1 c 1,4,-1
 37 -1 l 2,5,6
 22 -1 22 -1 11 9 c 128,-1,7
 0 19 0 19 0 36 c 0,8,9
 0 60 0 60 14.5 72 c 128,-1,10
 29 84 29 84 49 84 c 0,11,12
 68 84 68 84 79.5 69.5 c 128,-1,13
 91 55 91 55 91 31 c 0,14,15
 91 -20 91 -20 60 -57 c 128,-1,16
 29 -94 29 -94 -24 -114 c 1,0,-1
EndSplineSet
Validated: 1
EndChar

StartChar: a.sups
Encoding: 7491 7491 616
Width: 354
Flags: W
LayerCount: 2
Fore
SplineSet
85 505 m 0,0,1
 85 551 85 551 100 591 c 128,-1,2
 115 631 115 631 139.5 660.5 c 128,-1,3
 164 690 164 690 196 707 c 128,-1,4
 228 724 228 724 262 724 c 0,5,6
 285 724 285 724 304.5 712.5 c 128,-1,7
 324 701 324 701 336 677 c 1,8,-1
 340 677 l 1,9,-1
 354 716 l 1,10,-1
 399 716 l 1,11,-1
 336 395 l 1,12,-1
 289 395 l 1,13,-1
 295 442 l 1,14,-1
 291 442 l 1,15,16
 267 416 267 416 238.5 401.5 c 128,-1,17
 210 387 210 387 179 387 c 0,18,19
 137 387 137 387 111 417 c 128,-1,20
 85 447 85 447 85 505 c 0,0,1
198 435 m 0,21,22
 222 435 222 435 249 451.5 c 128,-1,23
 276 468 276 468 299 497 c 1,24,-1
 325 631 l 1,25,26
 311 656 311 656 296 666 c 128,-1,27
 281 676 281 676 264 676 c 0,28,29
 241 676 241 676 219.5 662.5 c 128,-1,30
 198 649 198 649 181.5 626.5 c 128,-1,31
 165 604 165 604 154.5 574 c 128,-1,32
 144 544 144 544 144 512 c 0,33,34
 144 472 144 472 159.5 453.5 c 128,-1,35
 175 435 175 435 198 435 c 0,21,22
EndSplineSet
Validated: 1
Substitution2: "'ss02' Style Set 2 in Latin lookup 21 subtable" a.supa
Substitution2: "'aalt' Access All Alternates in Latin lookup 0 subtable" a.supa
EndChar

StartChar: b.sups
Encoding: 7495 7495 617
Width: 360
Flags: W
LayerCount: 2
Fore
SplineSet
101 395 m 1,0,-1
 56 395 l 1,1,-1
 149 863 l 1,2,-1
 207 863 l 1,3,-1
 183 745 l 1,4,-1
 167 679 l 1,5,-1
 169 679 l 1,6,7
 192 699 192 699 218.5 711.5 c 128,-1,8
 245 724 245 724 276 724 c 0,9,10
 319 724 319 724 344.5 694 c 128,-1,11
 370 664 370 664 370 606 c 0,12,13
 370 560 370 560 355 520 c 128,-1,14
 340 480 340 480 315.5 450.5 c 128,-1,15
 291 421 291 421 259 404 c 128,-1,16
 227 387 227 387 193 387 c 0,17,18
 170 387 170 387 150.5 398.5 c 128,-1,19
 131 410 131 410 119 434 c 1,20,-1
 115 434 l 1,21,-1
 101 395 l 1,0,-1
257 676 m 0,22,23
 233 676 233 676 207 663 c 128,-1,24
 181 650 181 650 158 624 c 1,25,-1
 130 480 l 1,26,27
 144 455 144 455 159 445 c 128,-1,28
 174 435 174 435 191 435 c 0,29,30
 213 435 213 435 235 448.5 c 128,-1,31
 257 462 257 462 273.5 484.5 c 128,-1,32
 290 507 290 507 300.5 537 c 128,-1,33
 311 567 311 567 311 599 c 0,34,35
 311 639 311 639 295.5 657.5 c 128,-1,36
 280 676 280 676 257 676 c 0,22,23
EndSplineSet
Validated: 1
EndChar

StartChar: c.sups
Encoding: 7580 7580 618
Width: 292
Flags: W
LayerCount: 2
Fore
SplineSet
183 387 m 0,0,1
 129 387 129 387 94 421 c 128,-1,2
 59 455 59 455 59 515 c 0,3,4
 59 554 59 554 72.5 591.5 c 128,-1,5
 86 629 86 629 110 658.5 c 128,-1,6
 134 688 134 688 167.5 706 c 128,-1,7
 201 724 201 724 241 724 c 0,8,9
 270 724 270 724 291.5 713.5 c 128,-1,10
 313 703 313 703 329 686 c 1,11,-1
 294 650 l 1,12,13
 282 664 282 664 269 670.5 c 128,-1,14
 256 677 256 677 237 677 c 0,15,16
 211 677 211 677 189 663 c 128,-1,17
 167 649 167 649 151 626.5 c 128,-1,18
 135 604 135 604 126 576.5 c 128,-1,19
 117 549 117 549 117 522 c 0,20,21
 117 477 117 477 139.5 455.5 c 128,-1,22
 162 434 162 434 194 434 c 0,23,24
 214 434 214 434 230.5 441.5 c 128,-1,25
 247 449 247 449 261 458 c 1,26,-1
 281 420 l 1,27,28
 265 407 265 407 240 397 c 128,-1,29
 215 387 215 387 183 387 c 0,0,1
EndSplineSet
Validated: 1
EndChar

StartChar: d.sups
Encoding: 7496 7496 619
Width: 365
Flags: W
LayerCount: 2
Fore
SplineSet
314 679 m 1,0,-1
 321 744 l 1,1,-1
 345 860 l 1,2,-1
 402 860 l 1,3,-1
 310 395 l 1,4,-1
 263 395 l 1,5,-1
 269 442 l 1,6,-1
 265 442 l 1,7,8
 242 416 242 416 213 401.5 c 128,-1,9
 184 387 184 387 154 387 c 0,10,11
 111 387 111 387 85.5 417 c 128,-1,12
 60 447 60 447 60 505 c 0,13,14
 60 551 60 551 75 591 c 128,-1,15
 90 631 90 631 114.5 660.5 c 128,-1,16
 139 690 139 690 170.5 707 c 128,-1,17
 202 724 202 724 236 724 c 0,18,19
 259 724 259 724 279 713 c 128,-1,20
 299 702 299 702 310 679 c 1,21,-1
 314 679 l 1,0,-1
173 435 m 0,22,23
 196 435 196 435 223 451.5 c 128,-1,24
 250 468 250 468 273 497 c 1,25,-1
 299 631 l 1,26,27
 285 656 285 656 270 666 c 128,-1,28
 255 676 255 676 238 676 c 0,29,30
 215 676 215 676 193.5 662.5 c 128,-1,31
 172 649 172 649 155.5 626.5 c 128,-1,32
 139 604 139 604 128.5 574 c 128,-1,33
 118 544 118 544 118 512 c 0,34,35
 118 472 118 472 133.5 453.5 c 128,-1,36
 149 435 149 435 173 435 c 0,22,23
EndSplineSet
Validated: 1
EndChar

StartChar: e.sups
Encoding: 7497 7497 620
Width: 323
Flags: W
LayerCount: 2
Fore
SplineSet
59 523 m 0,0,1
 59 568 59 568 74.5 605 c 128,-1,2
 90 642 90 642 114.5 668.5 c 128,-1,3
 139 695 139 695 170.5 709.5 c 128,-1,4
 202 724 202 724 234 724 c 0,5,6
 264 724 264 724 284 714 c 128,-1,7
 304 704 304 704 316 687.5 c 128,-1,8
 328 671 328 671 333 650 c 128,-1,9
 338 629 338 629 338 607 c 0,10,11
 338 587 338 587 333.5 570 c 128,-1,12
 329 553 329 553 324 542 c 1,13,-1
 116 542 l 1,14,15
 110 490 110 490 132.5 461 c 128,-1,16
 155 432 155 432 200 432 c 0,17,18
 222 432 222 432 239.5 439.5 c 128,-1,19
 257 447 257 447 274 458 c 1,20,-1
 293 418 l 1,21,22
 271 406 271 406 244 396.5 c 128,-1,23
 217 387 217 387 187 387 c 0,24,25
 128 387 128 387 93.5 422 c 128,-1,26
 59 457 59 457 59 523 c 0,0,1
122 581 m 1,27,-1
 285 581 l 1,28,29
 287 589 287 589 287.5 596 c 128,-1,30
 288 603 288 603 288 610 c 0,31,32
 288 637 288 637 274 657.5 c 128,-1,33
 260 678 260 678 227 678 c 0,34,35
 196 678 196 678 165 652 c 128,-1,36
 134 626 134 626 122 581 c 1,27,-1
EndSplineSet
Validated: 33
EndChar

StartChar: f.sups
Encoding: 7584 7584 621
Width: 194
Flags: W
LayerCount: 2
Fore
SplineSet
62 395 m 1,0,-1
 117 670 l 1,1,-1
 75 670 l 1,2,-1
 83 713 l 1,3,-1
 127 716 l 1,4,-1
 137 767 l 2,5,6
 147 817 147 817 174 845.5 c 128,-1,7
 201 874 201 874 246 874 c 0,8,9
 277 874 277 874 306 858 c 1,10,-1
 286 816 l 1,11,12
 279 821 279 821 269.5 824 c 128,-1,13
 260 827 260 827 249 827 c 0,14,15
 229 827 229 827 214.5 811.5 c 128,-1,16
 200 796 200 796 195 768 c 2,17,-1
 185 716 l 1,18,-1
 252 716 l 1,19,-1
 243 670 l 1,20,-1
 175 670 l 1,21,-1
 120 395 l 1,22,-1
 62 395 l 1,0,-1
EndSplineSet
Validated: 1
EndChar

StartChar: g.sups
Encoding: 7501 7501 622
Width: 354
Flags: W
LayerCount: 2
Fore
SplineSet
328 716 m 1,0,-1
 374 716 l 1,1,-1
 308 386 l 2,2,3
 294 320 294 320 254 282 c 128,-1,4
 214 244 214 244 153 244 c 0,5,6
 124 244 124 244 92.5 255 c 128,-1,7
 61 266 61 266 34 289 c 1,8,-1
 60 329 l 1,9,10
 80 313 80 313 104.5 302 c 128,-1,11
 129 291 129 291 155 291 c 0,12,13
 193 291 193 291 217.5 317 c 128,-1,14
 242 343 242 343 253 388 c 2,15,-1
 267 442 l 1,16,-1
 263 442 l 1,17,18
 238 422 238 422 211.5 410.5 c 128,-1,19
 185 399 185 399 154 399 c 0,20,21
 111 399 111 399 85.5 428 c 128,-1,22
 60 457 60 457 60 511 c 0,23,24
 60 555 60 555 74.5 593.5 c 128,-1,25
 89 632 89 632 113.5 661 c 128,-1,26
 138 690 138 690 170 707 c 128,-1,27
 202 724 202 724 236 724 c 0,28,29
 259 724 259 724 279 712.5 c 128,-1,30
 299 701 299 701 310 677 c 1,31,-1
 314 677 l 1,32,-1
 328 716 l 1,0,-1
173 447 m 0,33,34
 197 447 197 447 223.5 460 c 128,-1,35
 250 473 250 473 273 497 c 1,36,-1
 299 631 l 1,37,38
 285 656 285 656 270 666 c 128,-1,39
 255 676 255 676 238 676 c 0,40,41
 215 676 215 676 193.5 662.5 c 128,-1,42
 172 649 172 649 155.5 627.5 c 128,-1,43
 139 606 139 606 129 577.5 c 128,-1,44
 119 549 119 549 119 519 c 0,45,46
 119 482 119 482 134.5 464.5 c 128,-1,47
 150 447 150 447 173 447 c 0,33,34
EndSplineSet
Validated: 1
Substitution2: "'ss03' Style Set 3 in Latin lookup 22 subtable" g.supa
Substitution2: "'aalt' Access All Alternates in Latin lookup 0 subtable" g.supa
EndChar

StartChar: h.sups
Encoding: 688 688 623
Width: 353
Flags: W
LayerCount: 2
Fore
SplineSet
56 395 m 1,0,-1
 149 863 l 1,1,-1
 207 863 l 1,2,-1
 183 745 l 1,3,-1
 166 673 l 1,4,-1
 170 673 l 1,5,6
 195 695 195 695 222 709.5 c 128,-1,7
 249 724 249 724 279 724 c 0,8,9
 321 724 321 724 338.5 702.5 c 128,-1,10
 356 681 356 681 356 642 c 0,11,12
 356 631 356 631 354 620 c 128,-1,13
 352 609 352 609 350 599 c 2,14,-1
 309 395 l 1,15,-1
 251 395 l 1,16,-1
 291 591 l 2,17,18
 293 603 293 603 294.5 611 c 128,-1,19
 296 619 296 619 296 627 c 0,20,21
 296 675 296 675 255 675 c 0,22,23
 233 675 233 675 210 660.5 c 128,-1,24
 187 646 187 646 158 617 c 1,25,-1
 113 395 l 1,26,-1
 56 395 l 1,0,-1
EndSplineSet
Validated: 1
EndChar

StartChar: i.sups
Encoding: 8305 8305 624
Width: 163
Flags: W
LayerCount: 2
Fore
SplineSet
165 779 m 0,0,1
 151 779 151 779 140 787.5 c 128,-1,2
 129 796 129 796 129 813 c 256,3,4
 129 830 129 830 141.5 842 c 128,-1,5
 154 854 154 854 171 854 c 0,6,7
 185 854 185 854 196 845.5 c 128,-1,8
 207 837 207 837 207 820 c 256,9,10
 207 803 207 803 194.5 791 c 128,-1,11
 182 779 182 779 165 779 c 0,0,1
56 395 m 1,12,-1
 119 716 l 1,13,-1
 177 716 l 1,14,-1
 113 395 l 1,15,-1
 56 395 l 1,12,-1
EndSplineSet
Validated: 1
EndChar

StartChar: j.sups
Encoding: 690 690 625
Width: 164
Flags: W
LayerCount: 2
Fore
SplineSet
4 250 m 0,0,1
 -22 250 -22 250 -50 264 c 1,2,-1
 -30 305 l 1,3,4
 -24 302 -24 302 -16.5 299.5 c 128,-1,5
 -9 297 -9 297 1 297 c 0,6,7
 21 297 21 297 31.5 312 c 128,-1,8
 42 327 42 327 48 355 c 2,9,-1
 119 716 l 1,10,-1
 177 716 l 1,11,-1
 105 352 l 2,12,13
 96 305 96 305 72.5 277.5 c 128,-1,14
 49 250 49 250 4 250 c 0,0,1
165 779 m 0,15,16
 151 779 151 779 140 787.5 c 128,-1,17
 129 796 129 796 129 813 c 256,18,19
 129 830 129 830 141.5 842 c 128,-1,20
 154 854 154 854 171 854 c 0,21,22
 185 854 185 854 196 845.5 c 128,-1,23
 207 837 207 837 207 820 c 256,24,25
 207 803 207 803 194.5 791 c 128,-1,26
 182 779 182 779 165 779 c 0,15,16
EndSplineSet
Validated: 1
EndChar

StartChar: k.sups
Encoding: 7503 7503 626
Width: 325
Flags: W
LayerCount: 2
Fore
SplineSet
56 395 m 1,0,-1
 149 863 l 1,1,-1
 207 863 l 1,2,-1
 144 555 l 1,3,-1
 148 555 l 1,4,-1
 306 716 l 1,5,-1
 370 716 l 1,6,-1
 242 582 l 1,7,-1
 321 395 l 1,8,-1
 264 395 l 1,9,-1
 202 549 l 1,10,-1
 129 478 l 1,11,-1
 113 395 l 1,12,-1
 56 395 l 1,0,-1
EndSplineSet
Validated: 1
EndChar

StartChar: l.sups
Encoding: 737 737 627
Width: 165
Flags: W
LayerCount: 2
Fore
SplineSet
70 468 m 2,0,-1
 149 863 l 1,1,-1
 207 863 l 1,2,-1
 126 461 l 2,3,4
 124 456 124 456 124 453 c 128,-1,5
 124 450 124 450 124 447 c 0,6,7
 124 435 124 435 137 435 c 0,8,9
 139 435 139 435 142 435.5 c 128,-1,10
 145 436 145 436 149 438 c 1,11,-1
 151 393 l 1,12,13
 136 387 136 387 113 387 c 0,14,15
 89 387 89 387 77.5 399.5 c 128,-1,16
 66 412 66 412 66 434 c 0,17,18
 66 442 66 442 67 450.5 c 128,-1,19
 68 459 68 459 70 468 c 2,0,-1
EndSplineSet
Validated: 1
Substitution2: "'ss01' Style Set 1 in Latin lookup 20 subtable" l.supa
Substitution2: "'aalt' Access All Alternates in Latin lookup 0 subtable" l.supa
EndChar

StartChar: m.sups
Encoding: 7504 7504 628
Width: 536
Flags: W
LayerCount: 2
Fore
SplineSet
56 395 m 1,0,-1
 119 716 l 1,1,-1
 166 716 l 1,2,-1
 162 670 l 1,3,-1
 166 670 l 1,4,5
 191 693 191 693 218 708.5 c 128,-1,6
 245 724 245 724 274 724 c 0,7,8
 312 724 312 724 327.5 706.5 c 128,-1,9
 343 689 343 689 348 664 c 1,10,11
 377 690 377 690 405.5 707 c 128,-1,12
 434 724 434 724 462 724 c 0,13,14
 504 724 504 724 521.5 702.5 c 128,-1,15
 539 681 539 681 539 642 c 0,16,17
 539 623 539 623 533 598 c 2,18,-1
 493 395 l 1,19,-1
 436 395 l 1,20,-1
 475 591 l 2,21,22
 477 602 477 602 478.5 611 c 128,-1,23
 480 620 480 620 480 628 c 0,24,25
 480 675 480 675 439 675 c 0,26,27
 421 675 421 675 397 660 c 128,-1,28
 373 645 373 645 348 617 c 1,29,-1
 304 395 l 1,30,-1
 247 395 l 1,31,-1
 286 591 l 2,32,33
 288 602 288 602 289.5 610 c 128,-1,34
 291 618 291 618 291 626 c 0,35,36
 291 675 291 675 249 675 c 0,37,38
 232 675 232 675 208 660 c 128,-1,39
 184 645 184 645 158 617 c 1,40,-1
 113 395 l 1,41,-1
 56 395 l 1,0,-1
EndSplineSet
Validated: 1
EndChar

